<?xml version="1.0" encoding="utf-8" standalone="no"?>
<!DOCTYPE svg PUBLIC "-//W3C//DTD SVG 1.1//EN"
  "http://www.w3.org/Graphics/SVG/1.1/DTD/svg11.dtd">
<!-- Created with matplotlib (http://matplotlib.org/) -->
<svg height="345.6pt" version="1.1" viewBox="0 0 460.8 345.6" width="460.8pt" xmlns="http://www.w3.org/2000/svg" xmlns:xlink="http://www.w3.org/1999/xlink">
 <defs>
  <style type="text/css">
*{stroke-linecap:butt;stroke-linejoin:round;}
  </style>
 </defs>
 <g id="figure_1">
  <g id="patch_1">
   <path d="M 0 345.6 
L 460.8 345.6 
L 460.8 0 
L 0 0 
z
" style="fill:#ffffff;"/>
  </g>
  <g id="axes_1">
   <g id="patch_2">
    <path d="M 57.6 66.576906 
L 414.72 66.576906 
L 414.72 41.472 
L 57.6 41.472 
z
" style="fill:#eaeaf2;"/>
   </g>
   <g id="matplotlib.axis_1">
    <g id="xtick_1">
     <g id="line2d_1">
      <path clip-path="url(#p6312757345)" d="M 57.597536 66.576906 
L 57.597536 41.472 
" style="fill:none;stroke:#ffffff;stroke-linecap:round;stroke-width:0.8;"/>
     </g>
     <g id="line2d_2"/>
    </g>
    <g id="xtick_2">
     <g id="line2d_3">
      <path clip-path="url(#p6312757345)" d="M 129.749683 66.576906 
L 129.749683 41.472 
" style="fill:none;stroke:#ffffff;stroke-linecap:round;stroke-width:0.8;"/>
     </g>
     <g id="line2d_4"/>
    </g>
    <g id="xtick_3">
     <g id="line2d_5">
      <path clip-path="url(#p6312757345)" d="M 201.901831 66.576906 
L 201.901831 41.472 
" style="fill:none;stroke:#ffffff;stroke-linecap:round;stroke-width:0.8;"/>
     </g>
     <g id="line2d_6"/>
    </g>
    <g id="xtick_4">
     <g id="line2d_7">
      <path clip-path="url(#p6312757345)" d="M 274.053978 66.576906 
L 274.053978 41.472 
" style="fill:none;stroke:#ffffff;stroke-linecap:round;stroke-width:0.8;"/>
     </g>
     <g id="line2d_8"/>
    </g>
    <g id="xtick_5">
     <g id="line2d_9">
      <path clip-path="url(#p6312757345)" d="M 346.206125 66.576906 
L 346.206125 41.472 
" style="fill:none;stroke:#ffffff;stroke-linecap:round;stroke-width:0.8;"/>
     </g>
     <g id="line2d_10"/>
    </g>
   </g>
   <g id="matplotlib.axis_2">
    <g id="ytick_1">
     <g id="line2d_11">
      <path clip-path="url(#p6312757345)" d="M 57.6 66.577144 
L 414.72 66.577144 
" style="fill:none;stroke:#ffffff;stroke-linecap:round;stroke-width:0.8;"/>
     </g>
     <g id="line2d_12"/>
     <g id="text_1">
      <!-- 0.0 -->
      <defs>
       <path d="M 51.703125 34.421875 
Q 51.703125 17.1875 45.625 8.09375 
Q 39.546875 -0.984375 27.6875 -0.984375 
Q 15.828125 -0.984375 9.859375 8.046875 
Q 3.90625 17.09375 3.90625 34.421875 
Q 3.90625 52.15625 9.6875 60.984375 
Q 15.484375 69.828125 27.984375 69.828125 
Q 40.140625 69.828125 45.921875 60.890625 
Q 51.703125 51.953125 51.703125 34.421875 
z
M 42.78125 34.421875 
Q 42.78125 49.3125 39.328125 56 
Q 35.890625 62.703125 27.984375 62.703125 
Q 19.875 62.703125 16.328125 56.109375 
Q 12.796875 49.515625 12.796875 34.421875 
Q 12.796875 19.78125 16.375 12.984375 
Q 19.96875 6.203125 27.78125 6.203125 
Q 35.546875 6.203125 39.15625 13.125 
Q 42.78125 20.0625 42.78125 34.421875 
z
" id="LiberationSans-30"/>
       <path d="M 9.125 0 
L 9.125 10.6875 
L 18.65625 10.6875 
L 18.65625 0 
z
" id="LiberationSans-2e"/>
      </defs>
      <g style="fill:#262626;" transform="translate(40.2 70.200581)scale(0.1 -0.1)">
       <use xlink:href="#LiberationSans-30"/>
       <use x="55.615234" xlink:href="#LiberationSans-2e"/>
       <use x="83.398438" xlink:href="#LiberationSans-30"/>
      </g>
     </g>
    </g>
    <g id="ytick_2">
     <g id="line2d_13">
      <path clip-path="url(#p6312757345)" d="M 57.6 55.274884 
L 414.72 55.274884 
" style="fill:none;stroke:#ffffff;stroke-linecap:round;stroke-width:0.8;"/>
     </g>
     <g id="line2d_14"/>
     <g id="text_2">
      <!-- 0.2 -->
      <defs>
       <path d="M 5.03125 0 
L 5.03125 6.203125 
Q 7.515625 11.921875 11.109375 16.28125 
Q 14.703125 20.65625 18.65625 24.1875 
Q 22.609375 27.734375 26.484375 30.765625 
Q 30.375 33.796875 33.5 36.8125 
Q 36.625 39.84375 38.546875 43.15625 
Q 40.484375 46.484375 40.484375 50.6875 
Q 40.484375 56.34375 37.15625 59.46875 
Q 33.84375 62.59375 27.9375 62.59375 
Q 22.3125 62.59375 18.671875 59.546875 
Q 15.046875 56.5 14.40625 50.984375 
L 5.421875 51.8125 
Q 6.390625 60.0625 12.421875 64.9375 
Q 18.453125 69.828125 27.9375 69.828125 
Q 38.328125 69.828125 43.921875 64.921875 
Q 49.515625 60.015625 49.515625 50.984375 
Q 49.515625 46.96875 47.671875 43.015625 
Q 45.84375 39.0625 42.234375 35.109375 
Q 38.625 31.15625 28.421875 22.859375 
Q 22.796875 18.265625 19.46875 14.578125 
Q 16.15625 10.890625 14.703125 7.46875 
L 50.59375 7.46875 
L 50.59375 0 
z
" id="LiberationSans-32"/>
      </defs>
      <g style="fill:#262626;" transform="translate(40.2 58.898322)scale(0.1 -0.1)">
       <use xlink:href="#LiberationSans-30"/>
       <use x="55.615234" xlink:href="#LiberationSans-2e"/>
       <use x="83.398438" xlink:href="#LiberationSans-32"/>
      </g>
     </g>
    </g>
    <g id="ytick_3">
     <g id="line2d_15">
      <path clip-path="url(#p6312757345)" d="M 57.6 43.972625 
L 414.72 43.972625 
" style="fill:none;stroke:#ffffff;stroke-linecap:round;stroke-width:0.8;"/>
     </g>
     <g id="line2d_16"/>
     <g id="text_3">
      <!-- 0.4 -->
      <defs>
       <path d="M 43.015625 15.578125 
L 43.015625 0 
L 34.71875 0 
L 34.71875 15.578125 
L 2.296875 15.578125 
L 2.296875 22.40625 
L 33.796875 68.796875 
L 43.015625 68.796875 
L 43.015625 22.515625 
L 52.6875 22.515625 
L 52.6875 15.578125 
z
M 34.71875 58.890625 
Q 34.625 58.59375 33.34375 56.296875 
Q 32.078125 54 31.453125 53.078125 
L 13.8125 27.09375 
L 11.1875 23.484375 
L 10.40625 22.515625 
L 34.71875 22.515625 
z
" id="LiberationSans-34"/>
      </defs>
      <g style="fill:#262626;" transform="translate(40.2 47.596062)scale(0.1 -0.1)">
       <use xlink:href="#LiberationSans-30"/>
       <use x="55.615234" xlink:href="#LiberationSans-2e"/>
       <use x="83.398438" xlink:href="#LiberationSans-34"/>
      </g>
     </g>
    </g>
   </g>
   <g id="line2d_17">
    <path clip-path="url(#p6312757345)" d="M 153.206346 66.576444 
L 317.309911 50.713236 
L 317.345988 66.573656 
L 317.42283 66.566213 
L 414.751025 57.163831 
L 414.751025 57.163831 
" style="fill:none;stroke:#808080;stroke-linecap:round;stroke-opacity:0.3;stroke-width:0.6;"/>
   </g>
   <g id="line2d_18">
    <path clip-path="url(#p6312757345)" d="M 153.204543 66.576629 
L 293.861546 52.979848 
L 293.897622 66.573656 
L 293.973382 66.566321 
L 414.751025 54.893885 
L 414.751025 54.893885 
" style="fill:none;stroke:#808080;stroke-linecap:round;stroke-opacity:0.3;stroke-width:0.6;"/>
   </g>
   <g id="line2d_19">
    <path clip-path="url(#p6312757345)" d="M 153.20815 66.576255 
L 387.657894 43.913853 
L 387.69397 66.573656 
L 387.769369 66.566374 
L 414.752468 63.959009 
L 414.752468 63.959009 
" style="fill:none;stroke:#808080;stroke-linecap:round;stroke-opacity:0.3;stroke-width:0.6;"/>
   </g>
   <g id="line2d_20">
    <path clip-path="url(#p6312757345)" d="M 153.204903 66.576578 
L 340.758638 48.451541 
L 340.794714 66.573656 
L 340.872277 66.566168 
L 414.756076 59.422022 
L 414.756076 59.422022 
" style="fill:none;stroke:#808080;stroke-linecap:round;stroke-opacity:0.3;stroke-width:0.6;"/>
   </g>
   <g id="line2d_21">
    <path clip-path="url(#p6312757345)" d="M 57.600756 66.576833 
L 246.960846 48.277769 
L 246.996923 66.573656 
L 247.072682 66.56633 
L 414.751025 50.361623 
L 414.751025 50.361623 
" style="fill:none;stroke:#808080;stroke-linecap:round;stroke-opacity:0.3;stroke-width:0.6;"/>
   </g>
   <g id="line2d_22">
    <path clip-path="url(#p6312757345)" d="M 57.601333 66.576777 
L 246.961207 48.272457 
L 246.997283 66.573656 
L 247.074486 66.566195 
L 414.751386 50.36151 
L 414.751386 50.36151 
" style="fill:none;stroke:#808080;stroke-linecap:round;stroke-opacity:0.3;stroke-width:0.6;"/>
   </g>
   <g id="line2d_23">
    <path clip-path="url(#p6312757345)" d="M 57.6 66.576906 
L 200.061951 52.810879 
L 200.098027 66.573656 
L 200.17559 66.566163 
L 411.107342 46.176792 
L 411.143418 66.573656 
L 411.218817 66.566351 
L 414.754272 66.224492 
L 414.754272 66.224492 
" style="fill:none;stroke:#808080;stroke-linecap:round;stroke-opacity:0.3;stroke-width:0.6;"/>
   </g>
   <g id="line2d_24">
    <path clip-path="url(#p6312757345)" d="M 57.633612 66.573656 
L 81.010908 64.313205 
L 81.046984 66.573656 
L 81.155212 66.56319 
L 340.758999 41.472 
L 340.795075 66.573656 
L 340.870474 66.566367 
L 414.751025 59.429878 
L 414.751025 59.429878 
" style="fill:none;stroke:#808080;stroke-linecap:round;stroke-opacity:0.3;stroke-width:0.6;"/>
   </g>
   <g id="line2d_25">
    <path clip-path="url(#p6312757345)" d="M 57.603072 66.576609 
L 223.51212 50.545397 
L 223.548196 66.573656 
L 223.625038 66.566219 
L 414.750665 48.094389 
L 414.750665 48.094389 
" style="fill:none;stroke:#808080;stroke-linecap:round;stroke-opacity:0.3;stroke-width:0.6;"/>
   </g>
   <g id="line2d_26">
    <path clip-path="url(#p6312757345)" d="M 57.600756 66.576833 
L 246.960846 48.277769 
L 246.996923 66.573656 
L 247.072682 66.56633 
L 414.751025 50.361623 
L 414.751025 50.361623 
" style="fill:none;stroke:#377eb8;stroke-linecap:round;stroke-opacity:0.9;stroke-width:2.4;"/>
   </g>
   <g id="line2d_27">
    <path clip-path="url(#p6312757345)" d="M 57.597536 66.576906 
L 57.597536 41.472 
" style="fill:none;stroke:#000000;stroke-linecap:round;stroke-width:1.5;"/>
   </g>
   <g id="line2d_28">
    <path clip-path="url(#p6312757345)" d="M 355.788652 66.576906 
L 355.788652 41.472 
" style="fill:none;stroke:#ff0000;stroke-linecap:round;stroke-width:1.5;"/>
   </g>
   <g id="line2d_29">
    <path clip-path="url(#p6312757345)" d="M 246.996923 66.576906 
L 246.996923 41.472 
" style="fill:none;stroke:#000000;stroke-linecap:round;stroke-width:1.5;"/>
   </g>
   <g id="line2d_30">
    <path clip-path="url(#p6312757345)" d="M 166.200227 66.576906 
L 166.200227 41.472 
" style="fill:none;stroke:#ff0000;stroke-linecap:round;stroke-width:1.5;"/>
   </g>
   <g id="patch_3">
    <path d="M 57.6 66.576906 
L 57.6 41.472 
" style="fill:none;"/>
   </g>
   <g id="patch_4">
    <path d="M 414.72 66.576906 
L 414.72 41.472 
" style="fill:none;"/>
   </g>
   <g id="patch_5">
    <path d="M 57.6 66.576906 
L 414.72 66.576906 
" style="fill:none;"/>
   </g>
   <g id="patch_6">
    <path d="M 57.6 41.472 
L 414.72 41.472 
" style="fill:none;"/>
   </g>
   <g id="text_4">
    <!-- UAV 1 -->
    <defs>
     <path d="M 35.6875 -0.984375 
Q 27.25 -0.984375 20.953125 2.09375 
Q 14.65625 5.171875 11.1875 11.03125 
Q 7.71875 16.890625 7.71875 25 
L 7.71875 68.796875 
L 17.046875 68.796875 
L 17.046875 25.78125 
Q 17.046875 16.359375 21.828125 11.46875 
Q 26.609375 6.59375 35.640625 6.59375 
Q 44.921875 6.59375 50.0625 11.640625 
Q 55.21875 16.703125 55.21875 26.421875 
L 55.21875 68.796875 
L 64.5 68.796875 
L 64.5 25.875 
Q 64.5 17.53125 60.953125 11.46875 
Q 57.421875 5.421875 50.953125 2.21875 
Q 44.484375 -0.984375 35.6875 -0.984375 
z
" id="LiberationSans-55"/>
     <path d="M 56.984375 0 
L 49.125 20.125 
L 17.78125 20.125 
L 9.859375 0 
L 0.203125 0 
L 28.265625 68.796875 
L 38.875 68.796875 
L 66.5 0 
z
M 33.453125 61.765625 
L 33.015625 60.40625 
Q 31.78125 56.34375 29.390625 50 
L 20.609375 27.390625 
L 46.34375 27.390625 
L 37.5 50.09375 
Q 36.140625 53.46875 34.765625 57.71875 
z
" id="LiberationSans-41"/>
     <path d="M 38.1875 0 
L 28.515625 0 
L 0.4375 68.796875 
L 10.25 68.796875 
L 29.296875 20.359375 
L 33.40625 8.203125 
L 37.5 20.359375 
L 56.453125 68.796875 
L 66.265625 68.796875 
z
" id="LiberationSans-56"/>
     <path id="LiberationSans-20"/>
     <path d="M 7.625 0 
L 7.625 7.46875 
L 25.140625 7.46875 
L 25.140625 60.40625 
L 9.625 49.3125 
L 9.625 57.625 
L 25.875 68.796875 
L 33.984375 68.796875 
L 33.984375 7.46875 
L 50.734375 7.46875 
L 50.734375 0 
z
" id="LiberationSans-31"/>
    </defs>
    <g style="fill:#377eb8;" transform="translate(57.6 37.480392)scale(0.07 -0.07)">
     <use xlink:href="#LiberationSans-55"/>
     <use x="72.216797" xlink:href="#LiberationSans-41"/>
     <use x="138.806641" xlink:href="#LiberationSans-56"/>
     <use x="205.505859" xlink:href="#LiberationSans-20"/>
     <use x="233.289062" xlink:href="#LiberationSans-31"/>
    </g>
   </g>
  </g>
  <g id="axes_2">
   <g id="patch_7">
    <path d="M 57.6 96.702792 
L 414.72 96.702792 
L 414.72 71.597887 
L 57.6 71.597887 
z
" style="fill:#eaeaf2;"/>
   </g>
   <g id="matplotlib.axis_3">
    <g id="xtick_6">
     <g id="line2d_31">
      <path clip-path="url(#p31236af693)" d="M 57.597536 96.702792 
L 57.597536 71.597887 
" style="fill:none;stroke:#ffffff;stroke-linecap:round;stroke-width:0.8;"/>
     </g>
     <g id="line2d_32"/>
    </g>
    <g id="xtick_7">
     <g id="line2d_33">
      <path clip-path="url(#p31236af693)" d="M 129.749683 96.702792 
L 129.749683 71.597887 
" style="fill:none;stroke:#ffffff;stroke-linecap:round;stroke-width:0.8;"/>
     </g>
     <g id="line2d_34"/>
    </g>
    <g id="xtick_8">
     <g id="line2d_35">
      <path clip-path="url(#p31236af693)" d="M 201.901831 96.702792 
L 201.901831 71.597887 
" style="fill:none;stroke:#ffffff;stroke-linecap:round;stroke-width:0.8;"/>
     </g>
     <g id="line2d_36"/>
    </g>
    <g id="xtick_9">
     <g id="line2d_37">
      <path clip-path="url(#p31236af693)" d="M 274.053978 96.702792 
L 274.053978 71.597887 
" style="fill:none;stroke:#ffffff;stroke-linecap:round;stroke-width:0.8;"/>
     </g>
     <g id="line2d_38"/>
    </g>
    <g id="xtick_10">
     <g id="line2d_39">
      <path clip-path="url(#p31236af693)" d="M 346.206125 96.702792 
L 346.206125 71.597887 
" style="fill:none;stroke:#ffffff;stroke-linecap:round;stroke-width:0.8;"/>
     </g>
     <g id="line2d_40"/>
    </g>
   </g>
   <g id="matplotlib.axis_4">
    <g id="ytick_4">
     <g id="line2d_41">
      <path clip-path="url(#p31236af693)" d="M 57.6 96.703031 
L 414.72 96.703031 
" style="fill:none;stroke:#ffffff;stroke-linecap:round;stroke-width:0.8;"/>
     </g>
     <g id="line2d_42"/>
     <g id="text_5">
      <!-- 0.0 -->
      <g style="fill:#262626;" transform="translate(40.2 100.326468)scale(0.1 -0.1)">
       <use xlink:href="#LiberationSans-30"/>
       <use x="55.615234" xlink:href="#LiberationSans-2e"/>
       <use x="83.398438" xlink:href="#LiberationSans-30"/>
      </g>
     </g>
    </g>
    <g id="ytick_5">
     <g id="line2d_43">
      <path clip-path="url(#p31236af693)" d="M 57.6 85.400771 
L 414.72 85.400771 
" style="fill:none;stroke:#ffffff;stroke-linecap:round;stroke-width:0.8;"/>
     </g>
     <g id="line2d_44"/>
     <g id="text_6">
      <!-- 0.2 -->
      <g style="fill:#262626;" transform="translate(40.2 89.024209)scale(0.1 -0.1)">
       <use xlink:href="#LiberationSans-30"/>
       <use x="55.615234" xlink:href="#LiberationSans-2e"/>
       <use x="83.398438" xlink:href="#LiberationSans-32"/>
      </g>
     </g>
    </g>
    <g id="ytick_6">
     <g id="line2d_45">
      <path clip-path="url(#p31236af693)" d="M 57.6 74.098512 
L 414.72 74.098512 
" style="fill:none;stroke:#ffffff;stroke-linecap:round;stroke-width:0.8;"/>
     </g>
     <g id="line2d_46"/>
     <g id="text_7">
      <!-- 0.4 -->
      <g style="fill:#262626;" transform="translate(40.2 77.721949)scale(0.1 -0.1)">
       <use xlink:href="#LiberationSans-30"/>
       <use x="55.615234" xlink:href="#LiberationSans-2e"/>
       <use x="83.398438" xlink:href="#LiberationSans-34"/>
      </g>
     </g>
    </g>
   </g>
   <g id="line2d_47">
    <path clip-path="url(#p31236af693)" d="M 153.206346 96.702331 
L 317.309911 80.839123 
L 317.345988 96.699542 
L 317.42283 96.6921 
L 414.751025 87.289718 
L 414.751025 87.289718 
" style="fill:none;stroke:#808080;stroke-linecap:round;stroke-opacity:0.3;stroke-width:0.6;"/>
   </g>
   <g id="line2d_48">
    <path clip-path="url(#p31236af693)" d="M 153.204543 96.702516 
L 293.861546 83.105734 
L 293.897622 96.699542 
L 293.973382 96.692208 
L 414.751025 85.019772 
L 414.751025 85.019772 
" style="fill:none;stroke:#808080;stroke-linecap:round;stroke-opacity:0.3;stroke-width:0.6;"/>
   </g>
   <g id="line2d_49">
    <path clip-path="url(#p31236af693)" d="M 153.20815 96.702142 
L 387.657894 74.03974 
L 387.69397 96.699542 
L 387.769369 96.69226 
L 414.752468 94.084896 
L 414.752468 94.084896 
" style="fill:none;stroke:#808080;stroke-linecap:round;stroke-opacity:0.3;stroke-width:0.6;"/>
   </g>
   <g id="line2d_50">
    <path clip-path="url(#p31236af693)" d="M 153.204903 96.702464 
L 340.758638 78.577428 
L 340.794714 96.699542 
L 340.872277 96.692055 
L 414.756076 89.547909 
L 414.756076 89.547909 
" style="fill:none;stroke:#808080;stroke-linecap:round;stroke-opacity:0.3;stroke-width:0.6;"/>
   </g>
   <g id="line2d_51">
    <path clip-path="url(#p31236af693)" d="M 57.600756 96.702719 
L 246.960846 78.403655 
L 246.996923 96.699542 
L 247.072682 96.692217 
L 414.751025 80.487509 
L 414.751025 80.487509 
" style="fill:none;stroke:#808080;stroke-linecap:round;stroke-opacity:0.3;stroke-width:0.6;"/>
   </g>
   <g id="line2d_52">
    <path clip-path="url(#p31236af693)" d="M 57.601333 96.702664 
L 246.961207 78.398343 
L 246.997283 96.699542 
L 247.074486 96.692082 
L 414.751386 80.487396 
L 414.751386 80.487396 
" style="fill:none;stroke:#808080;stroke-linecap:round;stroke-opacity:0.3;stroke-width:0.6;"/>
   </g>
   <g id="line2d_53">
    <path clip-path="url(#p31236af693)" d="M 57.6 96.702792 
L 200.061951 82.936766 
L 200.098027 96.699542 
L 200.17559 96.69205 
L 411.107342 76.302678 
L 411.143418 96.699542 
L 411.218817 96.692238 
L 414.754272 96.350379 
L 414.754272 96.350379 
" style="fill:none;stroke:#808080;stroke-linecap:round;stroke-opacity:0.3;stroke-width:0.6;"/>
   </g>
   <g id="line2d_54">
    <path clip-path="url(#p31236af693)" d="M 57.633612 96.699542 
L 81.010908 94.439092 
L 81.046984 96.699542 
L 81.155212 96.689077 
L 340.758999 71.597887 
L 340.795075 96.699542 
L 340.870474 96.692254 
L 414.751025 89.555764 
L 414.751025 89.555764 
" style="fill:none;stroke:#808080;stroke-linecap:round;stroke-opacity:0.3;stroke-width:0.6;"/>
   </g>
   <g id="line2d_55">
    <path clip-path="url(#p31236af693)" d="M 57.603072 96.702495 
L 223.51212 80.671284 
L 223.548196 96.699542 
L 223.625038 96.692106 
L 414.750665 78.220276 
L 414.750665 78.220276 
" style="fill:none;stroke:#808080;stroke-linecap:round;stroke-opacity:0.3;stroke-width:0.6;"/>
   </g>
   <g id="line2d_56">
    <path clip-path="url(#p31236af693)" d="M 57.6 96.702792 
L 200.061951 82.936766 
L 200.098027 96.699542 
L 200.17559 96.69205 
L 411.107342 76.302678 
L 411.143418 96.699542 
L 411.218817 96.692238 
L 414.754272 96.350379 
L 414.754272 96.350379 
" style="fill:none;stroke:#4daf4a;stroke-linecap:round;stroke-opacity:0.9;stroke-width:2.4;"/>
   </g>
   <g id="line2d_57">
    <path clip-path="url(#p31236af693)" d="M 57.597536 96.702792 
L 57.597536 71.597887 
" style="fill:none;stroke:#000000;stroke-linecap:round;stroke-width:1.5;"/>
   </g>
   <g id="line2d_58">
    <path clip-path="url(#p31236af693)" d="M 308.667527 96.702792 
L 308.667527 71.597887 
" style="fill:none;stroke:#ff0000;stroke-linecap:round;stroke-width:1.5;"/>
   </g>
   <g id="line2d_59">
    <path clip-path="url(#p31236af693)" d="M 200.098027 96.702792 
L 200.098027 71.597887 
" style="fill:none;stroke:#000000;stroke-linecap:round;stroke-width:1.5;"/>
   </g>
   <g id="line2d_60">
    <path clip-path="url(#p31236af693)" d="M 157.569026 96.702792 
L 157.569026 71.597887 
" style="fill:none;stroke:#ff0000;stroke-linecap:round;stroke-width:1.5;"/>
   </g>
   <g id="line2d_61">
    <path clip-path="url(#p31236af693)" d="M 411.143057 96.702792 
L 411.143057 71.597887 
" style="fill:none;stroke:#000000;stroke-linecap:round;stroke-width:1.5;"/>
   </g>
   <g id="patch_8">
    <path d="M 57.6 96.702792 
L 57.6 71.597887 
" style="fill:none;"/>
   </g>
   <g id="patch_9">
    <path d="M 414.72 96.702792 
L 414.72 71.597887 
" style="fill:none;"/>
   </g>
   <g id="patch_10">
    <path d="M 57.6 96.702792 
L 414.72 96.702792 
" style="fill:none;"/>
   </g>
   <g id="patch_11">
    <path d="M 57.6 71.597887 
L 414.72 71.597887 
" style="fill:none;"/>
   </g>
   <g id="text_8">
    <!-- UAV 2 -->
    <g style="fill:#4daf4a;" transform="translate(57.6 67.606279)scale(0.07 -0.07)">
     <use xlink:href="#LiberationSans-55"/>
     <use x="72.216797" xlink:href="#LiberationSans-41"/>
     <use x="138.806641" xlink:href="#LiberationSans-56"/>
     <use x="205.505859" xlink:href="#LiberationSans-20"/>
     <use x="233.289062" xlink:href="#LiberationSans-32"/>
    </g>
   </g>
  </g>
  <g id="axes_3">
   <g id="patch_12">
    <path d="M 57.6 126.828679 
L 414.72 126.828679 
L 414.72 101.723774 
L 57.6 101.723774 
z
" style="fill:#eaeaf2;"/>
   </g>
   <g id="matplotlib.axis_5">
    <g id="xtick_11">
     <g id="line2d_62">
      <path clip-path="url(#p48d81666a9)" d="M 57.597536 126.828679 
L 57.597536 101.723774 
" style="fill:none;stroke:#ffffff;stroke-linecap:round;stroke-width:0.8;"/>
     </g>
     <g id="line2d_63"/>
    </g>
    <g id="xtick_12">
     <g id="line2d_64">
      <path clip-path="url(#p48d81666a9)" d="M 129.749683 126.828679 
L 129.749683 101.723774 
" style="fill:none;stroke:#ffffff;stroke-linecap:round;stroke-width:0.8;"/>
     </g>
     <g id="line2d_65"/>
    </g>
    <g id="xtick_13">
     <g id="line2d_66">
      <path clip-path="url(#p48d81666a9)" d="M 201.901831 126.828679 
L 201.901831 101.723774 
" style="fill:none;stroke:#ffffff;stroke-linecap:round;stroke-width:0.8;"/>
     </g>
     <g id="line2d_67"/>
    </g>
    <g id="xtick_14">
     <g id="line2d_68">
      <path clip-path="url(#p48d81666a9)" d="M 274.053978 126.828679 
L 274.053978 101.723774 
" style="fill:none;stroke:#ffffff;stroke-linecap:round;stroke-width:0.8;"/>
     </g>
     <g id="line2d_69"/>
    </g>
    <g id="xtick_15">
     <g id="line2d_70">
      <path clip-path="url(#p48d81666a9)" d="M 346.206125 126.828679 
L 346.206125 101.723774 
" style="fill:none;stroke:#ffffff;stroke-linecap:round;stroke-width:0.8;"/>
     </g>
     <g id="line2d_71"/>
    </g>
   </g>
   <g id="matplotlib.axis_6">
    <g id="ytick_7">
     <g id="line2d_72">
      <path clip-path="url(#p48d81666a9)" d="M 57.6 126.828917 
L 414.72 126.828917 
" style="fill:none;stroke:#ffffff;stroke-linecap:round;stroke-width:0.8;"/>
     </g>
     <g id="line2d_73"/>
     <g id="text_9">
      <!-- 0.0 -->
      <g style="fill:#262626;" transform="translate(40.2 130.452355)scale(0.1 -0.1)">
       <use xlink:href="#LiberationSans-30"/>
       <use x="55.615234" xlink:href="#LiberationSans-2e"/>
       <use x="83.398438" xlink:href="#LiberationSans-30"/>
      </g>
     </g>
    </g>
    <g id="ytick_8">
     <g id="line2d_74">
      <path clip-path="url(#p48d81666a9)" d="M 57.6 115.526658 
L 414.72 115.526658 
" style="fill:none;stroke:#ffffff;stroke-linecap:round;stroke-width:0.8;"/>
     </g>
     <g id="line2d_75"/>
     <g id="text_10">
      <!-- 0.2 -->
      <g style="fill:#262626;" transform="translate(40.2 119.150095)scale(0.1 -0.1)">
       <use xlink:href="#LiberationSans-30"/>
       <use x="55.615234" xlink:href="#LiberationSans-2e"/>
       <use x="83.398438" xlink:href="#LiberationSans-32"/>
      </g>
     </g>
    </g>
    <g id="ytick_9">
     <g id="line2d_76">
      <path clip-path="url(#p48d81666a9)" d="M 57.6 104.224398 
L 414.72 104.224398 
" style="fill:none;stroke:#ffffff;stroke-linecap:round;stroke-width:0.8;"/>
     </g>
     <g id="line2d_77"/>
     <g id="text_11">
      <!-- 0.4 -->
      <g style="fill:#262626;" transform="translate(40.2 107.847836)scale(0.1 -0.1)">
       <use xlink:href="#LiberationSans-30"/>
       <use x="55.615234" xlink:href="#LiberationSans-2e"/>
       <use x="83.398438" xlink:href="#LiberationSans-34"/>
      </g>
     </g>
    </g>
   </g>
   <g id="line2d_78">
    <path clip-path="url(#p48d81666a9)" d="M 153.206346 126.828218 
L 317.309911 110.96501 
L 317.345988 126.825429 
L 317.42283 126.817987 
L 414.751025 117.415605 
L 414.751025 117.415605 
" style="fill:none;stroke:#808080;stroke-linecap:round;stroke-opacity:0.3;stroke-width:0.6;"/>
   </g>
   <g id="line2d_79">
    <path clip-path="url(#p48d81666a9)" d="M 153.204543 126.828403 
L 293.861546 113.231621 
L 293.897622 126.825429 
L 293.973382 126.818095 
L 414.751025 115.145659 
L 414.751025 115.145659 
" style="fill:none;stroke:#808080;stroke-linecap:round;stroke-opacity:0.3;stroke-width:0.6;"/>
   </g>
   <g id="line2d_80">
    <path clip-path="url(#p48d81666a9)" d="M 153.20815 126.828029 
L 387.657894 104.165627 
L 387.69397 126.825429 
L 387.769369 126.818147 
L 414.752468 124.210783 
L 414.752468 124.210783 
" style="fill:none;stroke:#808080;stroke-linecap:round;stroke-opacity:0.3;stroke-width:0.6;"/>
   </g>
   <g id="line2d_81">
    <path clip-path="url(#p48d81666a9)" d="M 153.204903 126.828351 
L 340.758638 108.703314 
L 340.794714 126.825429 
L 340.872277 126.817942 
L 414.756076 119.673796 
L 414.756076 119.673796 
" style="fill:none;stroke:#808080;stroke-linecap:round;stroke-opacity:0.3;stroke-width:0.6;"/>
   </g>
   <g id="line2d_82">
    <path clip-path="url(#p48d81666a9)" d="M 57.600756 126.828606 
L 246.960846 108.529542 
L 246.996923 126.825429 
L 247.072682 126.818104 
L 414.751025 110.613396 
L 414.751025 110.613396 
" style="fill:none;stroke:#808080;stroke-linecap:round;stroke-opacity:0.3;stroke-width:0.6;"/>
   </g>
   <g id="line2d_83">
    <path clip-path="url(#p48d81666a9)" d="M 57.601333 126.82855 
L 246.961207 108.52423 
L 246.997283 126.825429 
L 247.074486 126.817969 
L 414.751386 110.613283 
L 414.751386 110.613283 
" style="fill:none;stroke:#808080;stroke-linecap:round;stroke-opacity:0.3;stroke-width:0.6;"/>
   </g>
   <g id="line2d_84">
    <path clip-path="url(#p48d81666a9)" d="M 57.6 126.828679 
L 200.061951 113.062652 
L 200.098027 126.825429 
L 200.17559 126.817937 
L 411.107342 106.428565 
L 411.143418 126.825429 
L 411.218817 126.818125 
L 414.754272 126.476266 
L 414.754272 126.476266 
" style="fill:none;stroke:#808080;stroke-linecap:round;stroke-opacity:0.3;stroke-width:0.6;"/>
   </g>
   <g id="line2d_85">
    <path clip-path="url(#p48d81666a9)" d="M 57.633612 126.825429 
L 81.010908 124.564979 
L 81.046984 126.825429 
L 81.155212 126.814964 
L 340.758999 101.723774 
L 340.795075 126.825429 
L 340.870474 126.818141 
L 414.751025 119.681651 
L 414.751025 119.681651 
" style="fill:none;stroke:#808080;stroke-linecap:round;stroke-opacity:0.3;stroke-width:0.6;"/>
   </g>
   <g id="line2d_86">
    <path clip-path="url(#p48d81666a9)" d="M 57.603072 126.828382 
L 223.51212 110.797171 
L 223.548196 126.825429 
L 223.625038 126.817993 
L 414.750665 108.346163 
L 414.750665 108.346163 
" style="fill:none;stroke:#808080;stroke-linecap:round;stroke-opacity:0.3;stroke-width:0.6;"/>
   </g>
   <g id="line2d_87">
    <path clip-path="url(#p48d81666a9)" d="M 57.601333 126.82855 
L 246.961207 108.52423 
L 246.997283 126.825429 
L 247.074486 126.817969 
L 414.751386 110.613283 
L 414.751386 110.613283 
" style="fill:none;stroke:#984ea3;stroke-linecap:round;stroke-opacity:0.9;stroke-width:2.4;"/>
   </g>
   <g id="line2d_88">
    <path clip-path="url(#p48d81666a9)" d="M 57.597536 126.828679 
L 57.597536 101.723774 
" style="fill:none;stroke:#000000;stroke-linecap:round;stroke-width:1.5;"/>
   </g>
   <g id="line2d_89">
    <path clip-path="url(#p48d81666a9)" d="M 353.687581 126.828679 
L 353.687581 101.723774 
" style="fill:none;stroke:#ff0000;stroke-linecap:round;stroke-width:1.5;"/>
   </g>
   <g id="line2d_90">
    <path clip-path="url(#p48d81666a9)" d="M 173.13044 126.828679 
L 173.13044 101.723774 
" style="fill:none;stroke:#ff0000;stroke-linecap:round;stroke-width:1.5;"/>
   </g>
   <g id="line2d_91">
    <path clip-path="url(#p48d81666a9)" d="M 246.996923 126.828679 
L 246.996923 101.723774 
" style="fill:none;stroke:#000000;stroke-linecap:round;stroke-width:1.5;"/>
   </g>
   <g id="patch_13">
    <path d="M 57.6 126.828679 
L 57.6 101.723774 
" style="fill:none;"/>
   </g>
   <g id="patch_14">
    <path d="M 414.72 126.828679 
L 414.72 101.723774 
" style="fill:none;"/>
   </g>
   <g id="patch_15">
    <path d="M 57.6 126.828679 
L 414.72 126.828679 
" style="fill:none;"/>
   </g>
   <g id="patch_16">
    <path d="M 57.6 101.723774 
L 414.72 101.723774 
" style="fill:none;"/>
   </g>
   <g id="text_12">
    <!-- UAV 3 -->
    <defs>
     <path d="M 51.21875 19 
Q 51.21875 9.46875 45.15625 4.234375 
Q 39.109375 -0.984375 27.875 -0.984375 
Q 17.4375 -0.984375 11.203125 3.734375 
Q 4.984375 8.453125 3.8125 17.671875 
L 12.890625 18.5 
Q 14.65625 6.296875 27.875 6.296875 
Q 34.515625 6.296875 38.296875 9.5625 
Q 42.09375 12.84375 42.09375 19.28125 
Q 42.09375 24.90625 37.765625 28.046875 
Q 33.453125 31.203125 25.296875 31.203125 
L 20.3125 31.203125 
L 20.3125 38.8125 
L 25.09375 38.8125 
Q 32.328125 38.8125 36.296875 41.96875 
Q 40.28125 45.125 40.28125 50.6875 
Q 40.28125 56.203125 37.03125 59.390625 
Q 33.796875 62.59375 27.390625 62.59375 
Q 21.578125 62.59375 17.984375 59.609375 
Q 14.40625 56.640625 13.8125 51.21875 
L 4.984375 51.90625 
Q 5.953125 60.359375 11.984375 65.09375 
Q 18.015625 69.828125 27.484375 69.828125 
Q 37.84375 69.828125 43.578125 65.015625 
Q 49.3125 60.203125 49.3125 51.609375 
Q 49.3125 45.015625 45.625 40.890625 
Q 41.9375 36.765625 34.90625 35.296875 
L 34.90625 35.109375 
Q 42.625 34.28125 46.921875 29.9375 
Q 51.21875 25.59375 51.21875 19 
z
" id="LiberationSans-33"/>
    </defs>
    <g style="fill:#984ea3;" transform="translate(57.6 97.732166)scale(0.07 -0.07)">
     <use xlink:href="#LiberationSans-55"/>
     <use x="72.216797" xlink:href="#LiberationSans-41"/>
     <use x="138.806641" xlink:href="#LiberationSans-56"/>
     <use x="205.505859" xlink:href="#LiberationSans-20"/>
     <use x="233.289062" xlink:href="#LiberationSans-33"/>
    </g>
   </g>
  </g>
  <g id="axes_4">
   <g id="patch_17">
    <path d="M 57.6 156.954566 
L 414.72 156.954566 
L 414.72 131.84966 
L 57.6 131.84966 
z
" style="fill:#eaeaf2;"/>
   </g>
   <g id="matplotlib.axis_7">
    <g id="xtick_16">
     <g id="line2d_92">
      <path clip-path="url(#p8c1d9c5d4b)" d="M 57.597536 156.954566 
L 57.597536 131.84966 
" style="fill:none;stroke:#ffffff;stroke-linecap:round;stroke-width:0.8;"/>
     </g>
     <g id="line2d_93"/>
    </g>
    <g id="xtick_17">
     <g id="line2d_94">
      <path clip-path="url(#p8c1d9c5d4b)" d="M 129.749683 156.954566 
L 129.749683 131.84966 
" style="fill:none;stroke:#ffffff;stroke-linecap:round;stroke-width:0.8;"/>
     </g>
     <g id="line2d_95"/>
    </g>
    <g id="xtick_18">
     <g id="line2d_96">
      <path clip-path="url(#p8c1d9c5d4b)" d="M 201.901831 156.954566 
L 201.901831 131.84966 
" style="fill:none;stroke:#ffffff;stroke-linecap:round;stroke-width:0.8;"/>
     </g>
     <g id="line2d_97"/>
    </g>
    <g id="xtick_19">
     <g id="line2d_98">
      <path clip-path="url(#p8c1d9c5d4b)" d="M 274.053978 156.954566 
L 274.053978 131.84966 
" style="fill:none;stroke:#ffffff;stroke-linecap:round;stroke-width:0.8;"/>
     </g>
     <g id="line2d_99"/>
    </g>
    <g id="xtick_20">
     <g id="line2d_100">
      <path clip-path="url(#p8c1d9c5d4b)" d="M 346.206125 156.954566 
L 346.206125 131.84966 
" style="fill:none;stroke:#ffffff;stroke-linecap:round;stroke-width:0.8;"/>
     </g>
     <g id="line2d_101"/>
    </g>
   </g>
   <g id="matplotlib.axis_8">
    <g id="ytick_10">
     <g id="line2d_102">
      <path clip-path="url(#p8c1d9c5d4b)" d="M 57.6 156.954804 
L 414.72 156.954804 
" style="fill:none;stroke:#ffffff;stroke-linecap:round;stroke-width:0.8;"/>
     </g>
     <g id="line2d_103"/>
     <g id="text_13">
      <!-- 0.0 -->
      <g style="fill:#262626;" transform="translate(40.2 160.578242)scale(0.1 -0.1)">
       <use xlink:href="#LiberationSans-30"/>
       <use x="55.615234" xlink:href="#LiberationSans-2e"/>
       <use x="83.398438" xlink:href="#LiberationSans-30"/>
      </g>
     </g>
    </g>
    <g id="ytick_11">
     <g id="line2d_104">
      <path clip-path="url(#p8c1d9c5d4b)" d="M 57.6 145.652545 
L 414.72 145.652545 
" style="fill:none;stroke:#ffffff;stroke-linecap:round;stroke-width:0.8;"/>
     </g>
     <g id="line2d_105"/>
     <g id="text_14">
      <!-- 0.2 -->
      <g style="fill:#262626;" transform="translate(40.2 149.275982)scale(0.1 -0.1)">
       <use xlink:href="#LiberationSans-30"/>
       <use x="55.615234" xlink:href="#LiberationSans-2e"/>
       <use x="83.398438" xlink:href="#LiberationSans-32"/>
      </g>
     </g>
    </g>
    <g id="ytick_12">
     <g id="line2d_106">
      <path clip-path="url(#p8c1d9c5d4b)" d="M 57.6 134.350285 
L 414.72 134.350285 
" style="fill:none;stroke:#ffffff;stroke-linecap:round;stroke-width:0.8;"/>
     </g>
     <g id="line2d_107"/>
     <g id="text_15">
      <!-- 0.4 -->
      <g style="fill:#262626;" transform="translate(40.2 137.973723)scale(0.1 -0.1)">
       <use xlink:href="#LiberationSans-30"/>
       <use x="55.615234" xlink:href="#LiberationSans-2e"/>
       <use x="83.398438" xlink:href="#LiberationSans-34"/>
      </g>
     </g>
    </g>
   </g>
   <g id="line2d_108">
    <path clip-path="url(#p8c1d9c5d4b)" d="M 153.206346 156.954104 
L 317.309911 141.090896 
L 317.345988 156.951316 
L 317.42283 156.943874 
L 414.751025 147.541491 
L 414.751025 147.541491 
" style="fill:none;stroke:#808080;stroke-linecap:round;stroke-opacity:0.3;stroke-width:0.6;"/>
   </g>
   <g id="line2d_109">
    <path clip-path="url(#p8c1d9c5d4b)" d="M 153.204543 156.95429 
L 293.861546 143.357508 
L 293.897622 156.951316 
L 293.973382 156.943981 
L 414.751025 145.271546 
L 414.751025 145.271546 
" style="fill:none;stroke:#808080;stroke-linecap:round;stroke-opacity:0.3;stroke-width:0.6;"/>
   </g>
   <g id="line2d_110">
    <path clip-path="url(#p8c1d9c5d4b)" d="M 153.20815 156.953916 
L 387.657894 134.291514 
L 387.69397 156.951316 
L 387.769369 156.944034 
L 414.752468 154.33667 
L 414.752468 154.33667 
" style="fill:none;stroke:#808080;stroke-linecap:round;stroke-opacity:0.3;stroke-width:0.6;"/>
   </g>
   <g id="line2d_111">
    <path clip-path="url(#p8c1d9c5d4b)" d="M 153.204903 156.954238 
L 340.758638 138.829201 
L 340.794714 156.951316 
L 340.872277 156.943828 
L 414.756076 149.799683 
L 414.756076 149.799683 
" style="fill:none;stroke:#808080;stroke-linecap:round;stroke-opacity:0.3;stroke-width:0.6;"/>
   </g>
   <g id="line2d_112">
    <path clip-path="url(#p8c1d9c5d4b)" d="M 57.600756 156.954493 
L 246.960846 138.655429 
L 246.996923 156.951316 
L 247.072682 156.94399 
L 414.751025 140.739283 
L 414.751025 140.739283 
" style="fill:none;stroke:#808080;stroke-linecap:round;stroke-opacity:0.3;stroke-width:0.6;"/>
   </g>
   <g id="line2d_113">
    <path clip-path="url(#p8c1d9c5d4b)" d="M 57.601333 156.954437 
L 246.961207 138.650117 
L 246.997283 156.951316 
L 247.074486 156.943856 
L 414.751386 140.73917 
L 414.751386 140.73917 
" style="fill:none;stroke:#808080;stroke-linecap:round;stroke-opacity:0.3;stroke-width:0.6;"/>
   </g>
   <g id="line2d_114">
    <path clip-path="url(#p8c1d9c5d4b)" d="M 57.6 156.954566 
L 200.061951 143.188539 
L 200.098027 156.951316 
L 200.17559 156.943824 
L 411.107342 136.554452 
L 411.143418 156.951316 
L 411.218817 156.944012 
L 414.754272 156.602153 
L 414.754272 156.602153 
" style="fill:none;stroke:#808080;stroke-linecap:round;stroke-opacity:0.3;stroke-width:0.6;"/>
   </g>
   <g id="line2d_115">
    <path clip-path="url(#p8c1d9c5d4b)" d="M 57.633612 156.951316 
L 81.010908 154.690866 
L 81.046984 156.951316 
L 81.155212 156.940851 
L 340.758999 131.84966 
L 340.795075 156.951316 
L 340.870474 156.944028 
L 414.751025 149.807538 
L 414.751025 149.807538 
" style="fill:none;stroke:#808080;stroke-linecap:round;stroke-opacity:0.3;stroke-width:0.6;"/>
   </g>
   <g id="line2d_116">
    <path clip-path="url(#p8c1d9c5d4b)" d="M 57.603072 156.954269 
L 223.51212 140.923058 
L 223.548196 156.951316 
L 223.625038 156.94388 
L 414.750665 138.47205 
L 414.750665 138.47205 
" style="fill:none;stroke:#808080;stroke-linecap:round;stroke-opacity:0.3;stroke-width:0.6;"/>
   </g>
   <g id="line2d_117">
    <path clip-path="url(#p8c1d9c5d4b)" d="M 57.603072 156.954269 
L 223.51212 140.923058 
L 223.548196 156.951316 
L 223.625038 156.94388 
L 414.750665 138.47205 
L 414.750665 138.47205 
" style="fill:none;stroke:#ff7f00;stroke-linecap:round;stroke-opacity:0.9;stroke-width:2.4;"/>
   </g>
   <g id="line2d_118">
    <path clip-path="url(#p8c1d9c5d4b)" d="M 57.597536 156.954566 
L 57.597536 131.84966 
" style="fill:none;stroke:#000000;stroke-linecap:round;stroke-width:1.5;"/>
   </g>
   <g id="line2d_119">
    <path clip-path="url(#p8c1d9c5d4b)" d="M 223.547475 156.954566 
L 223.547475 131.84966 
" style="fill:none;stroke:#000000;stroke-linecap:round;stroke-width:1.5;"/>
   </g>
   <g id="line2d_120">
    <path clip-path="url(#p8c1d9c5d4b)" d="M 165.031001 156.954566 
L 165.031001 131.84966 
" style="fill:none;stroke:#ff0000;stroke-linecap:round;stroke-width:1.5;"/>
   </g>
   <g id="line2d_121">
    <path clip-path="url(#p8c1d9c5d4b)" d="M 330.017348 156.954566 
L 330.017348 131.84966 
" style="fill:none;stroke:#ff0000;stroke-linecap:round;stroke-width:1.5;"/>
   </g>
   <g id="patch_18">
    <path d="M 57.6 156.954566 
L 57.6 131.84966 
" style="fill:none;"/>
   </g>
   <g id="patch_19">
    <path d="M 414.72 156.954566 
L 414.72 131.84966 
" style="fill:none;"/>
   </g>
   <g id="patch_20">
    <path d="M 57.6 156.954566 
L 414.72 156.954566 
" style="fill:none;"/>
   </g>
   <g id="patch_21">
    <path d="M 57.6 131.84966 
L 414.72 131.84966 
" style="fill:none;"/>
   </g>
   <g id="text_16">
    <!-- UAV 4 -->
    <g style="fill:#ff7f00;" transform="translate(57.6 127.858053)scale(0.07 -0.07)">
     <use xlink:href="#LiberationSans-55"/>
     <use x="72.216797" xlink:href="#LiberationSans-41"/>
     <use x="138.806641" xlink:href="#LiberationSans-56"/>
     <use x="205.505859" xlink:href="#LiberationSans-20"/>
     <use x="233.289062" xlink:href="#LiberationSans-34"/>
    </g>
   </g>
  </g>
  <g id="axes_5">
   <g id="patch_22">
    <path d="M 57.6 187.080453 
L 414.72 187.080453 
L 414.72 161.975547 
L 57.6 161.975547 
z
" style="fill:#eaeaf2;"/>
   </g>
   <g id="matplotlib.axis_9">
    <g id="xtick_21">
     <g id="line2d_122">
      <path clip-path="url(#p260548c4c7)" d="M 57.597536 187.080453 
L 57.597536 161.975547 
" style="fill:none;stroke:#ffffff;stroke-linecap:round;stroke-width:0.8;"/>
     </g>
     <g id="line2d_123"/>
    </g>
    <g id="xtick_22">
     <g id="line2d_124">
      <path clip-path="url(#p260548c4c7)" d="M 129.749683 187.080453 
L 129.749683 161.975547 
" style="fill:none;stroke:#ffffff;stroke-linecap:round;stroke-width:0.8;"/>
     </g>
     <g id="line2d_125"/>
    </g>
    <g id="xtick_23">
     <g id="line2d_126">
      <path clip-path="url(#p260548c4c7)" d="M 201.901831 187.080453 
L 201.901831 161.975547 
" style="fill:none;stroke:#ffffff;stroke-linecap:round;stroke-width:0.8;"/>
     </g>
     <g id="line2d_127"/>
    </g>
    <g id="xtick_24">
     <g id="line2d_128">
      <path clip-path="url(#p260548c4c7)" d="M 274.053978 187.080453 
L 274.053978 161.975547 
" style="fill:none;stroke:#ffffff;stroke-linecap:round;stroke-width:0.8;"/>
     </g>
     <g id="line2d_129"/>
    </g>
    <g id="xtick_25">
     <g id="line2d_130">
      <path clip-path="url(#p260548c4c7)" d="M 346.206125 187.080453 
L 346.206125 161.975547 
" style="fill:none;stroke:#ffffff;stroke-linecap:round;stroke-width:0.8;"/>
     </g>
     <g id="line2d_131"/>
    </g>
   </g>
   <g id="matplotlib.axis_10">
    <g id="ytick_13">
     <g id="line2d_132">
      <path clip-path="url(#p260548c4c7)" d="M 57.6 187.080691 
L 414.72 187.080691 
" style="fill:none;stroke:#ffffff;stroke-linecap:round;stroke-width:0.8;"/>
     </g>
     <g id="line2d_133"/>
     <g id="text_17">
      <!-- 0.0 -->
      <g style="fill:#262626;" transform="translate(40.2 190.704129)scale(0.1 -0.1)">
       <use xlink:href="#LiberationSans-30"/>
       <use x="55.615234" xlink:href="#LiberationSans-2e"/>
       <use x="83.398438" xlink:href="#LiberationSans-30"/>
      </g>
     </g>
    </g>
    <g id="ytick_14">
     <g id="line2d_134">
      <path clip-path="url(#p260548c4c7)" d="M 57.6 175.778432 
L 414.72 175.778432 
" style="fill:none;stroke:#ffffff;stroke-linecap:round;stroke-width:0.8;"/>
     </g>
     <g id="line2d_135"/>
     <g id="text_18">
      <!-- 0.2 -->
      <g style="fill:#262626;" transform="translate(40.2 179.401869)scale(0.1 -0.1)">
       <use xlink:href="#LiberationSans-30"/>
       <use x="55.615234" xlink:href="#LiberationSans-2e"/>
       <use x="83.398438" xlink:href="#LiberationSans-32"/>
      </g>
     </g>
    </g>
    <g id="ytick_15">
     <g id="line2d_136">
      <path clip-path="url(#p260548c4c7)" d="M 57.6 164.476172 
L 414.72 164.476172 
" style="fill:none;stroke:#ffffff;stroke-linecap:round;stroke-width:0.8;"/>
     </g>
     <g id="line2d_137"/>
     <g id="text_19">
      <!-- 0.4 -->
      <g style="fill:#262626;" transform="translate(40.2 168.09961)scale(0.1 -0.1)">
       <use xlink:href="#LiberationSans-30"/>
       <use x="55.615234" xlink:href="#LiberationSans-2e"/>
       <use x="83.398438" xlink:href="#LiberationSans-34"/>
      </g>
     </g>
    </g>
   </g>
   <g id="line2d_138">
    <path clip-path="url(#p260548c4c7)" d="M 153.206346 187.079991 
L 317.309911 171.216783 
L 317.345988 187.077203 
L 317.42283 187.069761 
L 414.751025 177.667378 
L 414.751025 177.667378 
" style="fill:none;stroke:#808080;stroke-linecap:round;stroke-opacity:0.3;stroke-width:0.6;"/>
   </g>
   <g id="line2d_139">
    <path clip-path="url(#p260548c4c7)" d="M 153.204543 187.080177 
L 293.861546 173.483395 
L 293.897622 187.077203 
L 293.973382 187.069868 
L 414.751025 175.397432 
L 414.751025 175.397432 
" style="fill:none;stroke:#808080;stroke-linecap:round;stroke-opacity:0.3;stroke-width:0.6;"/>
   </g>
   <g id="line2d_140">
    <path clip-path="url(#p260548c4c7)" d="M 153.20815 187.079803 
L 387.657894 164.4174 
L 387.69397 187.077203 
L 387.769369 187.069921 
L 414.752468 184.462557 
L 414.752468 184.462557 
" style="fill:none;stroke:#808080;stroke-linecap:round;stroke-opacity:0.3;stroke-width:0.6;"/>
   </g>
   <g id="line2d_141">
    <path clip-path="url(#p260548c4c7)" d="M 153.204903 187.080125 
L 340.758638 168.955088 
L 340.794714 187.077203 
L 340.872277 187.069715 
L 414.756076 179.92557 
L 414.756076 179.92557 
" style="fill:none;stroke:#808080;stroke-linecap:round;stroke-opacity:0.3;stroke-width:0.6;"/>
   </g>
   <g id="line2d_142">
    <path clip-path="url(#p260548c4c7)" d="M 57.600756 187.08038 
L 246.960846 168.781316 
L 246.996923 187.077203 
L 247.072682 187.069877 
L 414.751025 170.86517 
L 414.751025 170.86517 
" style="fill:none;stroke:#808080;stroke-linecap:round;stroke-opacity:0.3;stroke-width:0.6;"/>
   </g>
   <g id="line2d_143">
    <path clip-path="url(#p260548c4c7)" d="M 57.601333 187.080324 
L 246.961207 168.776004 
L 246.997283 187.077203 
L 247.074486 187.069743 
L 414.751386 170.865057 
L 414.751386 170.865057 
" style="fill:none;stroke:#808080;stroke-linecap:round;stroke-opacity:0.3;stroke-width:0.6;"/>
   </g>
   <g id="line2d_144">
    <path clip-path="url(#p260548c4c7)" d="M 57.6 187.080453 
L 200.061951 173.314426 
L 200.098027 187.077203 
L 200.17559 187.06971 
L 411.107342 166.680339 
L 411.143418 187.077203 
L 411.218817 187.069898 
L 414.754272 186.72804 
L 414.754272 186.72804 
" style="fill:none;stroke:#808080;stroke-linecap:round;stroke-opacity:0.3;stroke-width:0.6;"/>
   </g>
   <g id="line2d_145">
    <path clip-path="url(#p260548c4c7)" d="M 57.633612 187.077203 
L 81.010908 184.816752 
L 81.046984 187.077203 
L 81.155212 187.066738 
L 340.758999 161.975547 
L 340.795075 187.077203 
L 340.870474 187.069915 
L 414.751025 179.933425 
L 414.751025 179.933425 
" style="fill:none;stroke:#808080;stroke-linecap:round;stroke-opacity:0.3;stroke-width:0.6;"/>
   </g>
   <g id="line2d_146">
    <path clip-path="url(#p260548c4c7)" d="M 57.603072 187.080156 
L 223.51212 171.048945 
L 223.548196 187.077203 
L 223.625038 187.069767 
L 414.750665 168.597937 
L 414.750665 168.597937 
" style="fill:none;stroke:#808080;stroke-linecap:round;stroke-opacity:0.3;stroke-width:0.6;"/>
   </g>
   <g id="line2d_147">
    <path clip-path="url(#p260548c4c7)" d="M 57.633612 187.077203 
L 81.010908 184.816752 
L 81.046984 187.077203 
L 81.155212 187.066738 
L 340.758999 161.975547 
L 340.795075 187.077203 
L 340.870474 187.069915 
L 414.751025 179.933425 
L 414.751025 179.933425 
" style="fill:none;stroke:#ffff33;stroke-linecap:round;stroke-opacity:0.9;stroke-width:2.4;"/>
   </g>
   <g id="line2d_148">
    <path clip-path="url(#p260548c4c7)" d="M 81.046984 187.080453 
L 81.046984 161.975547 
" style="fill:none;stroke:#000000;stroke-linecap:round;stroke-width:1.5;"/>
   </g>
   <g id="line2d_149">
    <path clip-path="url(#p260548c4c7)" d="M 340.794714 187.080453 
L 340.794714 161.975547 
" style="fill:none;stroke:#000000;stroke-linecap:round;stroke-width:1.5;"/>
   </g>
   <g id="line2d_150">
    <path clip-path="url(#p260548c4c7)" d="M 215.783543 187.080453 
L 215.783543 161.975547 
" style="fill:none;stroke:#ff0000;stroke-linecap:round;stroke-width:1.5;"/>
   </g>
   <g id="patch_23">
    <path d="M 57.6 187.080453 
L 57.6 161.975547 
" style="fill:none;"/>
   </g>
   <g id="patch_24">
    <path d="M 414.72 187.080453 
L 414.72 161.975547 
" style="fill:none;"/>
   </g>
   <g id="patch_25">
    <path d="M 57.6 187.080453 
L 414.72 187.080453 
" style="fill:none;"/>
   </g>
   <g id="patch_26">
    <path d="M 57.6 161.975547 
L 414.72 161.975547 
" style="fill:none;"/>
   </g>
   <g id="text_20">
    <!-- UAV 5 -->
    <defs>
     <path d="M 51.421875 22.40625 
Q 51.421875 11.53125 44.953125 5.265625 
Q 38.484375 -0.984375 27 -0.984375 
Q 17.390625 -0.984375 11.46875 3.21875 
Q 5.5625 7.421875 4 15.375 
L 12.890625 16.40625 
Q 15.671875 6.203125 27.203125 6.203125 
Q 34.28125 6.203125 38.28125 10.46875 
Q 42.28125 14.75 42.28125 22.21875 
Q 42.28125 28.71875 38.25 32.71875 
Q 34.234375 36.71875 27.390625 36.71875 
Q 23.828125 36.71875 20.75 35.59375 
Q 17.671875 34.46875 14.59375 31.78125 
L 6 31.78125 
L 8.296875 68.796875 
L 47.40625 68.796875 
L 47.40625 61.328125 
L 16.3125 61.328125 
L 14.984375 39.5 
Q 20.703125 43.890625 29.203125 43.890625 
Q 39.359375 43.890625 45.390625 37.9375 
Q 51.421875 31.984375 51.421875 22.40625 
z
" id="LiberationSans-35"/>
    </defs>
    <g style="fill:#ffff33;" transform="translate(57.6 157.98394)scale(0.07 -0.07)">
     <use xlink:href="#LiberationSans-55"/>
     <use x="72.216797" xlink:href="#LiberationSans-41"/>
     <use x="138.806641" xlink:href="#LiberationSans-56"/>
     <use x="205.505859" xlink:href="#LiberationSans-20"/>
     <use x="233.289062" xlink:href="#LiberationSans-35"/>
    </g>
   </g>
  </g>
  <g id="axes_6">
   <g id="patch_27">
    <path d="M 57.6 217.20634 
L 414.72 217.20634 
L 414.72 192.101434 
L 57.6 192.101434 
z
" style="fill:#eaeaf2;"/>
   </g>
   <g id="matplotlib.axis_11">
    <g id="xtick_26">
     <g id="line2d_151">
      <path clip-path="url(#p31c38a0f0a)" d="M 57.597536 217.20634 
L 57.597536 192.101434 
" style="fill:none;stroke:#ffffff;stroke-linecap:round;stroke-width:0.8;"/>
     </g>
     <g id="line2d_152"/>
    </g>
    <g id="xtick_27">
     <g id="line2d_153">
      <path clip-path="url(#p31c38a0f0a)" d="M 129.749683 217.20634 
L 129.749683 192.101434 
" style="fill:none;stroke:#ffffff;stroke-linecap:round;stroke-width:0.8;"/>
     </g>
     <g id="line2d_154"/>
    </g>
    <g id="xtick_28">
     <g id="line2d_155">
      <path clip-path="url(#p31c38a0f0a)" d="M 201.901831 217.20634 
L 201.901831 192.101434 
" style="fill:none;stroke:#ffffff;stroke-linecap:round;stroke-width:0.8;"/>
     </g>
     <g id="line2d_156"/>
    </g>
    <g id="xtick_29">
     <g id="line2d_157">
      <path clip-path="url(#p31c38a0f0a)" d="M 274.053978 217.20634 
L 274.053978 192.101434 
" style="fill:none;stroke:#ffffff;stroke-linecap:round;stroke-width:0.8;"/>
     </g>
     <g id="line2d_158"/>
    </g>
    <g id="xtick_30">
     <g id="line2d_159">
      <path clip-path="url(#p31c38a0f0a)" d="M 346.206125 217.20634 
L 346.206125 192.101434 
" style="fill:none;stroke:#ffffff;stroke-linecap:round;stroke-width:0.8;"/>
     </g>
     <g id="line2d_160"/>
    </g>
   </g>
   <g id="matplotlib.axis_12">
    <g id="ytick_16">
     <g id="line2d_161">
      <path clip-path="url(#p31c38a0f0a)" d="M 57.6 217.206578 
L 414.72 217.206578 
" style="fill:none;stroke:#ffffff;stroke-linecap:round;stroke-width:0.8;"/>
     </g>
     <g id="line2d_162"/>
     <g id="text_21">
      <!-- 0.0 -->
      <g style="fill:#262626;" transform="translate(40.2 220.830015)scale(0.1 -0.1)">
       <use xlink:href="#LiberationSans-30"/>
       <use x="55.615234" xlink:href="#LiberationSans-2e"/>
       <use x="83.398438" xlink:href="#LiberationSans-30"/>
      </g>
     </g>
    </g>
    <g id="ytick_17">
     <g id="line2d_163">
      <path clip-path="url(#p31c38a0f0a)" d="M 57.6 205.904318 
L 414.72 205.904318 
" style="fill:none;stroke:#ffffff;stroke-linecap:round;stroke-width:0.8;"/>
     </g>
     <g id="line2d_164"/>
     <g id="text_22">
      <!-- 0.2 -->
      <g style="fill:#262626;" transform="translate(40.2 209.527756)scale(0.1 -0.1)">
       <use xlink:href="#LiberationSans-30"/>
       <use x="55.615234" xlink:href="#LiberationSans-2e"/>
       <use x="83.398438" xlink:href="#LiberationSans-32"/>
      </g>
     </g>
    </g>
    <g id="ytick_18">
     <g id="line2d_165">
      <path clip-path="url(#p31c38a0f0a)" d="M 57.6 194.602059 
L 414.72 194.602059 
" style="fill:none;stroke:#ffffff;stroke-linecap:round;stroke-width:0.8;"/>
     </g>
     <g id="line2d_166"/>
     <g id="text_23">
      <!-- 0.4 -->
      <g style="fill:#262626;" transform="translate(40.2 198.225496)scale(0.1 -0.1)">
       <use xlink:href="#LiberationSans-30"/>
       <use x="55.615234" xlink:href="#LiberationSans-2e"/>
       <use x="83.398438" xlink:href="#LiberationSans-34"/>
      </g>
     </g>
    </g>
   </g>
   <g id="line2d_167">
    <path clip-path="url(#p31c38a0f0a)" d="M 153.206346 217.205878 
L 317.309911 201.34267 
L 317.345988 217.20309 
L 317.42283 217.195647 
L 414.751025 207.793265 
L 414.751025 207.793265 
" style="fill:none;stroke:#808080;stroke-linecap:round;stroke-opacity:0.3;stroke-width:0.6;"/>
   </g>
   <g id="line2d_168">
    <path clip-path="url(#p31c38a0f0a)" d="M 153.204543 217.206063 
L 293.861546 203.609282 
L 293.897622 217.20309 
L 293.973382 217.195755 
L 414.751025 205.523319 
L 414.751025 205.523319 
" style="fill:none;stroke:#808080;stroke-linecap:round;stroke-opacity:0.3;stroke-width:0.6;"/>
   </g>
   <g id="line2d_169">
    <path clip-path="url(#p31c38a0f0a)" d="M 153.20815 217.205689 
L 387.657894 194.543287 
L 387.69397 217.20309 
L 387.769369 217.195807 
L 414.752468 214.588443 
L 414.752468 214.588443 
" style="fill:none;stroke:#808080;stroke-linecap:round;stroke-opacity:0.3;stroke-width:0.6;"/>
   </g>
   <g id="line2d_170">
    <path clip-path="url(#p31c38a0f0a)" d="M 153.204903 217.206012 
L 340.758638 199.080975 
L 340.794714 217.20309 
L 340.872277 217.195602 
L 414.756076 210.051456 
L 414.756076 210.051456 
" style="fill:none;stroke:#808080;stroke-linecap:round;stroke-opacity:0.3;stroke-width:0.6;"/>
   </g>
   <g id="line2d_171">
    <path clip-path="url(#p31c38a0f0a)" d="M 57.600756 217.206267 
L 246.960846 198.907203 
L 246.996923 217.20309 
L 247.072682 217.195764 
L 414.751025 200.991057 
L 414.751025 200.991057 
" style="fill:none;stroke:#808080;stroke-linecap:round;stroke-opacity:0.3;stroke-width:0.6;"/>
   </g>
   <g id="line2d_172">
    <path clip-path="url(#p31c38a0f0a)" d="M 57.601333 217.206211 
L 246.961207 198.90189 
L 246.997283 217.20309 
L 247.074486 217.195629 
L 414.751386 200.990944 
L 414.751386 200.990944 
" style="fill:none;stroke:#808080;stroke-linecap:round;stroke-opacity:0.3;stroke-width:0.6;"/>
   </g>
   <g id="line2d_173">
    <path clip-path="url(#p31c38a0f0a)" d="M 57.6 217.20634 
L 200.061951 203.440313 
L 200.098027 217.20309 
L 200.17559 217.195597 
L 411.107342 196.806226 
L 411.143418 217.20309 
L 411.218817 217.195785 
L 414.754272 216.853926 
L 414.754272 216.853926 
" style="fill:none;stroke:#808080;stroke-linecap:round;stroke-opacity:0.3;stroke-width:0.6;"/>
   </g>
   <g id="line2d_174">
    <path clip-path="url(#p31c38a0f0a)" d="M 57.633612 217.20309 
L 81.010908 214.942639 
L 81.046984 217.20309 
L 81.155212 217.192624 
L 340.758999 192.101434 
L 340.795075 217.20309 
L 340.870474 217.195801 
L 414.751025 210.059312 
L 414.751025 210.059312 
" style="fill:none;stroke:#808080;stroke-linecap:round;stroke-opacity:0.3;stroke-width:0.6;"/>
   </g>
   <g id="line2d_175">
    <path clip-path="url(#p31c38a0f0a)" d="M 57.603072 217.206043 
L 223.51212 201.174831 
L 223.548196 217.20309 
L 223.625038 217.195653 
L 414.750665 198.723823 
L 414.750665 198.723823 
" style="fill:none;stroke:#808080;stroke-linecap:round;stroke-opacity:0.3;stroke-width:0.6;"/>
   </g>
   <g id="line2d_176">
    <path clip-path="url(#p31c38a0f0a)" d="M 153.204543 217.206063 
L 293.861546 203.609282 
L 293.897622 217.20309 
L 293.973382 217.195755 
L 414.751025 205.523319 
L 414.751025 205.523319 
" style="fill:none;stroke:#a65628;stroke-linecap:round;stroke-opacity:0.9;stroke-width:2.4;"/>
   </g>
   <g id="line2d_177">
    <path clip-path="url(#p31c38a0f0a)" d="M 153.199131 217.20634 
L 153.199131 192.101434 
" style="fill:none;stroke:#000000;stroke-linecap:round;stroke-width:1.5;"/>
   </g>
   <g id="line2d_178">
    <path clip-path="url(#p31c38a0f0a)" d="M 181.050942 217.20634 
L 181.050942 192.101434 
" style="fill:none;stroke:#ff0000;stroke-linecap:round;stroke-width:1.5;"/>
   </g>
   <g id="line2d_179">
    <path clip-path="url(#p31c38a0f0a)" d="M 401.268314 217.20634 
L 401.268314 192.101434 
" style="fill:none;stroke:#ff0000;stroke-linecap:round;stroke-width:1.5;"/>
   </g>
   <g id="line2d_180">
    <path clip-path="url(#p31c38a0f0a)" d="M 293.895818 217.20634 
L 293.895818 192.101434 
" style="fill:none;stroke:#000000;stroke-linecap:round;stroke-width:1.5;"/>
   </g>
   <g id="patch_28">
    <path d="M 57.6 217.20634 
L 57.6 192.101434 
" style="fill:none;"/>
   </g>
   <g id="patch_29">
    <path d="M 414.72 217.20634 
L 414.72 192.101434 
" style="fill:none;"/>
   </g>
   <g id="patch_30">
    <path d="M 57.6 217.20634 
L 414.72 217.20634 
" style="fill:none;"/>
   </g>
   <g id="patch_31">
    <path d="M 57.6 192.101434 
L 414.72 192.101434 
" style="fill:none;"/>
   </g>
   <g id="text_24">
    <!-- UAV 92 -->
    <defs>
     <path d="M 50.875 35.796875 
Q 50.875 18.0625 44.40625 8.53125 
Q 37.9375 -0.984375 25.984375 -0.984375 
Q 17.921875 -0.984375 13.0625 2.40625 
Q 8.203125 5.8125 6.109375 13.375 
L 14.5 14.703125 
Q 17.140625 6.109375 26.125 6.109375 
Q 33.6875 6.109375 37.84375 13.140625 
Q 42 20.171875 42.1875 33.203125 
Q 40.234375 28.8125 35.5 26.140625 
Q 30.765625 23.484375 25.09375 23.484375 
Q 15.828125 23.484375 10.25 29.828125 
Q 4.6875 36.1875 4.6875 46.6875 
Q 4.6875 57.46875 10.734375 63.640625 
Q 16.796875 69.828125 27.59375 69.828125 
Q 39.0625 69.828125 44.96875 61.328125 
Q 50.875 52.828125 50.875 35.796875 
z
M 41.3125 44.28125 
Q 41.3125 52.59375 37.5 57.640625 
Q 33.6875 62.703125 27.296875 62.703125 
Q 20.953125 62.703125 17.28125 58.375 
Q 13.625 54.046875 13.625 46.6875 
Q 13.625 39.15625 17.28125 34.78125 
Q 20.953125 30.421875 27.203125 30.421875 
Q 31 30.421875 34.265625 32.15625 
Q 37.546875 33.890625 39.421875 37.0625 
Q 41.3125 40.234375 41.3125 44.28125 
z
" id="LiberationSans-39"/>
    </defs>
    <g style="fill:#a65628;" transform="translate(57.6 188.109826)scale(0.07 -0.07)">
     <use xlink:href="#LiberationSans-55"/>
     <use x="72.216797" xlink:href="#LiberationSans-41"/>
     <use x="138.806641" xlink:href="#LiberationSans-56"/>
     <use x="205.505859" xlink:href="#LiberationSans-20"/>
     <use x="233.289062" xlink:href="#LiberationSans-39"/>
     <use x="288.904297" xlink:href="#LiberationSans-32"/>
    </g>
   </g>
  </g>
  <g id="axes_7">
   <g id="patch_32">
    <path d="M 57.6 247.332226 
L 414.72 247.332226 
L 414.72 222.227321 
L 57.6 222.227321 
z
" style="fill:#eaeaf2;"/>
   </g>
   <g id="matplotlib.axis_13">
    <g id="xtick_31">
     <g id="line2d_181">
      <path clip-path="url(#p213871b3b6)" d="M 57.597536 247.332226 
L 57.597536 222.227321 
" style="fill:none;stroke:#ffffff;stroke-linecap:round;stroke-width:0.8;"/>
     </g>
     <g id="line2d_182"/>
    </g>
    <g id="xtick_32">
     <g id="line2d_183">
      <path clip-path="url(#p213871b3b6)" d="M 129.749683 247.332226 
L 129.749683 222.227321 
" style="fill:none;stroke:#ffffff;stroke-linecap:round;stroke-width:0.8;"/>
     </g>
     <g id="line2d_184"/>
    </g>
    <g id="xtick_33">
     <g id="line2d_185">
      <path clip-path="url(#p213871b3b6)" d="M 201.901831 247.332226 
L 201.901831 222.227321 
" style="fill:none;stroke:#ffffff;stroke-linecap:round;stroke-width:0.8;"/>
     </g>
     <g id="line2d_186"/>
    </g>
    <g id="xtick_34">
     <g id="line2d_187">
      <path clip-path="url(#p213871b3b6)" d="M 274.053978 247.332226 
L 274.053978 222.227321 
" style="fill:none;stroke:#ffffff;stroke-linecap:round;stroke-width:0.8;"/>
     </g>
     <g id="line2d_188"/>
    </g>
    <g id="xtick_35">
     <g id="line2d_189">
      <path clip-path="url(#p213871b3b6)" d="M 346.206125 247.332226 
L 346.206125 222.227321 
" style="fill:none;stroke:#ffffff;stroke-linecap:round;stroke-width:0.8;"/>
     </g>
     <g id="line2d_190"/>
    </g>
   </g>
   <g id="matplotlib.axis_14">
    <g id="ytick_19">
     <g id="line2d_191">
      <path clip-path="url(#p213871b3b6)" d="M 57.6 247.332465 
L 414.72 247.332465 
" style="fill:none;stroke:#ffffff;stroke-linecap:round;stroke-width:0.8;"/>
     </g>
     <g id="line2d_192"/>
     <g id="text_25">
      <!-- 0.0 -->
      <g style="fill:#262626;" transform="translate(40.2 250.955902)scale(0.1 -0.1)">
       <use xlink:href="#LiberationSans-30"/>
       <use x="55.615234" xlink:href="#LiberationSans-2e"/>
       <use x="83.398438" xlink:href="#LiberationSans-30"/>
      </g>
     </g>
    </g>
    <g id="ytick_20">
     <g id="line2d_193">
      <path clip-path="url(#p213871b3b6)" d="M 57.6 236.030205 
L 414.72 236.030205 
" style="fill:none;stroke:#ffffff;stroke-linecap:round;stroke-width:0.8;"/>
     </g>
     <g id="line2d_194"/>
     <g id="text_26">
      <!-- 0.2 -->
      <g style="fill:#262626;" transform="translate(40.2 239.653643)scale(0.1 -0.1)">
       <use xlink:href="#LiberationSans-30"/>
       <use x="55.615234" xlink:href="#LiberationSans-2e"/>
       <use x="83.398438" xlink:href="#LiberationSans-32"/>
      </g>
     </g>
    </g>
    <g id="ytick_21">
     <g id="line2d_195">
      <path clip-path="url(#p213871b3b6)" d="M 57.6 224.727946 
L 414.72 224.727946 
" style="fill:none;stroke:#ffffff;stroke-linecap:round;stroke-width:0.8;"/>
     </g>
     <g id="line2d_196"/>
     <g id="text_27">
      <!-- 0.4 -->
      <g style="fill:#262626;" transform="translate(40.2 228.351383)scale(0.1 -0.1)">
       <use xlink:href="#LiberationSans-30"/>
       <use x="55.615234" xlink:href="#LiberationSans-2e"/>
       <use x="83.398438" xlink:href="#LiberationSans-34"/>
      </g>
     </g>
    </g>
   </g>
   <g id="line2d_197">
    <path clip-path="url(#p213871b3b6)" d="M 153.206346 247.331765 
L 317.309911 231.468557 
L 317.345988 247.328976 
L 317.42283 247.321534 
L 414.751025 237.919152 
L 414.751025 237.919152 
" style="fill:none;stroke:#808080;stroke-linecap:round;stroke-opacity:0.3;stroke-width:0.6;"/>
   </g>
   <g id="line2d_198">
    <path clip-path="url(#p213871b3b6)" d="M 153.204543 247.33195 
L 293.861546 233.735168 
L 293.897622 247.328976 
L 293.973382 247.321642 
L 414.751025 235.649206 
L 414.751025 235.649206 
" style="fill:none;stroke:#808080;stroke-linecap:round;stroke-opacity:0.3;stroke-width:0.6;"/>
   </g>
   <g id="line2d_199">
    <path clip-path="url(#p213871b3b6)" d="M 153.20815 247.331576 
L 387.657894 224.669174 
L 387.69397 247.328976 
L 387.769369 247.321694 
L 414.752468 244.71433 
L 414.752468 244.71433 
" style="fill:none;stroke:#808080;stroke-linecap:round;stroke-opacity:0.3;stroke-width:0.6;"/>
   </g>
   <g id="line2d_200">
    <path clip-path="url(#p213871b3b6)" d="M 153.204903 247.331898 
L 340.758638 229.206862 
L 340.794714 247.328976 
L 340.872277 247.321489 
L 414.756076 240.177343 
L 414.756076 240.177343 
" style="fill:none;stroke:#808080;stroke-linecap:round;stroke-opacity:0.3;stroke-width:0.6;"/>
   </g>
   <g id="line2d_201">
    <path clip-path="url(#p213871b3b6)" d="M 57.600756 247.332153 
L 246.960846 229.033089 
L 246.996923 247.328976 
L 247.072682 247.321651 
L 414.751025 231.116943 
L 414.751025 231.116943 
" style="fill:none;stroke:#808080;stroke-linecap:round;stroke-opacity:0.3;stroke-width:0.6;"/>
   </g>
   <g id="line2d_202">
    <path clip-path="url(#p213871b3b6)" d="M 57.601333 247.332098 
L 246.961207 229.027777 
L 246.997283 247.328976 
L 247.074486 247.321516 
L 414.751386 231.11683 
L 414.751386 231.11683 
" style="fill:none;stroke:#808080;stroke-linecap:round;stroke-opacity:0.3;stroke-width:0.6;"/>
   </g>
   <g id="line2d_203">
    <path clip-path="url(#p213871b3b6)" d="M 57.6 247.332226 
L 200.061951 233.5662 
L 200.098027 247.328976 
L 200.17559 247.321484 
L 411.107342 226.932112 
L 411.143418 247.328976 
L 411.218817 247.321672 
L 414.754272 246.979813 
L 414.754272 246.979813 
" style="fill:none;stroke:#808080;stroke-linecap:round;stroke-opacity:0.3;stroke-width:0.6;"/>
   </g>
   <g id="line2d_204">
    <path clip-path="url(#p213871b3b6)" d="M 57.633612 247.328976 
L 81.010908 245.068526 
L 81.046984 247.328976 
L 81.155212 247.318511 
L 340.758999 222.227321 
L 340.795075 247.328976 
L 340.870474 247.321688 
L 414.751025 240.185198 
L 414.751025 240.185198 
" style="fill:none;stroke:#808080;stroke-linecap:round;stroke-opacity:0.3;stroke-width:0.6;"/>
   </g>
   <g id="line2d_205">
    <path clip-path="url(#p213871b3b6)" d="M 57.603072 247.331929 
L 223.51212 231.300718 
L 223.548196 247.328976 
L 223.625038 247.32154 
L 414.750665 228.84971 
L 414.750665 228.84971 
" style="fill:none;stroke:#808080;stroke-linecap:round;stroke-opacity:0.3;stroke-width:0.6;"/>
   </g>
   <g id="line2d_206">
    <path clip-path="url(#p213871b3b6)" d="M 153.206346 247.331765 
L 317.309911 231.468557 
L 317.345988 247.328976 
L 317.42283 247.321534 
L 414.751025 237.919152 
L 414.751025 237.919152 
" style="fill:none;stroke:#f781bf;stroke-linecap:round;stroke-opacity:0.9;stroke-width:2.4;"/>
   </g>
   <g id="line2d_207">
    <path clip-path="url(#p213871b3b6)" d="M 317.345266 247.332226 
L 317.345266 222.227321 
" style="fill:none;stroke:#000000;stroke-linecap:round;stroke-width:1.5;"/>
   </g>
   <g id="line2d_208">
    <path clip-path="url(#p213871b3b6)" d="M 153.199131 247.332226 
L 153.199131 222.227321 
" style="fill:none;stroke:#000000;stroke-linecap:round;stroke-width:1.5;"/>
   </g>
   <g id="line2d_209">
    <path clip-path="url(#p213871b3b6)" d="M 212.641678 247.332226 
L 212.641678 222.227321 
" style="fill:none;stroke:#ff0000;stroke-linecap:round;stroke-width:1.5;"/>
   </g>
   <g id="patch_33">
    <path d="M 57.6 247.332226 
L 57.6 222.227321 
" style="fill:none;"/>
   </g>
   <g id="patch_34">
    <path d="M 414.72 247.332226 
L 414.72 222.227321 
" style="fill:none;"/>
   </g>
   <g id="patch_35">
    <path d="M 57.6 247.332226 
L 414.72 247.332226 
" style="fill:none;"/>
   </g>
   <g id="patch_36">
    <path d="M 57.6 222.227321 
L 414.72 222.227321 
" style="fill:none;"/>
   </g>
   <g id="text_28">
    <!-- UAV 93 -->
    <g style="fill:#f781bf;" transform="translate(57.6 218.235713)scale(0.07 -0.07)">
     <use xlink:href="#LiberationSans-55"/>
     <use x="72.216797" xlink:href="#LiberationSans-41"/>
     <use x="138.806641" xlink:href="#LiberationSans-56"/>
     <use x="205.505859" xlink:href="#LiberationSans-20"/>
     <use x="233.289062" xlink:href="#LiberationSans-39"/>
     <use x="288.904297" xlink:href="#LiberationSans-33"/>
    </g>
   </g>
  </g>
  <g id="axes_8">
   <g id="patch_37">
    <path d="M 57.6 277.458113 
L 414.72 277.458113 
L 414.72 252.353208 
L 57.6 252.353208 
z
" style="fill:#eaeaf2;"/>
   </g>
   <g id="matplotlib.axis_15">
    <g id="xtick_36">
     <g id="line2d_210">
      <path clip-path="url(#p04f5bb9732)" d="M 57.597536 277.458113 
L 57.597536 252.353208 
" style="fill:none;stroke:#ffffff;stroke-linecap:round;stroke-width:0.8;"/>
     </g>
     <g id="line2d_211"/>
    </g>
    <g id="xtick_37">
     <g id="line2d_212">
      <path clip-path="url(#p04f5bb9732)" d="M 129.749683 277.458113 
L 129.749683 252.353208 
" style="fill:none;stroke:#ffffff;stroke-linecap:round;stroke-width:0.8;"/>
     </g>
     <g id="line2d_213"/>
    </g>
    <g id="xtick_38">
     <g id="line2d_214">
      <path clip-path="url(#p04f5bb9732)" d="M 201.901831 277.458113 
L 201.901831 252.353208 
" style="fill:none;stroke:#ffffff;stroke-linecap:round;stroke-width:0.8;"/>
     </g>
     <g id="line2d_215"/>
    </g>
    <g id="xtick_39">
     <g id="line2d_216">
      <path clip-path="url(#p04f5bb9732)" d="M 274.053978 277.458113 
L 274.053978 252.353208 
" style="fill:none;stroke:#ffffff;stroke-linecap:round;stroke-width:0.8;"/>
     </g>
     <g id="line2d_217"/>
    </g>
    <g id="xtick_40">
     <g id="line2d_218">
      <path clip-path="url(#p04f5bb9732)" d="M 346.206125 277.458113 
L 346.206125 252.353208 
" style="fill:none;stroke:#ffffff;stroke-linecap:round;stroke-width:0.8;"/>
     </g>
     <g id="line2d_219"/>
    </g>
   </g>
   <g id="matplotlib.axis_16">
    <g id="ytick_22">
     <g id="line2d_220">
      <path clip-path="url(#p04f5bb9732)" d="M 57.6 277.458351 
L 414.72 277.458351 
" style="fill:none;stroke:#ffffff;stroke-linecap:round;stroke-width:0.8;"/>
     </g>
     <g id="line2d_221"/>
     <g id="text_29">
      <!-- 0.0 -->
      <g style="fill:#262626;" transform="translate(40.2 281.081789)scale(0.1 -0.1)">
       <use xlink:href="#LiberationSans-30"/>
       <use x="55.615234" xlink:href="#LiberationSans-2e"/>
       <use x="83.398438" xlink:href="#LiberationSans-30"/>
      </g>
     </g>
    </g>
    <g id="ytick_23">
     <g id="line2d_222">
      <path clip-path="url(#p04f5bb9732)" d="M 57.6 266.156092 
L 414.72 266.156092 
" style="fill:none;stroke:#ffffff;stroke-linecap:round;stroke-width:0.8;"/>
     </g>
     <g id="line2d_223"/>
     <g id="text_30">
      <!-- 0.2 -->
      <g style="fill:#262626;" transform="translate(40.2 269.779529)scale(0.1 -0.1)">
       <use xlink:href="#LiberationSans-30"/>
       <use x="55.615234" xlink:href="#LiberationSans-2e"/>
       <use x="83.398438" xlink:href="#LiberationSans-32"/>
      </g>
     </g>
    </g>
    <g id="ytick_24">
     <g id="line2d_224">
      <path clip-path="url(#p04f5bb9732)" d="M 57.6 254.853832 
L 414.72 254.853832 
" style="fill:none;stroke:#ffffff;stroke-linecap:round;stroke-width:0.8;"/>
     </g>
     <g id="line2d_225"/>
     <g id="text_31">
      <!-- 0.4 -->
      <g style="fill:#262626;" transform="translate(40.2 258.47727)scale(0.1 -0.1)">
       <use xlink:href="#LiberationSans-30"/>
       <use x="55.615234" xlink:href="#LiberationSans-2e"/>
       <use x="83.398438" xlink:href="#LiberationSans-34"/>
      </g>
     </g>
    </g>
   </g>
   <g id="line2d_226">
    <path clip-path="url(#p04f5bb9732)" d="M 153.206346 277.457652 
L 317.309911 261.594444 
L 317.345988 277.454863 
L 317.42283 277.447421 
L 414.751025 268.045039 
L 414.751025 268.045039 
" style="fill:none;stroke:#808080;stroke-linecap:round;stroke-opacity:0.3;stroke-width:0.6;"/>
   </g>
   <g id="line2d_227">
    <path clip-path="url(#p04f5bb9732)" d="M 153.204543 277.457837 
L 293.861546 263.861055 
L 293.897622 277.454863 
L 293.973382 277.447529 
L 414.751025 265.775093 
L 414.751025 265.775093 
" style="fill:none;stroke:#808080;stroke-linecap:round;stroke-opacity:0.3;stroke-width:0.6;"/>
   </g>
   <g id="line2d_228">
    <path clip-path="url(#p04f5bb9732)" d="M 153.20815 277.457463 
L 387.657894 254.795061 
L 387.69397 277.454863 
L 387.769369 277.447581 
L 414.752468 274.840217 
L 414.752468 274.840217 
" style="fill:none;stroke:#808080;stroke-linecap:round;stroke-opacity:0.3;stroke-width:0.6;"/>
   </g>
   <g id="line2d_229">
    <path clip-path="url(#p04f5bb9732)" d="M 153.204903 277.457785 
L 340.758638 259.332748 
L 340.794714 277.454863 
L 340.872277 277.447376 
L 414.756076 270.30323 
L 414.756076 270.30323 
" style="fill:none;stroke:#808080;stroke-linecap:round;stroke-opacity:0.3;stroke-width:0.6;"/>
   </g>
   <g id="line2d_230">
    <path clip-path="url(#p04f5bb9732)" d="M 57.600756 277.45804 
L 246.960846 259.158976 
L 246.996923 277.454863 
L 247.072682 277.447538 
L 414.751025 261.24283 
L 414.751025 261.24283 
" style="fill:none;stroke:#808080;stroke-linecap:round;stroke-opacity:0.3;stroke-width:0.6;"/>
   </g>
   <g id="line2d_231">
    <path clip-path="url(#p04f5bb9732)" d="M 57.601333 277.457984 
L 246.961207 259.153664 
L 246.997283 277.454863 
L 247.074486 277.447403 
L 414.751386 261.242717 
L 414.751386 261.242717 
" style="fill:none;stroke:#808080;stroke-linecap:round;stroke-opacity:0.3;stroke-width:0.6;"/>
   </g>
   <g id="line2d_232">
    <path clip-path="url(#p04f5bb9732)" d="M 57.6 277.458113 
L 200.061951 263.692086 
L 200.098027 277.454863 
L 200.17559 277.447371 
L 411.107342 257.057999 
L 411.143418 277.454863 
L 411.218817 277.447559 
L 414.754272 277.1057 
L 414.754272 277.1057 
" style="fill:none;stroke:#808080;stroke-linecap:round;stroke-opacity:0.3;stroke-width:0.6;"/>
   </g>
   <g id="line2d_233">
    <path clip-path="url(#p04f5bb9732)" d="M 57.633612 277.454863 
L 81.010908 275.194413 
L 81.046984 277.454863 
L 81.155212 277.444398 
L 340.758999 252.353208 
L 340.795075 277.454863 
L 340.870474 277.447575 
L 414.751025 270.311085 
L 414.751025 270.311085 
" style="fill:none;stroke:#808080;stroke-linecap:round;stroke-opacity:0.3;stroke-width:0.6;"/>
   </g>
   <g id="line2d_234">
    <path clip-path="url(#p04f5bb9732)" d="M 57.603072 277.457816 
L 223.51212 261.426605 
L 223.548196 277.454863 
L 223.625038 277.447427 
L 414.750665 258.975597 
L 414.750665 258.975597 
" style="fill:none;stroke:#808080;stroke-linecap:round;stroke-opacity:0.3;stroke-width:0.6;"/>
   </g>
   <g id="line2d_235">
    <path clip-path="url(#p04f5bb9732)" d="M 153.204903 277.457785 
L 340.758638 259.332748 
L 340.794714 277.454863 
L 340.872277 277.447376 
L 414.756076 270.30323 
L 414.756076 270.30323 
" style="fill:none;stroke:#999999;stroke-linecap:round;stroke-opacity:0.9;stroke-width:2.4;"/>
   </g>
   <g id="line2d_236">
    <path clip-path="url(#p04f5bb9732)" d="M 153.199131 277.458113 
L 153.199131 252.353208 
" style="fill:none;stroke:#000000;stroke-linecap:round;stroke-width:1.5;"/>
   </g>
   <g id="line2d_237">
    <path clip-path="url(#p04f5bb9732)" d="M 259.148426 277.458113 
L 259.148426 252.353208 
" style="fill:none;stroke:#ff0000;stroke-linecap:round;stroke-width:1.5;"/>
   </g>
   <g id="line2d_238">
    <path clip-path="url(#p04f5bb9732)" d="M 340.794714 277.458113 
L 340.794714 252.353208 
" style="fill:none;stroke:#000000;stroke-linecap:round;stroke-width:1.5;"/>
   </g>
   <g id="patch_38">
    <path d="M 57.6 277.458113 
L 57.6 252.353208 
" style="fill:none;"/>
   </g>
   <g id="patch_39">
    <path d="M 414.72 277.458113 
L 414.72 252.353208 
" style="fill:none;"/>
   </g>
   <g id="patch_40">
    <path d="M 57.6 277.458113 
L 414.72 277.458113 
" style="fill:none;"/>
   </g>
   <g id="patch_41">
    <path d="M 57.6 252.353208 
L 414.72 252.353208 
" style="fill:none;"/>
   </g>
   <g id="text_32">
    <!-- UAV 94 -->
    <g style="fill:#999999;" transform="translate(57.6 248.3616)scale(0.07 -0.07)">
     <use xlink:href="#LiberationSans-55"/>
     <use x="72.216797" xlink:href="#LiberationSans-41"/>
     <use x="138.806641" xlink:href="#LiberationSans-56"/>
     <use x="205.505859" xlink:href="#LiberationSans-20"/>
     <use x="233.289062" xlink:href="#LiberationSans-39"/>
     <use x="288.904297" xlink:href="#LiberationSans-34"/>
    </g>
   </g>
  </g>
  <g id="axes_9">
   <g id="patch_42">
    <path d="M 57.6 307.584 
L 414.72 307.584 
L 414.72 282.479094 
L 57.6 282.479094 
z
" style="fill:#eaeaf2;"/>
   </g>
   <g id="matplotlib.axis_17">
    <g id="xtick_41">
     <g id="line2d_239">
      <path clip-path="url(#pe763761fbe)" d="M 57.597536 307.584 
L 57.597536 282.479094 
" style="fill:none;stroke:#ffffff;stroke-linecap:round;stroke-width:0.8;"/>
     </g>
     <g id="line2d_240"/>
     <g id="text_33">
      <!-- 0 -->
      <g style="fill:#262626;" transform="translate(54.817067 318.330875)scale(0.1 -0.1)">
       <use xlink:href="#LiberationSans-30"/>
      </g>
     </g>
    </g>
    <g id="xtick_42">
     <g id="line2d_241">
      <path clip-path="url(#pe763761fbe)" d="M 129.749683 307.584 
L 129.749683 282.479094 
" style="fill:none;stroke:#ffffff;stroke-linecap:round;stroke-width:0.8;"/>
     </g>
     <g id="line2d_242"/>
     <g id="text_34">
      <!-- 200 -->
      <g style="fill:#262626;" transform="translate(121.408277 318.330875)scale(0.1 -0.1)">
       <use xlink:href="#LiberationSans-32"/>
       <use x="55.615234" xlink:href="#LiberationSans-30"/>
       <use x="111.230469" xlink:href="#LiberationSans-30"/>
      </g>
     </g>
    </g>
    <g id="xtick_43">
     <g id="line2d_243">
      <path clip-path="url(#pe763761fbe)" d="M 201.901831 307.584 
L 201.901831 282.479094 
" style="fill:none;stroke:#ffffff;stroke-linecap:round;stroke-width:0.8;"/>
     </g>
     <g id="line2d_244"/>
     <g id="text_35">
      <!-- 400 -->
      <g style="fill:#262626;" transform="translate(193.560424 318.330875)scale(0.1 -0.1)">
       <use xlink:href="#LiberationSans-34"/>
       <use x="55.615234" xlink:href="#LiberationSans-30"/>
       <use x="111.230469" xlink:href="#LiberationSans-30"/>
      </g>
     </g>
    </g>
    <g id="xtick_44">
     <g id="line2d_245">
      <path clip-path="url(#pe763761fbe)" d="M 274.053978 307.584 
L 274.053978 282.479094 
" style="fill:none;stroke:#ffffff;stroke-linecap:round;stroke-width:0.8;"/>
     </g>
     <g id="line2d_246"/>
     <g id="text_36">
      <!-- 600 -->
      <defs>
       <path d="M 51.21875 22.515625 
Q 51.21875 11.625 45.3125 5.3125 
Q 39.40625 -0.984375 29 -0.984375 
Q 17.390625 -0.984375 11.234375 7.65625 
Q 5.078125 16.3125 5.078125 32.8125 
Q 5.078125 50.6875 11.46875 60.25 
Q 17.875 69.828125 29.6875 69.828125 
Q 45.265625 69.828125 49.3125 55.8125 
L 40.921875 54.296875 
Q 38.328125 62.703125 29.59375 62.703125 
Q 22.078125 62.703125 17.9375 55.6875 
Q 13.8125 48.6875 13.8125 35.40625 
Q 16.21875 39.84375 20.5625 42.15625 
Q 24.90625 44.484375 30.515625 44.484375 
Q 40.046875 44.484375 45.625 38.515625 
Q 51.21875 32.5625 51.21875 22.515625 
z
M 42.28125 22.125 
Q 42.28125 29.59375 38.625 33.640625 
Q 34.96875 37.703125 28.421875 37.703125 
Q 22.265625 37.703125 18.484375 34.109375 
Q 14.703125 30.515625 14.703125 24.21875 
Q 14.703125 16.265625 18.625 11.1875 
Q 22.5625 6.109375 28.71875 6.109375 
Q 35.0625 6.109375 38.671875 10.375 
Q 42.28125 14.65625 42.28125 22.125 
z
" id="LiberationSans-36"/>
      </defs>
      <g style="fill:#262626;" transform="translate(265.712571 318.330875)scale(0.1 -0.1)">
       <use xlink:href="#LiberationSans-36"/>
       <use x="55.615234" xlink:href="#LiberationSans-30"/>
       <use x="111.230469" xlink:href="#LiberationSans-30"/>
      </g>
     </g>
    </g>
    <g id="xtick_45">
     <g id="line2d_247">
      <path clip-path="url(#pe763761fbe)" d="M 346.206125 307.584 
L 346.206125 282.479094 
" style="fill:none;stroke:#ffffff;stroke-linecap:round;stroke-width:0.8;"/>
     </g>
     <g id="line2d_248"/>
     <g id="text_37">
      <!-- 800 -->
      <defs>
       <path d="M 51.265625 19.1875 
Q 51.265625 9.671875 45.203125 4.34375 
Q 39.15625 -0.984375 27.828125 -0.984375 
Q 16.796875 -0.984375 10.5625 4.234375 
Q 4.34375 9.46875 4.34375 19.09375 
Q 4.34375 25.828125 8.203125 30.421875 
Q 12.0625 35.015625 18.0625 35.984375 
L 18.0625 36.1875 
Q 12.453125 37.5 9.203125 41.890625 
Q 5.953125 46.296875 5.953125 52.203125 
Q 5.953125 60.0625 11.828125 64.9375 
Q 17.71875 69.828125 27.640625 69.828125 
Q 37.796875 69.828125 43.671875 65.03125 
Q 49.5625 60.25 49.5625 52.09375 
Q 49.5625 46.1875 46.28125 41.796875 
Q 43.015625 37.40625 37.359375 36.28125 
L 37.359375 36.078125 
Q 43.953125 35.015625 47.609375 30.5 
Q 51.265625 25.984375 51.265625 19.1875 
z
M 40.4375 51.609375 
Q 40.4375 63.28125 27.640625 63.28125 
Q 21.4375 63.28125 18.1875 60.34375 
Q 14.9375 57.421875 14.9375 51.609375 
Q 14.9375 45.703125 18.28125 42.59375 
Q 21.625 39.5 27.734375 39.5 
Q 33.9375 39.5 37.1875 42.359375 
Q 40.4375 45.21875 40.4375 51.609375 
z
M 42.140625 20.015625 
Q 42.140625 26.421875 38.328125 29.65625 
Q 34.515625 32.90625 27.640625 32.90625 
Q 20.953125 32.90625 17.1875 29.40625 
Q 13.421875 25.921875 13.421875 19.828125 
Q 13.421875 5.609375 27.9375 5.609375 
Q 35.109375 5.609375 38.625 9.046875 
Q 42.140625 12.5 42.140625 20.015625 
z
" id="LiberationSans-38"/>
      </defs>
      <g style="fill:#262626;" transform="translate(337.864719 318.330875)scale(0.1 -0.1)">
       <use xlink:href="#LiberationSans-38"/>
       <use x="55.615234" xlink:href="#LiberationSans-30"/>
       <use x="111.230469" xlink:href="#LiberationSans-30"/>
      </g>
     </g>
    </g>
    <g id="text_38">
     <!-- Time (s) -->
     <defs>
      <path d="M 35.15625 61.1875 
L 35.15625 0 
L 25.875 0 
L 25.875 61.1875 
L 2.25 61.1875 
L 2.25 68.796875 
L 58.796875 68.796875 
L 58.796875 61.1875 
z
" id="LiberationSans-54"/>
      <path d="M 6.6875 64.0625 
L 6.6875 72.46875 
L 15.484375 72.46875 
L 15.484375 64.0625 
z
M 6.6875 0 
L 6.6875 52.828125 
L 15.484375 52.828125 
L 15.484375 0 
z
" id="LiberationSans-69"/>
      <path d="M 37.5 0 
L 37.5 33.5 
Q 37.5 41.15625 35.390625 44.078125 
Q 33.296875 47.015625 27.828125 47.015625 
Q 22.21875 47.015625 18.9375 42.71875 
Q 15.671875 38.421875 15.671875 30.609375 
L 15.671875 0 
L 6.9375 0 
L 6.9375 41.546875 
Q 6.9375 50.78125 6.640625 52.828125 
L 14.9375 52.828125 
Q 14.984375 52.59375 15.03125 51.515625 
Q 15.09375 50.4375 15.15625 49.046875 
Q 15.234375 47.65625 15.328125 43.796875 
L 15.484375 43.796875 
Q 18.3125 49.421875 21.96875 51.609375 
Q 25.640625 53.8125 30.90625 53.8125 
Q 36.921875 53.8125 40.40625 51.421875 
Q 43.890625 49.03125 45.265625 43.796875 
L 45.40625 43.796875 
Q 48.140625 49.125 52.015625 51.46875 
Q 55.90625 53.8125 61.421875 53.8125 
Q 69.4375 53.8125 73.0625 49.46875 
Q 76.703125 45.125 76.703125 35.203125 
L 76.703125 0 
L 68.015625 0 
L 68.015625 33.5 
Q 68.015625 41.15625 65.90625 44.078125 
Q 63.8125 47.015625 58.34375 47.015625 
Q 52.59375 47.015625 49.390625 42.75 
Q 46.1875 38.484375 46.1875 30.609375 
L 46.1875 0 
z
" id="LiberationSans-6d"/>
      <path d="M 13.484375 24.5625 
Q 13.484375 15.484375 17.234375 10.546875 
Q 21 5.609375 28.21875 5.609375 
Q 33.9375 5.609375 37.375 7.90625 
Q 40.828125 10.203125 42.046875 13.71875 
L 49.75 11.53125 
Q 45.015625 -0.984375 28.21875 -0.984375 
Q 16.5 -0.984375 10.375 6 
Q 4.25 12.984375 4.25 26.765625 
Q 4.25 39.84375 10.375 46.828125 
Q 16.5 53.8125 27.875 53.8125 
Q 51.171875 53.8125 51.171875 25.734375 
L 51.171875 24.5625 
z
M 42.09375 31.296875 
Q 41.359375 39.65625 37.84375 43.484375 
Q 34.328125 47.3125 27.734375 47.3125 
Q 21.34375 47.3125 17.609375 43.03125 
Q 13.875 38.765625 13.578125 31.296875 
z
" id="LiberationSans-65"/>
      <path d="M 6.203125 25.984375 
Q 6.203125 40.09375 10.625 51.3125 
Q 15.046875 62.546875 24.21875 72.46875 
L 32.71875 72.46875 
Q 23.578125 62.3125 19.3125 50.875 
Q 15.046875 39.453125 15.046875 25.875 
Q 15.046875 12.359375 19.265625 0.96875 
Q 23.484375 -10.40625 32.71875 -20.703125 
L 24.21875 -20.703125 
Q 14.984375 -10.75 10.59375 0.5 
Q 6.203125 11.765625 6.203125 25.78125 
z
" id="LiberationSans-28"/>
      <path d="M 46.390625 14.59375 
Q 46.390625 7.125 40.75 3.0625 
Q 35.109375 -0.984375 24.953125 -0.984375 
Q 15.09375 -0.984375 9.734375 2.265625 
Q 4.390625 5.515625 2.78125 12.40625 
L 10.546875 13.921875 
Q 11.671875 9.671875 15.1875 7.6875 
Q 18.703125 5.71875 24.953125 5.71875 
Q 31.640625 5.71875 34.734375 7.765625 
Q 37.84375 9.8125 37.84375 13.921875 
Q 37.84375 17.046875 35.6875 19 
Q 33.546875 20.953125 28.765625 22.21875 
L 22.46875 23.875 
Q 14.890625 25.828125 11.6875 27.703125 
Q 8.5 29.59375 6.6875 32.28125 
Q 4.890625 34.96875 4.890625 38.875 
Q 4.890625 46.09375 10.03125 49.875 
Q 15.1875 53.65625 25.046875 53.65625 
Q 33.796875 53.65625 38.9375 50.578125 
Q 44.09375 47.515625 45.453125 40.71875 
L 37.546875 39.75 
Q 36.8125 43.265625 33.609375 45.140625 
Q 30.421875 47.015625 25.046875 47.015625 
Q 19.09375 47.015625 16.25 45.203125 
Q 13.421875 43.40625 13.421875 39.75 
Q 13.421875 37.5 14.59375 36.03125 
Q 15.765625 34.578125 18.0625 33.546875 
Q 20.359375 32.515625 27.734375 30.71875 
Q 34.71875 28.953125 37.796875 27.46875 
Q 40.875 25.984375 42.65625 24.171875 
Q 44.4375 22.359375 45.40625 19.984375 
Q 46.390625 17.625 46.390625 14.59375 
z
" id="LiberationSans-73"/>
      <path d="M 27.09375 25.78125 
Q 27.09375 11.671875 22.671875 0.4375 
Q 18.265625 -10.796875 9.078125 -20.703125 
L 0.59375 -20.703125 
Q 9.765625 -10.453125 14.015625 0.890625 
Q 18.265625 12.25 18.265625 25.875 
Q 18.265625 39.5 13.984375 50.875 
Q 9.71875 62.25 0.59375 72.46875 
L 9.078125 72.46875 
Q 18.3125 62.5 22.703125 51.234375 
Q 27.09375 39.984375 27.09375 25.984375 
z
" id="LiberationSans-29"/>
     </defs>
     <g style="fill:#262626;" transform="translate(217.833438 331.65275)scale(0.1 -0.1)">
      <use xlink:href="#LiberationSans-54"/>
      <use x="61.037109" xlink:href="#LiberationSans-69"/>
      <use x="83.253906" xlink:href="#LiberationSans-6d"/>
      <use x="166.554688" xlink:href="#LiberationSans-65"/>
      <use x="222.169922" xlink:href="#LiberationSans-20"/>
      <use x="249.953125" xlink:href="#LiberationSans-28"/>
      <use x="283.253906" xlink:href="#LiberationSans-73"/>
      <use x="333.253906" xlink:href="#LiberationSans-29"/>
     </g>
    </g>
   </g>
   <g id="matplotlib.axis_18">
    <g id="ytick_25">
     <g id="line2d_249">
      <path clip-path="url(#pe763761fbe)" d="M 57.6 307.584238 
L 414.72 307.584238 
" style="fill:none;stroke:#ffffff;stroke-linecap:round;stroke-width:0.8;"/>
     </g>
     <g id="line2d_250"/>
     <g id="text_39">
      <!-- 0.0 -->
      <g style="fill:#262626;" transform="translate(40.2 311.207676)scale(0.1 -0.1)">
       <use xlink:href="#LiberationSans-30"/>
       <use x="55.615234" xlink:href="#LiberationSans-2e"/>
       <use x="83.398438" xlink:href="#LiberationSans-30"/>
      </g>
     </g>
    </g>
    <g id="ytick_26">
     <g id="line2d_251">
      <path clip-path="url(#pe763761fbe)" d="M 57.6 296.281979 
L 414.72 296.281979 
" style="fill:none;stroke:#ffffff;stroke-linecap:round;stroke-width:0.8;"/>
     </g>
     <g id="line2d_252"/>
     <g id="text_40">
      <!-- 0.2 -->
      <g style="fill:#262626;" transform="translate(40.2 299.905416)scale(0.1 -0.1)">
       <use xlink:href="#LiberationSans-30"/>
       <use x="55.615234" xlink:href="#LiberationSans-2e"/>
       <use x="83.398438" xlink:href="#LiberationSans-32"/>
      </g>
     </g>
    </g>
    <g id="ytick_27">
     <g id="line2d_253">
      <path clip-path="url(#pe763761fbe)" d="M 57.6 284.979719 
L 414.72 284.979719 
" style="fill:none;stroke:#ffffff;stroke-linecap:round;stroke-width:0.8;"/>
     </g>
     <g id="line2d_254"/>
     <g id="text_41">
      <!-- 0.4 -->
      <g style="fill:#262626;" transform="translate(40.2 288.603157)scale(0.1 -0.1)">
       <use xlink:href="#LiberationSans-30"/>
       <use x="55.615234" xlink:href="#LiberationSans-2e"/>
       <use x="83.398438" xlink:href="#LiberationSans-34"/>
      </g>
     </g>
    </g>
    <g id="text_42">
     <!-- Battery (%) -->
     <defs>
      <path d="M 61.421875 19.390625 
Q 61.421875 10.203125 54.734375 5.09375 
Q 48.046875 0 36.140625 0 
L 8.203125 0 
L 8.203125 68.796875 
L 33.203125 68.796875 
Q 57.421875 68.796875 57.421875 52.09375 
Q 57.421875 46 54 41.84375 
Q 50.59375 37.703125 44.34375 36.28125 
Q 52.546875 35.296875 56.984375 30.78125 
Q 61.421875 26.265625 61.421875 19.390625 
z
M 48.046875 50.984375 
Q 48.046875 56.546875 44.234375 58.9375 
Q 40.4375 61.328125 33.203125 61.328125 
L 17.53125 61.328125 
L 17.53125 39.546875 
L 33.203125 39.546875 
Q 40.671875 39.546875 44.359375 42.359375 
Q 48.046875 45.171875 48.046875 50.984375 
z
M 52 20.125 
Q 52 32.28125 34.90625 32.28125 
L 17.53125 32.28125 
L 17.53125 7.46875 
L 35.640625 7.46875 
Q 44.1875 7.46875 48.09375 10.640625 
Q 52 13.8125 52 20.125 
z
" id="LiberationSans-42"/>
      <path d="M 20.21875 -0.984375 
Q 12.25 -0.984375 8.25 3.21875 
Q 4.25 7.421875 4.25 14.75 
Q 4.25 22.953125 9.640625 27.34375 
Q 15.046875 31.734375 27.046875 32.03125 
L 38.921875 32.234375 
L 38.921875 35.109375 
Q 38.921875 41.546875 36.1875 44.328125 
Q 33.453125 47.125 27.59375 47.125 
Q 21.6875 47.125 19 45.109375 
Q 16.3125 43.109375 15.765625 38.71875 
L 6.59375 39.546875 
Q 8.84375 53.8125 27.78125 53.8125 
Q 37.75 53.8125 42.765625 49.234375 
Q 47.796875 44.671875 47.796875 36.03125 
L 47.796875 13.28125 
Q 47.796875 9.375 48.828125 7.390625 
Q 49.859375 5.421875 52.734375 5.421875 
Q 54 5.421875 55.609375 5.765625 
L 55.609375 0.296875 
Q 52.296875 -0.484375 48.828125 -0.484375 
Q 43.953125 -0.484375 41.71875 2.078125 
Q 39.5 4.640625 39.203125 10.109375 
L 38.921875 10.109375 
Q 35.546875 4.046875 31.078125 1.53125 
Q 26.609375 -0.984375 20.21875 -0.984375 
z
M 22.21875 5.609375 
Q 27.046875 5.609375 30.8125 7.8125 
Q 34.578125 10.015625 36.75 13.84375 
Q 38.921875 17.671875 38.921875 21.734375 
L 38.921875 26.078125 
L 29.296875 25.875 
Q 23.09375 25.78125 19.890625 24.609375 
Q 16.703125 23.4375 14.984375 21 
Q 13.28125 18.5625 13.28125 14.59375 
Q 13.28125 10.296875 15.59375 7.953125 
Q 17.921875 5.609375 22.21875 5.609375 
z
" id="LiberationSans-61"/>
      <path d="M 27.046875 0.390625 
Q 22.703125 -0.78125 18.171875 -0.78125 
Q 7.625 -0.78125 7.625 11.1875 
L 7.625 46.4375 
L 1.515625 46.4375 
L 1.515625 52.828125 
L 7.953125 52.828125 
L 10.546875 64.65625 
L 16.40625 64.65625 
L 16.40625 52.828125 
L 26.171875 52.828125 
L 26.171875 46.4375 
L 16.40625 46.4375 
L 16.40625 13.09375 
Q 16.40625 9.28125 17.640625 7.734375 
Q 18.890625 6.203125 21.96875 6.203125 
Q 23.734375 6.203125 27.046875 6.890625 
z
" id="LiberationSans-74"/>
      <path d="M 6.9375 0 
L 6.9375 40.53125 
Q 6.9375 46.09375 6.640625 52.828125 
L 14.9375 52.828125 
Q 15.328125 43.84375 15.328125 42.046875 
L 15.53125 42.046875 
Q 17.625 48.828125 20.359375 51.3125 
Q 23.09375 53.8125 28.078125 53.8125 
Q 29.828125 53.8125 31.640625 53.328125 
L 31.640625 45.265625 
Q 29.890625 45.75 26.953125 45.75 
Q 21.484375 45.75 18.59375 41.03125 
Q 15.71875 36.328125 15.71875 27.546875 
L 15.71875 0 
z
" id="LiberationSans-72"/>
      <path d="M 9.328125 -20.75 
Q 5.71875 -20.75 3.265625 -20.21875 
L 3.265625 -13.625 
Q 5.125 -13.921875 7.375 -13.921875 
Q 15.578125 -13.921875 20.359375 -1.859375 
L 21.1875 0.25 
L 0.25 52.828125 
L 9.625 52.828125 
L 20.75 23.640625 
Q 21 22.953125 21.34375 22 
Q 21.6875 21.046875 23.53125 15.625 
Q 25.390625 10.203125 25.53125 9.578125 
L 28.953125 19.1875 
L 40.53125 52.828125 
L 49.8125 52.828125 
L 29.5 0 
Q 26.21875 -8.453125 23.390625 -12.578125 
Q 20.5625 -16.703125 17.109375 -18.71875 
Q 13.671875 -20.75 9.328125 -20.75 
z
" id="LiberationSans-79"/>
      <path d="M 85.359375 21.1875 
Q 85.359375 10.6875 81.390625 5.046875 
Q 77.4375 -0.59375 69.734375 -0.59375 
Q 62.109375 -0.59375 58.21875 4.90625 
Q 54.34375 10.40625 54.34375 21.1875 
Q 54.34375 32.328125 58.078125 37.765625 
Q 61.8125 43.21875 69.921875 43.21875 
Q 77.9375 43.21875 81.640625 37.625 
Q 85.359375 32.03125 85.359375 21.1875 
z
M 25.734375 0 
L 18.171875 0 
L 63.1875 68.796875 
L 70.84375 68.796875 
z
M 19.234375 69.390625 
Q 27 69.390625 30.75 63.921875 
Q 34.515625 58.453125 34.515625 47.609375 
Q 34.515625 37.015625 30.640625 31.296875 
Q 26.765625 25.59375 19.046875 25.59375 
Q 11.328125 25.59375 7.4375 31.25 
Q 3.5625 36.921875 3.5625 47.609375 
Q 3.5625 58.5 7.3125 63.9375 
Q 11.078125 69.390625 19.234375 69.390625 
z
M 78.125 21.1875 
Q 78.125 29.9375 76.234375 33.859375 
Q 74.359375 37.796875 69.921875 37.796875 
Q 65.484375 37.796875 63.5 33.9375 
Q 61.53125 30.078125 61.53125 21.1875 
Q 61.53125 12.84375 63.453125 8.8125 
Q 65.375 4.78125 69.828125 4.78125 
Q 74.125 4.78125 76.125 8.859375 
Q 78.125 12.9375 78.125 21.1875 
z
M 27.34375 47.609375 
Q 27.34375 56.203125 25.484375 60.15625 
Q 23.640625 64.109375 19.234375 64.109375 
Q 14.65625 64.109375 12.703125 60.21875 
Q 10.75 56.34375 10.75 47.609375 
Q 10.75 39.15625 12.703125 35.125 
Q 14.65625 31.109375 19.140625 31.109375 
Q 23.390625 31.109375 25.359375 35.203125 
Q 27.34375 39.3125 27.34375 47.609375 
z
" id="LiberationSans-25"/>
     </defs>
     <g style="fill:#262626;" transform="translate(34.125 320.035453)rotate(-90)scale(0.1 -0.1)">
      <use xlink:href="#LiberationSans-42"/>
      <use x="66.699219" xlink:href="#LiberationSans-61"/>
      <use x="122.314453" xlink:href="#LiberationSans-74"/>
      <use x="150.097656" xlink:href="#LiberationSans-74"/>
      <use x="177.880859" xlink:href="#LiberationSans-65"/>
      <use x="233.496094" xlink:href="#LiberationSans-72"/>
      <use x="266.796875" xlink:href="#LiberationSans-79"/>
      <use x="316.796875" xlink:href="#LiberationSans-20"/>
      <use x="344.580078" xlink:href="#LiberationSans-28"/>
      <use x="377.880859" xlink:href="#LiberationSans-25"/>
      <use x="466.796875" xlink:href="#LiberationSans-29"/>
     </g>
    </g>
   </g>
   <g id="line2d_255">
    <path clip-path="url(#pe763761fbe)" d="M 153.206346 307.583538 
L 317.309911 291.72033 
L 317.345988 307.58075 
L 317.42283 307.573308 
L 414.751025 298.170925 
L 414.751025 298.170925 
" style="fill:none;stroke:#808080;stroke-linecap:round;stroke-opacity:0.3;stroke-width:0.6;"/>
   </g>
   <g id="line2d_256">
    <path clip-path="url(#pe763761fbe)" d="M 153.204543 307.583724 
L 293.861546 293.986942 
L 293.897622 307.58075 
L 293.973382 307.573415 
L 414.751025 295.90098 
L 414.751025 295.90098 
" style="fill:none;stroke:#808080;stroke-linecap:round;stroke-opacity:0.3;stroke-width:0.6;"/>
   </g>
   <g id="line2d_257">
    <path clip-path="url(#pe763761fbe)" d="M 153.20815 307.58335 
L 387.657894 284.920948 
L 387.69397 307.58075 
L 387.769369 307.573468 
L 414.752468 304.966104 
L 414.752468 304.966104 
" style="fill:none;stroke:#808080;stroke-linecap:round;stroke-opacity:0.3;stroke-width:0.6;"/>
   </g>
   <g id="line2d_258">
    <path clip-path="url(#pe763761fbe)" d="M 153.204903 307.583672 
L 340.758638 289.458635 
L 340.794714 307.58075 
L 340.872277 307.573262 
L 414.756076 300.429117 
L 414.756076 300.429117 
" style="fill:none;stroke:#808080;stroke-linecap:round;stroke-opacity:0.3;stroke-width:0.6;"/>
   </g>
   <g id="line2d_259">
    <path clip-path="url(#pe763761fbe)" d="M 57.600756 307.583927 
L 246.960846 289.284863 
L 246.996923 307.58075 
L 247.072682 307.573424 
L 414.751025 291.368717 
L 414.751025 291.368717 
" style="fill:none;stroke:#808080;stroke-linecap:round;stroke-opacity:0.3;stroke-width:0.6;"/>
   </g>
   <g id="line2d_260">
    <path clip-path="url(#pe763761fbe)" d="M 57.601333 307.583871 
L 246.961207 289.279551 
L 246.997283 307.58075 
L 247.074486 307.57329 
L 414.751386 291.368604 
L 414.751386 291.368604 
" style="fill:none;stroke:#808080;stroke-linecap:round;stroke-opacity:0.3;stroke-width:0.6;"/>
   </g>
   <g id="line2d_261">
    <path clip-path="url(#pe763761fbe)" d="M 57.6 307.584 
L 200.061951 293.817973 
L 200.098027 307.58075 
L 200.17559 307.573258 
L 411.107342 287.183886 
L 411.143418 307.58075 
L 411.218817 307.573446 
L 414.754272 307.231587 
L 414.754272 307.231587 
" style="fill:none;stroke:#808080;stroke-linecap:round;stroke-opacity:0.3;stroke-width:0.6;"/>
   </g>
   <g id="line2d_262">
    <path clip-path="url(#pe763761fbe)" d="M 57.633612 307.58075 
L 81.010908 305.3203 
L 81.046984 307.58075 
L 81.155212 307.570285 
L 340.758999 282.479094 
L 340.795075 307.58075 
L 340.870474 307.573462 
L 414.751025 300.436972 
L 414.751025 300.436972 
" style="fill:none;stroke:#808080;stroke-linecap:round;stroke-opacity:0.3;stroke-width:0.6;"/>
   </g>
   <g id="line2d_263">
    <path clip-path="url(#pe763761fbe)" d="M 57.603072 307.583703 
L 223.51212 291.552492 
L 223.548196 307.58075 
L 223.625038 307.573314 
L 414.750665 289.101484 
L 414.750665 289.101484 
" style="fill:none;stroke:#808080;stroke-linecap:round;stroke-opacity:0.3;stroke-width:0.6;"/>
   </g>
   <g id="line2d_264">
    <path clip-path="url(#pe763761fbe)" d="M 153.20815 307.58335 
L 387.657894 284.920948 
L 387.69397 307.58075 
L 387.769369 307.573468 
L 414.752468 304.966104 
L 414.752468 304.966104 
" style="fill:none;stroke:#999999;stroke-linecap:round;stroke-opacity:0.9;stroke-width:2.4;"/>
   </g>
   <g id="line2d_265">
    <path clip-path="url(#pe763761fbe)" d="M 153.199131 307.584 
L 153.199131 282.479094 
" style="fill:none;stroke:#000000;stroke-linecap:round;stroke-width:1.5;"/>
   </g>
   <g id="line2d_266">
    <path clip-path="url(#pe763761fbe)" d="M 387.693609 307.584 
L 387.693609 282.479094 
" style="fill:none;stroke:#000000;stroke-linecap:round;stroke-width:1.5;"/>
   </g>
   <g id="line2d_267">
    <path clip-path="url(#pe763761fbe)" d="M 261.938189 307.584 
L 261.938189 282.479094 
" style="fill:none;stroke:#ff0000;stroke-linecap:round;stroke-width:1.5;"/>
   </g>
   <g id="patch_43">
    <path d="M 57.6 307.584 
L 57.6 282.479094 
" style="fill:none;"/>
   </g>
   <g id="patch_44">
    <path d="M 414.72 307.584 
L 414.72 282.479094 
" style="fill:none;"/>
   </g>
   <g id="patch_45">
    <path d="M 57.6 307.584 
L 414.72 307.584 
" style="fill:none;"/>
   </g>
   <g id="patch_46">
    <path d="M 57.6 282.479094 
L 414.72 282.479094 
" style="fill:none;"/>
   </g>
   <g id="text_43">
    <!-- UAV 95 -->
    <g style="fill:#999999;" transform="translate(57.6 278.487487)scale(0.07 -0.07)">
     <use xlink:href="#LiberationSans-55"/>
     <use x="72.216797" xlink:href="#LiberationSans-41"/>
     <use x="138.806641" xlink:href="#LiberationSans-56"/>
     <use x="205.505859" xlink:href="#LiberationSans-20"/>
     <use x="233.289062" xlink:href="#LiberationSans-39"/>
     <use x="288.904297" xlink:href="#LiberationSans-35"/>
    </g>
   </g>
  </g>
 </g>
 <defs>
  <clipPath id="p6312757345">
   <rect height="25.104906" width="357.12" x="57.6" y="41.472"/>
  </clipPath>
  <clipPath id="p31236af693">
   <rect height="25.104906" width="357.12" x="57.6" y="71.597887"/>
  </clipPath>
  <clipPath id="p48d81666a9">
   <rect height="25.104906" width="357.12" x="57.6" y="101.723774"/>
  </clipPath>
  <clipPath id="p8c1d9c5d4b">
   <rect height="25.104906" width="357.12" x="57.6" y="131.84966"/>
  </clipPath>
  <clipPath id="p260548c4c7">
   <rect height="25.104906" width="357.12" x="57.6" y="161.975547"/>
  </clipPath>
  <clipPath id="p31c38a0f0a">
   <rect height="25.104906" width="357.12" x="57.6" y="192.101434"/>
  </clipPath>
  <clipPath id="p213871b3b6">
   <rect height="25.104906" width="357.12" x="57.6" y="222.227321"/>
  </clipPath>
  <clipPath id="p04f5bb9732">
   <rect height="25.104906" width="357.12" x="57.6" y="252.353208"/>
  </clipPath>
  <clipPath id="pe763761fbe">
   <rect height="25.104906" width="357.12" x="57.6" y="282.479094"/>
  </clipPath>
 </defs>
</svg>
