<?xml version="1.0" encoding="utf-8" standalone="no"?>
<!DOCTYPE svg PUBLIC "-//W3C//DTD SVG 1.1//EN"
  "http://www.w3.org/Graphics/SVG/1.1/DTD/svg11.dtd">
<!-- Created with matplotlib (http://matplotlib.org/) -->
<svg height="345.6pt" version="1.1" viewBox="0 0 460.8 345.6" width="460.8pt" xmlns="http://www.w3.org/2000/svg" xmlns:xlink="http://www.w3.org/1999/xlink">
 <defs>
  <style type="text/css">
*{stroke-linecap:butt;stroke-linejoin:round;}
  </style>
 </defs>
 <g id="figure_1">
  <g id="patch_1">
   <path d="M 0 345.6 
L 460.8 345.6 
L 460.8 0 
L 0 0 
z
" style="fill:#ffffff;"/>
  </g>
  <g id="axes_1">
   <g id="patch_2">
    <path d="M 57.6 307.584 
L 414.72 307.584 
L 414.72 41.472 
L 57.6 41.472 
z
" style="fill:#eaeaf2;"/>
   </g>
   <g id="matplotlib.axis_1">
    <g id="xtick_1">
     <g id="line2d_1">
      <path clip-path="url(#pce8de5fcde)" d="M 73.830467 307.584 
L 73.830467 41.472 
" style="fill:none;stroke:#ffffff;stroke-linecap:round;stroke-width:0.8;"/>
     </g>
     <g id="line2d_2"/>
     <g id="text_1">
      <!-- 0 -->
      <defs>
       <path d="M 51.703125 34.421875 
Q 51.703125 17.1875 45.625 8.09375 
Q 39.546875 -0.984375 27.6875 -0.984375 
Q 15.828125 -0.984375 9.859375 8.046875 
Q 3.90625 17.09375 3.90625 34.421875 
Q 3.90625 52.15625 9.6875 60.984375 
Q 15.484375 69.828125 27.984375 69.828125 
Q 40.140625 69.828125 45.921875 60.890625 
Q 51.703125 51.953125 51.703125 34.421875 
z
M 42.78125 34.421875 
Q 42.78125 49.3125 39.328125 56 
Q 35.890625 62.703125 27.984375 62.703125 
Q 19.875 62.703125 16.328125 56.109375 
Q 12.796875 49.515625 12.796875 34.421875 
Q 12.796875 19.78125 16.375 12.984375 
Q 19.96875 6.203125 27.78125 6.203125 
Q 35.546875 6.203125 39.15625 13.125 
Q 42.78125 20.0625 42.78125 34.421875 
z
" id="LiberationSans-30"/>
      </defs>
      <g style="fill:#262626;" transform="translate(71.049999 318.330875)scale(0.1 -0.1)">
       <use xlink:href="#LiberationSans-30"/>
      </g>
     </g>
    </g>
    <g id="xtick_2">
     <g id="line2d_3">
      <path clip-path="url(#pce8de5fcde)" d="M 140.015573 307.584 
L 140.015573 41.472 
" style="fill:none;stroke:#ffffff;stroke-linecap:round;stroke-width:0.8;"/>
     </g>
     <g id="line2d_4"/>
     <g id="text_2">
      <!-- 200 -->
      <defs>
       <path d="M 5.03125 0 
L 5.03125 6.203125 
Q 7.515625 11.921875 11.109375 16.28125 
Q 14.703125 20.65625 18.65625 24.1875 
Q 22.609375 27.734375 26.484375 30.765625 
Q 30.375 33.796875 33.5 36.8125 
Q 36.625 39.84375 38.546875 43.15625 
Q 40.484375 46.484375 40.484375 50.6875 
Q 40.484375 56.34375 37.15625 59.46875 
Q 33.84375 62.59375 27.9375 62.59375 
Q 22.3125 62.59375 18.671875 59.546875 
Q 15.046875 56.5 14.40625 50.984375 
L 5.421875 51.8125 
Q 6.390625 60.0625 12.421875 64.9375 
Q 18.453125 69.828125 27.9375 69.828125 
Q 38.328125 69.828125 43.921875 64.921875 
Q 49.515625 60.015625 49.515625 50.984375 
Q 49.515625 46.96875 47.671875 43.015625 
Q 45.84375 39.0625 42.234375 35.109375 
Q 38.625 31.15625 28.421875 22.859375 
Q 22.796875 18.265625 19.46875 14.578125 
Q 16.15625 10.890625 14.703125 7.46875 
L 50.59375 7.46875 
L 50.59375 0 
z
" id="LiberationSans-32"/>
      </defs>
      <g style="fill:#262626;" transform="translate(131.674167 318.330875)scale(0.1 -0.1)">
       <use xlink:href="#LiberationSans-32"/>
       <use x="55.615234" xlink:href="#LiberationSans-30"/>
       <use x="111.230469" xlink:href="#LiberationSans-30"/>
      </g>
     </g>
    </g>
    <g id="xtick_3">
     <g id="line2d_5">
      <path clip-path="url(#pce8de5fcde)" d="M 206.200678 307.584 
L 206.200678 41.472 
" style="fill:none;stroke:#ffffff;stroke-linecap:round;stroke-width:0.8;"/>
     </g>
     <g id="line2d_6"/>
     <g id="text_3">
      <!-- 400 -->
      <defs>
       <path d="M 43.015625 15.578125 
L 43.015625 0 
L 34.71875 0 
L 34.71875 15.578125 
L 2.296875 15.578125 
L 2.296875 22.40625 
L 33.796875 68.796875 
L 43.015625 68.796875 
L 43.015625 22.515625 
L 52.6875 22.515625 
L 52.6875 15.578125 
z
M 34.71875 58.890625 
Q 34.625 58.59375 33.34375 56.296875 
Q 32.078125 54 31.453125 53.078125 
L 13.8125 27.09375 
L 11.1875 23.484375 
L 10.40625 22.515625 
L 34.71875 22.515625 
z
" id="LiberationSans-34"/>
      </defs>
      <g style="fill:#262626;" transform="translate(197.859272 318.330875)scale(0.1 -0.1)">
       <use xlink:href="#LiberationSans-34"/>
       <use x="55.615234" xlink:href="#LiberationSans-30"/>
       <use x="111.230469" xlink:href="#LiberationSans-30"/>
      </g>
     </g>
    </g>
    <g id="xtick_4">
     <g id="line2d_7">
      <path clip-path="url(#pce8de5fcde)" d="M 272.385784 307.584 
L 272.385784 41.472 
" style="fill:none;stroke:#ffffff;stroke-linecap:round;stroke-width:0.8;"/>
     </g>
     <g id="line2d_8"/>
     <g id="text_4">
      <!-- 600 -->
      <defs>
       <path d="M 51.21875 22.515625 
Q 51.21875 11.625 45.3125 5.3125 
Q 39.40625 -0.984375 29 -0.984375 
Q 17.390625 -0.984375 11.234375 7.65625 
Q 5.078125 16.3125 5.078125 32.8125 
Q 5.078125 50.6875 11.46875 60.25 
Q 17.875 69.828125 29.6875 69.828125 
Q 45.265625 69.828125 49.3125 55.8125 
L 40.921875 54.296875 
Q 38.328125 62.703125 29.59375 62.703125 
Q 22.078125 62.703125 17.9375 55.6875 
Q 13.8125 48.6875 13.8125 35.40625 
Q 16.21875 39.84375 20.5625 42.15625 
Q 24.90625 44.484375 30.515625 44.484375 
Q 40.046875 44.484375 45.625 38.515625 
Q 51.21875 32.5625 51.21875 22.515625 
z
M 42.28125 22.125 
Q 42.28125 29.59375 38.625 33.640625 
Q 34.96875 37.703125 28.421875 37.703125 
Q 22.265625 37.703125 18.484375 34.109375 
Q 14.703125 30.515625 14.703125 24.21875 
Q 14.703125 16.265625 18.625 11.1875 
Q 22.5625 6.109375 28.71875 6.109375 
Q 35.0625 6.109375 38.671875 10.375 
Q 42.28125 14.65625 42.28125 22.125 
z
" id="LiberationSans-36"/>
      </defs>
      <g style="fill:#262626;" transform="translate(264.044378 318.330875)scale(0.1 -0.1)">
       <use xlink:href="#LiberationSans-36"/>
       <use x="55.615234" xlink:href="#LiberationSans-30"/>
       <use x="111.230469" xlink:href="#LiberationSans-30"/>
      </g>
     </g>
    </g>
    <g id="xtick_5">
     <g id="line2d_9">
      <path clip-path="url(#pce8de5fcde)" d="M 338.570889 307.584 
L 338.570889 41.472 
" style="fill:none;stroke:#ffffff;stroke-linecap:round;stroke-width:0.8;"/>
     </g>
     <g id="line2d_10"/>
     <g id="text_5">
      <!-- 800 -->
      <defs>
       <path d="M 51.265625 19.1875 
Q 51.265625 9.671875 45.203125 4.34375 
Q 39.15625 -0.984375 27.828125 -0.984375 
Q 16.796875 -0.984375 10.5625 4.234375 
Q 4.34375 9.46875 4.34375 19.09375 
Q 4.34375 25.828125 8.203125 30.421875 
Q 12.0625 35.015625 18.0625 35.984375 
L 18.0625 36.1875 
Q 12.453125 37.5 9.203125 41.890625 
Q 5.953125 46.296875 5.953125 52.203125 
Q 5.953125 60.0625 11.828125 64.9375 
Q 17.71875 69.828125 27.640625 69.828125 
Q 37.796875 69.828125 43.671875 65.03125 
Q 49.5625 60.25 49.5625 52.09375 
Q 49.5625 46.1875 46.28125 41.796875 
Q 43.015625 37.40625 37.359375 36.28125 
L 37.359375 36.078125 
Q 43.953125 35.015625 47.609375 30.5 
Q 51.265625 25.984375 51.265625 19.1875 
z
M 40.4375 51.609375 
Q 40.4375 63.28125 27.640625 63.28125 
Q 21.4375 63.28125 18.1875 60.34375 
Q 14.9375 57.421875 14.9375 51.609375 
Q 14.9375 45.703125 18.28125 42.59375 
Q 21.625 39.5 27.734375 39.5 
Q 33.9375 39.5 37.1875 42.359375 
Q 40.4375 45.21875 40.4375 51.609375 
z
M 42.140625 20.015625 
Q 42.140625 26.421875 38.328125 29.65625 
Q 34.515625 32.90625 27.640625 32.90625 
Q 20.953125 32.90625 17.1875 29.40625 
Q 13.421875 25.921875 13.421875 19.828125 
Q 13.421875 5.609375 27.9375 5.609375 
Q 35.109375 5.609375 38.625 9.046875 
Q 42.140625 12.5 42.140625 20.015625 
z
" id="LiberationSans-38"/>
      </defs>
      <g style="fill:#262626;" transform="translate(330.229483 318.330875)scale(0.1 -0.1)">
       <use xlink:href="#LiberationSans-38"/>
       <use x="55.615234" xlink:href="#LiberationSans-30"/>
       <use x="111.230469" xlink:href="#LiberationSans-30"/>
      </g>
     </g>
    </g>
    <g id="xtick_6">
     <g id="line2d_11">
      <path clip-path="url(#pce8de5fcde)" d="M 404.755995 307.584 
L 404.755995 41.472 
" style="fill:none;stroke:#ffffff;stroke-linecap:round;stroke-width:0.8;"/>
     </g>
     <g id="line2d_12"/>
     <g id="text_6">
      <!-- 1000 -->
      <defs>
       <path d="M 7.625 0 
L 7.625 7.46875 
L 25.140625 7.46875 
L 25.140625 60.40625 
L 9.625 49.3125 
L 9.625 57.625 
L 25.875 68.796875 
L 33.984375 68.796875 
L 33.984375 7.46875 
L 50.734375 7.46875 
L 50.734375 0 
z
" id="LiberationSans-31"/>
      </defs>
      <g style="fill:#262626;" transform="translate(393.63412 318.330875)scale(0.1 -0.1)">
       <use xlink:href="#LiberationSans-31"/>
       <use x="55.615234" xlink:href="#LiberationSans-30"/>
       <use x="111.230469" xlink:href="#LiberationSans-30"/>
       <use x="166.845703" xlink:href="#LiberationSans-30"/>
      </g>
     </g>
    </g>
    <g id="text_7">
     <!-- Tempo (s) -->
     <defs>
      <path d="M 35.15625 61.1875 
L 35.15625 0 
L 25.875 0 
L 25.875 61.1875 
L 2.25 61.1875 
L 2.25 68.796875 
L 58.796875 68.796875 
L 58.796875 61.1875 
z
" id="LiberationSans-54"/>
      <path d="M 13.484375 24.5625 
Q 13.484375 15.484375 17.234375 10.546875 
Q 21 5.609375 28.21875 5.609375 
Q 33.9375 5.609375 37.375 7.90625 
Q 40.828125 10.203125 42.046875 13.71875 
L 49.75 11.53125 
Q 45.015625 -0.984375 28.21875 -0.984375 
Q 16.5 -0.984375 10.375 6 
Q 4.25 12.984375 4.25 26.765625 
Q 4.25 39.84375 10.375 46.828125 
Q 16.5 53.8125 27.875 53.8125 
Q 51.171875 53.8125 51.171875 25.734375 
L 51.171875 24.5625 
z
M 42.09375 31.296875 
Q 41.359375 39.65625 37.84375 43.484375 
Q 34.328125 47.3125 27.734375 47.3125 
Q 21.34375 47.3125 17.609375 43.03125 
Q 13.875 38.765625 13.578125 31.296875 
z
" id="LiberationSans-65"/>
      <path d="M 37.5 0 
L 37.5 33.5 
Q 37.5 41.15625 35.390625 44.078125 
Q 33.296875 47.015625 27.828125 47.015625 
Q 22.21875 47.015625 18.9375 42.71875 
Q 15.671875 38.421875 15.671875 30.609375 
L 15.671875 0 
L 6.9375 0 
L 6.9375 41.546875 
Q 6.9375 50.78125 6.640625 52.828125 
L 14.9375 52.828125 
Q 14.984375 52.59375 15.03125 51.515625 
Q 15.09375 50.4375 15.15625 49.046875 
Q 15.234375 47.65625 15.328125 43.796875 
L 15.484375 43.796875 
Q 18.3125 49.421875 21.96875 51.609375 
Q 25.640625 53.8125 30.90625 53.8125 
Q 36.921875 53.8125 40.40625 51.421875 
Q 43.890625 49.03125 45.265625 43.796875 
L 45.40625 43.796875 
Q 48.140625 49.125 52.015625 51.46875 
Q 55.90625 53.8125 61.421875 53.8125 
Q 69.4375 53.8125 73.0625 49.46875 
Q 76.703125 45.125 76.703125 35.203125 
L 76.703125 0 
L 68.015625 0 
L 68.015625 33.5 
Q 68.015625 41.15625 65.90625 44.078125 
Q 63.8125 47.015625 58.34375 47.015625 
Q 52.59375 47.015625 49.390625 42.75 
Q 46.1875 38.484375 46.1875 30.609375 
L 46.1875 0 
z
" id="LiberationSans-6d"/>
      <path d="M 51.421875 26.65625 
Q 51.421875 -0.984375 31.984375 -0.984375 
Q 19.78125 -0.984375 15.578125 8.203125 
L 15.328125 8.203125 
Q 15.53125 7.8125 15.53125 -0.09375 
L 15.53125 -20.75 
L 6.734375 -20.75 
L 6.734375 42.046875 
Q 6.734375 50.203125 6.453125 52.828125 
L 14.9375 52.828125 
Q 14.984375 52.640625 15.078125 51.4375 
Q 15.1875 50.25 15.3125 47.75 
Q 15.4375 45.265625 15.4375 44.34375 
L 15.625 44.34375 
Q 17.96875 49.21875 21.828125 51.484375 
Q 25.6875 53.765625 31.984375 53.765625 
Q 41.75 53.765625 46.578125 47.21875 
Q 51.421875 40.671875 51.421875 26.65625 
z
M 42.1875 26.46875 
Q 42.1875 37.5 39.203125 42.234375 
Q 36.234375 46.96875 29.734375 46.96875 
Q 24.515625 46.96875 21.5625 44.765625 
Q 18.609375 42.578125 17.0625 37.90625 
Q 15.53125 33.25 15.53125 25.78125 
Q 15.53125 15.375 18.84375 10.4375 
Q 22.171875 5.515625 29.640625 5.515625 
Q 36.1875 5.515625 39.1875 10.328125 
Q 42.1875 15.140625 42.1875 26.46875 
z
" id="LiberationSans-70"/>
      <path d="M 51.421875 26.46875 
Q 51.421875 12.59375 45.3125 5.796875 
Q 39.203125 -0.984375 27.59375 -0.984375 
Q 16.015625 -0.984375 10.109375 6.078125 
Q 4.203125 13.140625 4.203125 26.46875 
Q 4.203125 53.8125 27.875 53.8125 
Q 39.984375 53.8125 45.703125 47.140625 
Q 51.421875 40.484375 51.421875 26.46875 
z
M 42.1875 26.46875 
Q 42.1875 37.40625 38.9375 42.359375 
Q 35.6875 47.3125 28.03125 47.3125 
Q 20.3125 47.3125 16.859375 42.25 
Q 13.421875 37.203125 13.421875 26.46875 
Q 13.421875 16.015625 16.8125 10.765625 
Q 20.21875 5.515625 27.484375 5.515625 
Q 35.40625 5.515625 38.796875 10.59375 
Q 42.1875 15.671875 42.1875 26.46875 
z
" id="LiberationSans-6f"/>
      <path id="LiberationSans-20"/>
      <path d="M 6.203125 25.984375 
Q 6.203125 40.09375 10.625 51.3125 
Q 15.046875 62.546875 24.21875 72.46875 
L 32.71875 72.46875 
Q 23.578125 62.3125 19.3125 50.875 
Q 15.046875 39.453125 15.046875 25.875 
Q 15.046875 12.359375 19.265625 0.96875 
Q 23.484375 -10.40625 32.71875 -20.703125 
L 24.21875 -20.703125 
Q 14.984375 -10.75 10.59375 0.5 
Q 6.203125 11.765625 6.203125 25.78125 
z
" id="LiberationSans-28"/>
      <path d="M 46.390625 14.59375 
Q 46.390625 7.125 40.75 3.0625 
Q 35.109375 -0.984375 24.953125 -0.984375 
Q 15.09375 -0.984375 9.734375 2.265625 
Q 4.390625 5.515625 2.78125 12.40625 
L 10.546875 13.921875 
Q 11.671875 9.671875 15.1875 7.6875 
Q 18.703125 5.71875 24.953125 5.71875 
Q 31.640625 5.71875 34.734375 7.765625 
Q 37.84375 9.8125 37.84375 13.921875 
Q 37.84375 17.046875 35.6875 19 
Q 33.546875 20.953125 28.765625 22.21875 
L 22.46875 23.875 
Q 14.890625 25.828125 11.6875 27.703125 
Q 8.5 29.59375 6.6875 32.28125 
Q 4.890625 34.96875 4.890625 38.875 
Q 4.890625 46.09375 10.03125 49.875 
Q 15.1875 53.65625 25.046875 53.65625 
Q 33.796875 53.65625 38.9375 50.578125 
Q 44.09375 47.515625 45.453125 40.71875 
L 37.546875 39.75 
Q 36.8125 43.265625 33.609375 45.140625 
Q 30.421875 47.015625 25.046875 47.015625 
Q 19.09375 47.015625 16.25 45.203125 
Q 13.421875 43.40625 13.421875 39.75 
Q 13.421875 37.5 14.59375 36.03125 
Q 15.765625 34.578125 18.0625 33.546875 
Q 20.359375 32.515625 27.734375 30.71875 
Q 34.71875 28.953125 37.796875 27.46875 
Q 40.875 25.984375 42.65625 24.171875 
Q 44.4375 22.359375 45.40625 19.984375 
Q 46.390625 17.625 46.390625 14.59375 
z
" id="LiberationSans-73"/>
      <path d="M 27.09375 25.78125 
Q 27.09375 11.671875 22.671875 0.4375 
Q 18.265625 -10.796875 9.078125 -20.703125 
L 0.59375 -20.703125 
Q 9.765625 -10.453125 14.015625 0.890625 
Q 18.265625 12.25 18.265625 25.875 
Q 18.265625 39.5 13.984375 50.875 
Q 9.71875 62.25 0.59375 72.46875 
L 9.078125 72.46875 
Q 18.3125 62.5 22.703125 51.234375 
Q 27.09375 39.984375 27.09375 25.984375 
z
" id="LiberationSans-29"/>
     </defs>
     <g style="fill:#262626;" transform="translate(213.389687 331.65275)scale(0.1 -0.1)">
      <use xlink:href="#LiberationSans-54"/>
      <use x="60.912109" xlink:href="#LiberationSans-65"/>
      <use x="116.527344" xlink:href="#LiberationSans-6d"/>
      <use x="199.828125" xlink:href="#LiberationSans-70"/>
      <use x="255.443359" xlink:href="#LiberationSans-6f"/>
      <use x="311.058594" xlink:href="#LiberationSans-20"/>
      <use x="338.841797" xlink:href="#LiberationSans-28"/>
      <use x="372.142578" xlink:href="#LiberationSans-73"/>
      <use x="422.142578" xlink:href="#LiberationSans-29"/>
     </g>
    </g>
   </g>
   <g id="matplotlib.axis_2">
    <g id="ytick_1">
     <g id="line2d_13">
      <path clip-path="url(#pce8de5fcde)" d="M 57.6 275.566575 
L 414.72 275.566575 
" style="fill:none;stroke:#ffffff;stroke-linecap:round;stroke-width:0.8;"/>
     </g>
     <g id="line2d_14"/>
     <g id="text_8">
      <!-- 0.2 -->
      <defs>
       <path d="M 9.125 0 
L 9.125 10.6875 
L 18.65625 10.6875 
L 18.65625 0 
z
" id="LiberationSans-2e"/>
      </defs>
      <g style="fill:#262626;" transform="translate(40.2 279.190013)scale(0.1 -0.1)">
       <use xlink:href="#LiberationSans-30"/>
       <use x="55.615234" xlink:href="#LiberationSans-2e"/>
       <use x="83.398438" xlink:href="#LiberationSans-32"/>
      </g>
     </g>
    </g>
    <g id="ytick_2">
     <g id="line2d_15">
      <path clip-path="url(#pce8de5fcde)" d="M 57.6 232.336662 
L 414.72 232.336662 
" style="fill:none;stroke:#ffffff;stroke-linecap:round;stroke-width:0.8;"/>
     </g>
     <g id="line2d_16"/>
     <g id="text_9">
      <!-- 0.4 -->
      <g style="fill:#262626;" transform="translate(40.2 235.960099)scale(0.1 -0.1)">
       <use xlink:href="#LiberationSans-30"/>
       <use x="55.615234" xlink:href="#LiberationSans-2e"/>
       <use x="83.398438" xlink:href="#LiberationSans-34"/>
      </g>
     </g>
    </g>
    <g id="ytick_3">
     <g id="line2d_17">
      <path clip-path="url(#pce8de5fcde)" d="M 57.6 189.106748 
L 414.72 189.106748 
" style="fill:none;stroke:#ffffff;stroke-linecap:round;stroke-width:0.8;"/>
     </g>
     <g id="line2d_18"/>
     <g id="text_10">
      <!-- 0.6 -->
      <g style="fill:#262626;" transform="translate(40.2 192.730185)scale(0.1 -0.1)">
       <use xlink:href="#LiberationSans-30"/>
       <use x="55.615234" xlink:href="#LiberationSans-2e"/>
       <use x="83.398438" xlink:href="#LiberationSans-36"/>
      </g>
     </g>
    </g>
    <g id="ytick_4">
     <g id="line2d_19">
      <path clip-path="url(#pce8de5fcde)" d="M 57.6 145.876834 
L 414.72 145.876834 
" style="fill:none;stroke:#ffffff;stroke-linecap:round;stroke-width:0.8;"/>
     </g>
     <g id="line2d_20"/>
     <g id="text_11">
      <!-- 0.8 -->
      <g style="fill:#262626;" transform="translate(40.2 149.500272)scale(0.1 -0.1)">
       <use xlink:href="#LiberationSans-30"/>
       <use x="55.615234" xlink:href="#LiberationSans-2e"/>
       <use x="83.398438" xlink:href="#LiberationSans-38"/>
      </g>
     </g>
    </g>
    <g id="ytick_5">
     <g id="line2d_21">
      <path clip-path="url(#pce8de5fcde)" d="M 57.6 102.646921 
L 414.72 102.646921 
" style="fill:none;stroke:#ffffff;stroke-linecap:round;stroke-width:0.8;"/>
     </g>
     <g id="line2d_22"/>
     <g id="text_12">
      <!-- 1.0 -->
      <g style="fill:#262626;" transform="translate(40.2 106.270358)scale(0.1 -0.1)">
       <use xlink:href="#LiberationSans-31"/>
       <use x="55.615234" xlink:href="#LiberationSans-2e"/>
       <use x="83.398438" xlink:href="#LiberationSans-30"/>
      </g>
     </g>
    </g>
    <g id="ytick_6">
     <g id="line2d_23">
      <path clip-path="url(#pce8de5fcde)" d="M 57.6 59.417007 
L 414.72 59.417007 
" style="fill:none;stroke:#ffffff;stroke-linecap:round;stroke-width:0.8;"/>
     </g>
     <g id="line2d_24"/>
     <g id="text_13">
      <!-- 1.2 -->
      <g style="fill:#262626;" transform="translate(40.2 63.040445)scale(0.1 -0.1)">
       <use xlink:href="#LiberationSans-31"/>
       <use x="55.615234" xlink:href="#LiberationSans-2e"/>
       <use x="83.398438" xlink:href="#LiberationSans-32"/>
      </g>
     </g>
    </g>
    <g id="text_14">
     <!-- Bateria (%) -->
     <defs>
      <path d="M 61.421875 19.390625 
Q 61.421875 10.203125 54.734375 5.09375 
Q 48.046875 0 36.140625 0 
L 8.203125 0 
L 8.203125 68.796875 
L 33.203125 68.796875 
Q 57.421875 68.796875 57.421875 52.09375 
Q 57.421875 46 54 41.84375 
Q 50.59375 37.703125 44.34375 36.28125 
Q 52.546875 35.296875 56.984375 30.78125 
Q 61.421875 26.265625 61.421875 19.390625 
z
M 48.046875 50.984375 
Q 48.046875 56.546875 44.234375 58.9375 
Q 40.4375 61.328125 33.203125 61.328125 
L 17.53125 61.328125 
L 17.53125 39.546875 
L 33.203125 39.546875 
Q 40.671875 39.546875 44.359375 42.359375 
Q 48.046875 45.171875 48.046875 50.984375 
z
M 52 20.125 
Q 52 32.28125 34.90625 32.28125 
L 17.53125 32.28125 
L 17.53125 7.46875 
L 35.640625 7.46875 
Q 44.1875 7.46875 48.09375 10.640625 
Q 52 13.8125 52 20.125 
z
" id="LiberationSans-42"/>
      <path d="M 20.21875 -0.984375 
Q 12.25 -0.984375 8.25 3.21875 
Q 4.25 7.421875 4.25 14.75 
Q 4.25 22.953125 9.640625 27.34375 
Q 15.046875 31.734375 27.046875 32.03125 
L 38.921875 32.234375 
L 38.921875 35.109375 
Q 38.921875 41.546875 36.1875 44.328125 
Q 33.453125 47.125 27.59375 47.125 
Q 21.6875 47.125 19 45.109375 
Q 16.3125 43.109375 15.765625 38.71875 
L 6.59375 39.546875 
Q 8.84375 53.8125 27.78125 53.8125 
Q 37.75 53.8125 42.765625 49.234375 
Q 47.796875 44.671875 47.796875 36.03125 
L 47.796875 13.28125 
Q 47.796875 9.375 48.828125 7.390625 
Q 49.859375 5.421875 52.734375 5.421875 
Q 54 5.421875 55.609375 5.765625 
L 55.609375 0.296875 
Q 52.296875 -0.484375 48.828125 -0.484375 
Q 43.953125 -0.484375 41.71875 2.078125 
Q 39.5 4.640625 39.203125 10.109375 
L 38.921875 10.109375 
Q 35.546875 4.046875 31.078125 1.53125 
Q 26.609375 -0.984375 20.21875 -0.984375 
z
M 22.21875 5.609375 
Q 27.046875 5.609375 30.8125 7.8125 
Q 34.578125 10.015625 36.75 13.84375 
Q 38.921875 17.671875 38.921875 21.734375 
L 38.921875 26.078125 
L 29.296875 25.875 
Q 23.09375 25.78125 19.890625 24.609375 
Q 16.703125 23.4375 14.984375 21 
Q 13.28125 18.5625 13.28125 14.59375 
Q 13.28125 10.296875 15.59375 7.953125 
Q 17.921875 5.609375 22.21875 5.609375 
z
" id="LiberationSans-61"/>
      <path d="M 27.046875 0.390625 
Q 22.703125 -0.78125 18.171875 -0.78125 
Q 7.625 -0.78125 7.625 11.1875 
L 7.625 46.4375 
L 1.515625 46.4375 
L 1.515625 52.828125 
L 7.953125 52.828125 
L 10.546875 64.65625 
L 16.40625 64.65625 
L 16.40625 52.828125 
L 26.171875 52.828125 
L 26.171875 46.4375 
L 16.40625 46.4375 
L 16.40625 13.09375 
Q 16.40625 9.28125 17.640625 7.734375 
Q 18.890625 6.203125 21.96875 6.203125 
Q 23.734375 6.203125 27.046875 6.890625 
z
" id="LiberationSans-74"/>
      <path d="M 6.9375 0 
L 6.9375 40.53125 
Q 6.9375 46.09375 6.640625 52.828125 
L 14.9375 52.828125 
Q 15.328125 43.84375 15.328125 42.046875 
L 15.53125 42.046875 
Q 17.625 48.828125 20.359375 51.3125 
Q 23.09375 53.8125 28.078125 53.8125 
Q 29.828125 53.8125 31.640625 53.328125 
L 31.640625 45.265625 
Q 29.890625 45.75 26.953125 45.75 
Q 21.484375 45.75 18.59375 41.03125 
Q 15.71875 36.328125 15.71875 27.546875 
L 15.71875 0 
z
" id="LiberationSans-72"/>
      <path d="M 6.6875 64.0625 
L 6.6875 72.46875 
L 15.484375 72.46875 
L 15.484375 64.0625 
z
M 6.6875 0 
L 6.6875 52.828125 
L 15.484375 52.828125 
L 15.484375 0 
z
" id="LiberationSans-69"/>
      <path d="M 85.359375 21.1875 
Q 85.359375 10.6875 81.390625 5.046875 
Q 77.4375 -0.59375 69.734375 -0.59375 
Q 62.109375 -0.59375 58.21875 4.90625 
Q 54.34375 10.40625 54.34375 21.1875 
Q 54.34375 32.328125 58.078125 37.765625 
Q 61.8125 43.21875 69.921875 43.21875 
Q 77.9375 43.21875 81.640625 37.625 
Q 85.359375 32.03125 85.359375 21.1875 
z
M 25.734375 0 
L 18.171875 0 
L 63.1875 68.796875 
L 70.84375 68.796875 
z
M 19.234375 69.390625 
Q 27 69.390625 30.75 63.921875 
Q 34.515625 58.453125 34.515625 47.609375 
Q 34.515625 37.015625 30.640625 31.296875 
Q 26.765625 25.59375 19.046875 25.59375 
Q 11.328125 25.59375 7.4375 31.25 
Q 3.5625 36.921875 3.5625 47.609375 
Q 3.5625 58.5 7.3125 63.9375 
Q 11.078125 69.390625 19.234375 69.390625 
z
M 78.125 21.1875 
Q 78.125 29.9375 76.234375 33.859375 
Q 74.359375 37.796875 69.921875 37.796875 
Q 65.484375 37.796875 63.5 33.9375 
Q 61.53125 30.078125 61.53125 21.1875 
Q 61.53125 12.84375 63.453125 8.8125 
Q 65.375 4.78125 69.828125 4.78125 
Q 74.125 4.78125 76.125 8.859375 
Q 78.125 12.9375 78.125 21.1875 
z
M 27.34375 47.609375 
Q 27.34375 56.203125 25.484375 60.15625 
Q 23.640625 64.109375 19.234375 64.109375 
Q 14.65625 64.109375 12.703125 60.21875 
Q 10.75 56.34375 10.75 47.609375 
Q 10.75 39.15625 12.703125 35.125 
Q 14.65625 31.109375 19.140625 31.109375 
Q 23.390625 31.109375 25.359375 35.203125 
Q 27.34375 39.3125 27.34375 47.609375 
z
" id="LiberationSans-25"/>
     </defs>
     <g style="fill:#262626;" transform="translate(34.125 199.53425)rotate(-90)scale(0.1 -0.1)">
      <use xlink:href="#LiberationSans-42"/>
      <use x="66.699219" xlink:href="#LiberationSans-61"/>
      <use x="122.314453" xlink:href="#LiberationSans-74"/>
      <use x="150.097656" xlink:href="#LiberationSans-65"/>
      <use x="205.712891" xlink:href="#LiberationSans-72"/>
      <use x="239.013672" xlink:href="#LiberationSans-69"/>
      <use x="261.230469" xlink:href="#LiberationSans-61"/>
      <use x="316.845703" xlink:href="#LiberationSans-20"/>
      <use x="344.628906" xlink:href="#LiberationSans-28"/>
      <use x="377.929688" xlink:href="#LiberationSans-25"/>
      <use x="466.845703" xlink:href="#LiberationSans-29"/>
     </g>
    </g>
   </g>
   <g id="line2d_25">
    <path clip-path="url(#pce8de5fcde)" d="M 161.532351 295.463575 
L 173.464532 271.626168 
L 183.039201 247.788546 
L 183.670938 223.966053 
L 204.546713 200.143345 
L 216.052331 176.813025 
L 312.101811 295.446715 
L 317.717948 271.898517 
L 333.608661 248.350102 
L 339.398865 225.255386 
L 355.11882 202.160669 
L 355.506996 179.029855 
L 376.627656 155.899258 
L 376.82919 132.768876 
L 398.137815 109.638495 
" style="fill:none;stroke:#808080;stroke-linecap:round;stroke-opacity:0.3;stroke-width:0.6;"/>
   </g>
   <g id="line2d_26">
    <path clip-path="url(#pce8de5fcde)" d="M 161.530696 295.453848 
L 165.374396 271.965091 
L 183.037546 248.47655 
L 187.074176 225.14623 
L 290.591652 295.455794 
L 295.801743 271.542735 
L 312.100156 247.62946 
L 312.474102 223.68052 
L 333.607668 199.73158 
L 342.050902 175.327645 
L 355.117166 150.923495 
L 355.13669 126.518911 
L 376.627656 102.115193 
L 389.079391 78.784009 
" style="fill:none;stroke:#808080;stroke-linecap:round;stroke-opacity:0.3;stroke-width:0.6;"/>
   </g>
   <g id="line2d_27">
    <path clip-path="url(#pce8de5fcde)" d="M 161.534005 295.478273 
L 167.29939 271.543815 
L 183.04251 247.609358 
L 183.427045 223.647017 
L 204.54936 199.684459 
L 211.158274 175.246373 
L 226.057865 150.808287 
L 228.422989 126.335617 
L 247.5667 101.862298 
L 261.271981 78.533275 
L 376.630634 295.477625 
L 383.550287 271.425798 
L 398.139139 247.373755 
L 398.450209 223.293612 
" style="fill:none;stroke:#808080;stroke-linecap:round;stroke-opacity:0.3;stroke-width:0.6;"/>
   </g>
   <g id="line2d_28">
    <path clip-path="url(#pce8de5fcde)" d="M 161.531027 295.488 
L 172.163333 272.866002 
L 183.040855 250.244005 
L 185.222647 227.518472 
L 204.547705 204.792938 
L 209.453014 181.630999 
L 226.056541 158.46906 
L 231.341091 135.892021 
L 247.566369 113.314983 
L 258.712934 89.984879 
" style="fill:none;stroke:#808080;stroke-linecap:round;stroke-opacity:0.3;stroke-width:0.6;"/>
   </g>
   <g id="line2d_29">
    <path clip-path="url(#pce8de5fcde)" d="M 73.833421 295.47957 
L 79.853279 271.91235 
L 95.341189 248.345347 
L 101.29401 224.585322 
L 118.505414 200.825513 
L 119.450537 176.96152 
L 140.015573 153.097743 
L 140.390511 129.240667 
L 161.525732 105.383591 
L 173.451626 82.05219 
L 247.569679 295.458604 
L 253.681873 271.461895 
L 269.079838 247.465186 
L 269.909137 223.522082 
L 290.588343 199.578762 
L 299.839366 175.135272 
L 312.097178 150.691782 
L 312.414536 126.21306 
L 333.607337 101.73477 
L 347.360933 78.403585 
" style="fill:none;stroke:#808080;stroke-linecap:round;stroke-opacity:0.3;stroke-width:0.6;"/>
   </g>
   <g id="line2d_30">
    <path clip-path="url(#pce8de5fcde)" d="M 73.83395 295.444338 
L 91.671357 270.325813 
L 95.343969 245.207071 
L 95.432359 220.098273 
L 118.508723 194.989475 
L 118.784053 169.850199 
L 140.018882 144.710924 
L 140.18964 119.552627 
L 161.526063 94.39433 
L 179.808706 71.063146 
L 247.571333 295.469411 
L 252.908169 271.931156 
L 269.081493 248.392684 
L 269.279055 224.846214 
L 290.589997 201.299529 
L 291.00233 177.756086 
L 312.098502 154.212642 
L 321.643718 131.601452 
L 333.607668 108.990046 
L 345.433623 85.659726 
" style="fill:none;stroke:#808080;stroke-linecap:round;stroke-opacity:0.3;stroke-width:0.6;"/>
   </g>
   <g id="line2d_31">
    <path clip-path="url(#pce8de5fcde)" d="M 73.832727 295.478706 
L 80.871702 271.472054 
L 95.342314 247.465402 
L 97.710252 223.549965 
L 118.507068 199.634529 
L 123.479555 175.778533 
L 140.017227 151.922754 
L 144.120373 128.430322 
L 161.525732 104.93789 
L 165.534233 81.606922 
L 204.551015 295.444554 
L 210.809809 271.446764 
L 226.059519 247.448759 
L 227.259786 223.544778 
L 247.567031 199.641013 
L 256.905088 175.158833 
L 269.076529 150.676868 
L 269.435252 126.234891 
L 290.587019 101.79313 
L 304.136765 78.461946 
L 398.140794 295.44758 
" style="fill:none;stroke:#808080;stroke-linecap:round;stroke-opacity:0.3;stroke-width:0.6;"/>
   </g>
   <g id="line2d_32">
    <path clip-path="url(#pce8de5fcde)" d="M 116.850786 295.444338 
L 118.512032 272.035772 
L 123.049683 248.122713 
L 140.022191 224.209438 
L 140.606606 200.273683 
L 161.526725 176.337928 
L 174.024789 151.202976 
L 183.035891 126.068023 
L 188.097397 101.484036 
L 204.546382 76.899184 
L 218.934362 53.568 
L 333.610316 295.447364 
L 339.551422 271.445467 
L 355.120475 247.443571 
L 355.793247 223.401687 
L 376.62898 199.359587 
L 383.535065 174.960407 
L 398.137815 150.561444 
L 398.487273 126.127897 
" style="fill:none;stroke:#808080;stroke-linecap:round;stroke-opacity:0.3;stroke-width:0.6;"/>
   </g>
   <g id="line2d_33">
    <path clip-path="url(#pce8de5fcde)" d="M 73.835545 295.460765 
L 84.961445 272.88632 
L 95.345624 250.312092 
L 96.006747 227.667831 
L 118.510377 205.023786 
L 118.972349 182.417567 
L 140.020537 159.811132 
L 140.256487 137.208156 
L 161.526394 114.60518 
L 172.379097 91.275292 
L 226.061174 295.486271 
L 231.415549 271.95839 
L 247.568024 248.430294 
L 256.955057 225.862117 
L 269.078183 203.293941 
L 269.253243 180.715389 
L 290.587019 158.136838 
L 291.201217 135.548127 
L 312.096847 112.959201 
L 323.720937 89.628232 
" style="fill:none;stroke:#808080;stroke-linecap:round;stroke-opacity:0.3;stroke-width:0.6;"/>
   </g>
   <g id="line2d_34">
    <path clip-path="url(#pce8de5fcde)" d="M 116.850786 295.444338 
L 118.512032 272.035772 
L 123.049683 248.122713 
L 140.022191 224.209438 
L 140.606606 200.273683 
L 161.526725 176.337928 
L 174.024789 151.202976 
L 183.035891 126.068023 
L 188.097397 101.484036 
L 204.546382 76.899184 
L 218.934362 53.568 
L 333.610316 295.447364 
L 339.551422 271.445467 
L 355.120475 247.443571 
L 355.793247 223.401687 
L 376.62898 199.359587 
L 383.535065 174.960407 
L 398.137815 150.561444 
L 398.487273 126.127897 
" style="fill:none;stroke:#ffff33;stroke-linecap:round;stroke-opacity:0.9;stroke-width:2.4;"/>
   </g>
   <g id="line2d_35">
    <path clip-path="url(#pce8de5fcde)" d="M 95.340627 307.584 
L 95.340627 41.472 
" style="fill:none;stroke:#000000;stroke-linecap:round;stroke-width:1.5;"/>
   </g>
   <g id="line2d_36">
    <path clip-path="url(#pce8de5fcde)" d="M 333.607007 307.584 
L 333.607007 41.472 
" style="fill:none;stroke:#000000;stroke-linecap:round;stroke-width:1.5;"/>
   </g>
   <g id="line2d_37">
    <path clip-path="url(#pce8de5fcde)" d="M 218.934362 307.584 
L 218.934362 41.472 
" style="fill:none;stroke:#ff0000;stroke-linecap:round;stroke-width:1.5;"/>
   </g>
   <g id="patch_3">
    <path d="M 57.6 307.584 
L 57.6 41.472 
" style="fill:none;"/>
   </g>
   <g id="patch_4">
    <path d="M 414.72 307.584 
L 414.72 41.472 
" style="fill:none;"/>
   </g>
   <g id="patch_5">
    <path d="M 57.6 307.584 
L 414.72 307.584 
" style="fill:none;"/>
   </g>
   <g id="patch_6">
    <path d="M 57.6 41.472 
L 414.72 41.472 
" style="fill:none;"/>
   </g>
   <g id="text_15">
    <!-- UAV 5 -->
    <defs>
     <path d="M 35.6875 -0.984375 
Q 27.25 -0.984375 20.953125 2.09375 
Q 14.65625 5.171875 11.1875 11.03125 
Q 7.71875 16.890625 7.71875 25 
L 7.71875 68.796875 
L 17.046875 68.796875 
L 17.046875 25.78125 
Q 17.046875 16.359375 21.828125 11.46875 
Q 26.609375 6.59375 35.640625 6.59375 
Q 44.921875 6.59375 50.0625 11.640625 
Q 55.21875 16.703125 55.21875 26.421875 
L 55.21875 68.796875 
L 64.5 68.796875 
L 64.5 25.875 
Q 64.5 17.53125 60.953125 11.46875 
Q 57.421875 5.421875 50.953125 2.21875 
Q 44.484375 -0.984375 35.6875 -0.984375 
z
" id="LiberationSans-55"/>
     <path d="M 56.984375 0 
L 49.125 20.125 
L 17.78125 20.125 
L 9.859375 0 
L 0.203125 0 
L 28.265625 68.796875 
L 38.875 68.796875 
L 66.5 0 
z
M 33.453125 61.765625 
L 33.015625 60.40625 
Q 31.78125 56.34375 29.390625 50 
L 20.609375 27.390625 
L 46.34375 27.390625 
L 37.5 50.09375 
Q 36.140625 53.46875 34.765625 57.71875 
z
" id="LiberationSans-41"/>
     <path d="M 38.1875 0 
L 28.515625 0 
L 0.4375 68.796875 
L 10.25 68.796875 
L 29.296875 20.359375 
L 33.40625 8.203125 
L 37.5 20.359375 
L 56.453125 68.796875 
L 66.265625 68.796875 
z
" id="LiberationSans-56"/>
     <path d="M 51.421875 22.40625 
Q 51.421875 11.53125 44.953125 5.265625 
Q 38.484375 -0.984375 27 -0.984375 
Q 17.390625 -0.984375 11.46875 3.21875 
Q 5.5625 7.421875 4 15.375 
L 12.890625 16.40625 
Q 15.671875 6.203125 27.203125 6.203125 
Q 34.28125 6.203125 38.28125 10.46875 
Q 42.28125 14.75 42.28125 22.21875 
Q 42.28125 28.71875 38.25 32.71875 
Q 34.234375 36.71875 27.390625 36.71875 
Q 23.828125 36.71875 20.75 35.59375 
Q 17.671875 34.46875 14.59375 31.78125 
L 6 31.78125 
L 8.296875 68.796875 
L 47.40625 68.796875 
L 47.40625 61.328125 
L 16.3125 61.328125 
L 14.984375 39.5 
Q 20.703125 43.890625 29.203125 43.890625 
Q 39.359375 43.890625 45.390625 37.9375 
Q 51.421875 31.984375 51.421875 22.40625 
z
" id="LiberationSans-35"/>
    </defs>
    <g style="fill:#ffff33;" transform="translate(57.6 8.8608)scale(0.07 -0.07)">
     <use xlink:href="#LiberationSans-55"/>
     <use x="72.216797" xlink:href="#LiberationSans-41"/>
     <use x="138.806641" xlink:href="#LiberationSans-56"/>
     <use x="205.505859" xlink:href="#LiberationSans-20"/>
     <use x="233.289062" xlink:href="#LiberationSans-35"/>
    </g>
   </g>
  </g>
  <g id="text_16">
   <!-- Consumo de bateria por movimento do UAV 5 -->
   <defs>
    <path d="M 66.3125 16.453125 
Q 60.15625 7.28125 52.34375 3.140625 
Q 44.53125 -0.984375 34.1875 -0.984375 
Q 25.34375 -0.984375 18.828125 2.5625 
Q 12.3125 6.109375 8.90625 12.640625 
Q 5.515625 19.1875 5.515625 27.78125 
Q 5.515625 39.796875 10.640625 49.515625 
Q 15.765625 59.234375 24.875 64.53125 
Q 33.984375 69.828125 45.21875 69.828125 
Q 55.8125 69.828125 63.109375 65.40625 
Q 70.40625 60.984375 72.75 52.984375 
L 63.96875 50.296875 
Q 62.203125 55.765625 57.140625 58.984375 
Q 52.09375 62.203125 44.734375 62.203125 
Q 35.75 62.203125 28.90625 57.875 
Q 22.078125 53.5625 18.40625 45.71875 
Q 14.75 37.890625 14.75 27.640625 
Q 14.75 17.875 20.0625 12.234375 
Q 25.390625 6.59375 34.8125 6.59375 
Q 42.046875 6.59375 48.296875 10.171875 
Q 54.546875 13.765625 59.328125 20.796875 
z
" id="LiberationSans-Italic-43"/>
    <path d="M 52.4375 33.34375 
Q 52.4375 27 50.484375 20.140625 
Q 48.53125 13.28125 44.890625 8.515625 
Q 41.265625 3.765625 35.984375 1.390625 
Q 30.71875 -0.984375 23.96875 -0.984375 
Q 14.40625 -0.984375 8.828125 4.78125 
Q 3.265625 10.546875 3.265625 20.453125 
Q 3.46875 30.421875 6.875 38.125 
Q 10.296875 45.84375 16.34375 49.796875 
Q 22.40625 53.765625 31.34375 53.765625 
Q 41.609375 53.765625 47.015625 48.40625 
Q 52.4375 43.0625 52.4375 33.34375 
z
M 43.359375 33.34375 
Q 43.359375 47.3125 31.25 47.3125 
Q 24.65625 47.3125 20.671875 43.921875 
Q 16.703125 40.53125 14.5 33.640625 
Q 12.3125 26.765625 12.3125 20.3125 
Q 12.3125 13.09375 15.4375 9.296875 
Q 18.5625 5.515625 24.515625 5.515625 
Q 29.546875 5.515625 32.59375 7.203125 
Q 35.640625 8.890625 37.9375 12.46875 
Q 40.234375 16.0625 41.671875 21.625 
Q 43.109375 27.203125 43.359375 33.34375 
z
" id="LiberationSans-Italic-6f"/>
    <path d="M 35.015625 0 
L 41.15625 31.5 
Q 42.046875 35.796875 42.046875 38.8125 
Q 42.046875 46.96875 33.296875 46.96875 
Q 27.15625 46.96875 22.46875 42.28125 
Q 17.78125 37.59375 16.21875 29.59375 
L 10.453125 0 
L 1.65625 0 
L 9.765625 41.546875 
Q 10.75 46.1875 11.671875 52.828125 
L 19.96875 52.828125 
Q 19.96875 52.296875 19.453125 49.046875 
Q 18.953125 45.796875 18.609375 43.796875 
L 18.75 43.796875 
Q 22.796875 49.421875 26.875 51.59375 
Q 30.953125 53.765625 36.578125 53.765625 
Q 43.796875 53.765625 47.4375 50.1875 
Q 51.078125 46.625 51.078125 39.890625 
Q 51.078125 36.765625 50.046875 31.890625 
L 43.84375 0 
z
" id="LiberationSans-Italic-6e"/>
    <path d="M 44.28125 15.484375 
Q 44.28125 7.5625 38.21875 3.28125 
Q 32.171875 -0.984375 20.75 -0.984375 
Q 12.25 -0.984375 7.25 1.875 
Q 2.25 4.734375 0.25 10.890625 
L 7.421875 13.625 
Q 9.03125 9.328125 12.421875 7.375 
Q 15.828125 5.421875 21.53125 5.421875 
Q 28.515625 5.421875 32.125 7.78125 
Q 35.75 10.15625 35.75 14.703125 
Q 35.75 17.71875 33.25 19.75 
Q 30.765625 21.78125 22.703125 24.265625 
Q 16.453125 26.3125 13.328125 28.265625 
Q 10.203125 30.21875 8.546875 32.828125 
Q 6.890625 35.453125 6.890625 38.921875 
Q 6.890625 46 12.546875 49.828125 
Q 18.21875 53.65625 28.515625 53.65625 
Q 45.796875 53.65625 47.953125 41.21875 
L 39.984375 39.984375 
Q 38.921875 43.84375 35.9375 45.546875 
Q 32.953125 47.265625 27.9375 47.265625 
Q 21.875 47.265625 18.625 45.328125 
Q 15.375 43.40625 15.375 39.890625 
Q 15.375 37.84375 16.40625 36.421875 
Q 17.4375 35.015625 19.359375 33.90625 
Q 21.296875 32.8125 28.265625 30.609375 
Q 34.46875 28.65625 37.609375 26.65625 
Q 40.765625 24.65625 42.515625 21.921875 
Q 44.28125 19.1875 44.28125 15.484375 
z
" id="LiberationSans-Italic-73"/>
    <path d="M 20.265625 52.828125 
L 14.109375 21.34375 
Q 13.234375 17.046875 13.234375 14.015625 
Q 13.234375 5.859375 21.96875 5.859375 
Q 28.125 5.859375 32.8125 10.546875 
Q 37.5 15.234375 39.0625 23.25 
L 44.828125 52.828125 
L 53.609375 52.828125 
L 45.515625 11.28125 
Q 44.53125 6.640625 43.609375 0 
L 35.296875 0 
Q 35.296875 0.53125 35.8125 3.78125 
Q 36.328125 7.03125 36.671875 9.03125 
L 36.53125 9.03125 
Q 32.46875 3.421875 28.390625 1.25 
Q 24.3125 -0.921875 18.703125 -0.921875 
Q 11.46875 -0.921875 7.828125 2.640625 
Q 4.203125 6.203125 4.203125 12.9375 
Q 4.203125 16.0625 5.21875 20.953125 
L 11.421875 52.828125 
z
" id="LiberationSans-Italic-75"/>
    <path d="M 32.234375 0 
L 38.28125 30.953125 
Q 39.5 37.0625 39.5 39.453125 
Q 39.5 43.109375 37.640625 45.03125 
Q 35.796875 46.96875 31.59375 46.96875 
Q 25.921875 46.96875 21.703125 42.140625 
Q 17.484375 37.3125 16.15625 29.5 
L 10.40625 0 
L 1.65625 0 
L 9.765625 41.546875 
Q 10.75 46.1875 11.671875 52.828125 
L 19.96875 52.828125 
Q 19.96875 52.296875 19.453125 49.046875 
Q 18.953125 45.796875 18.609375 43.796875 
L 18.75 43.796875 
Q 22.3125 49.359375 25.90625 51.5625 
Q 29.5 53.765625 34.46875 53.765625 
Q 40.375 53.765625 43.84375 50.859375 
Q 47.3125 47.953125 48 42.4375 
Q 52.046875 48.78125 55.96875 51.265625 
Q 59.90625 53.765625 64.984375 53.765625 
Q 71.578125 53.765625 75.109375 50.1875 
Q 78.65625 46.625 78.65625 39.890625 
Q 78.65625 36.765625 77.640625 31.890625 
L 71.4375 0 
L 62.75 0 
L 68.796875 30.953125 
Q 70.015625 37.0625 70.015625 39.453125 
Q 70.015625 43.109375 68.15625 45.03125 
Q 66.3125 46.96875 62.109375 46.96875 
Q 56.453125 46.96875 52.25 42.203125 
Q 48.046875 37.453125 46.6875 29.640625 
L 40.921875 0 
z
" id="LiberationSans-Italic-6d"/>
    <path id="LiberationSans-Italic-20"/>
    <path d="M 19.578125 -1.03125 
Q 11.921875 -1.03125 7.640625 3.578125 
Q 3.375 8.203125 3.375 16.265625 
Q 3.375 26.171875 6.375 35.46875 
Q 9.375 44.78125 14.8125 49.265625 
Q 20.265625 53.765625 28.71875 53.765625 
Q 34.71875 53.765625 38.5 51.21875 
Q 42.28125 48.6875 43.84375 44.09375 
L 44.09375 44.09375 
L 45.453125 52 
L 49.46875 72.46875 
L 58.25 72.46875 
L 46.296875 10.890625 
Q 44.875 4 44.4375 0 
L 36.03125 0 
Q 36.03125 2.484375 37.0625 7.8125 
L 36.8125 7.8125 
Q 33.25 3.171875 29.296875 1.0625 
Q 25.34375 -1.03125 19.578125 -1.03125 
z
M 22.125 5.765625 
Q 26.953125 5.765625 30.390625 7.734375 
Q 33.84375 9.71875 36.234375 13.6875 
Q 38.625 17.671875 39.984375 23.65625 
Q 41.359375 29.640625 41.359375 34.375 
Q 41.359375 40.484375 38.25 43.875 
Q 35.15625 47.265625 29.640625 47.265625 
Q 23.6875 47.265625 20.21875 43.71875 
Q 16.75 40.1875 14.640625 32.15625 
Q 12.546875 24.125 12.546875 17.828125 
Q 12.546875 11.8125 14.84375 8.78125 
Q 17.140625 5.765625 22.125 5.765625 
z
" id="LiberationSans-Italic-64"/>
    <path d="M 12.5 24.5625 
Q 12.203125 22.859375 12.0625 19.046875 
Q 12.0625 12.546875 15.3125 9.078125 
Q 18.5625 5.609375 25.09375 5.609375 
Q 29.828125 5.609375 33.6875 7.953125 
Q 37.546875 10.296875 39.703125 14.359375 
L 46.4375 11.28125 
Q 42.875 4.890625 37.375 1.953125 
Q 31.890625 -0.984375 24.078125 -0.984375 
Q 14.265625 -0.984375 8.8125 4.453125 
Q 3.375 9.90625 3.375 19.78125 
Q 3.375 29.59375 6.828125 37.375 
Q 10.296875 45.171875 16.59375 49.484375 
Q 22.90625 53.8125 30.765625 53.8125 
Q 40.765625 53.8125 46.328125 48.78125 
Q 51.90625 43.75 51.90625 34.578125 
Q 51.90625 29.4375 50.734375 24.5625 
z
M 42.96875 31.296875 
L 43.171875 34.8125 
Q 43.171875 40.875 40.015625 44.09375 
Q 36.859375 47.3125 30.953125 47.3125 
Q 24.421875 47.3125 19.953125 43.140625 
Q 15.484375 38.96875 13.671875 31.296875 
z
" id="LiberationSans-Italic-65"/>
    <path d="M 36.328125 53.8125 
Q 44 53.8125 48.265625 49.1875 
Q 52.546875 44.578125 52.546875 36.53125 
Q 52.546875 26.609375 49.53125 17.3125 
Q 46.53125 8.015625 41.078125 3.515625 
Q 35.640625 -0.984375 27.203125 -0.984375 
Q 21.1875 -0.984375 17.421875 1.5625 
Q 13.671875 4.109375 12.109375 8.6875 
L 11.96875 8.6875 
Q 11.625 6.890625 10.796875 3.515625 
Q 9.96875 0.140625 9.859375 0 
L 1.421875 0 
Q 1.65625 0.734375 2.359375 4 
Q 3.078125 7.28125 3.8125 10.890625 
L 15.765625 72.46875 
L 24.5625 72.46875 
L 20.515625 51.8125 
Q 20.125 49.5625 18.84375 44.96875 
L 19.046875 44.96875 
Q 22.609375 49.609375 26.5625 51.703125 
Q 30.515625 53.8125 36.328125 53.8125 
z
M 33.796875 47.015625 
Q 28.953125 47.015625 25.515625 45.03125 
Q 22.078125 43.0625 19.671875 39.078125 
Q 17.28125 35.109375 15.90625 29.125 
Q 14.546875 23.140625 14.546875 18.40625 
Q 14.546875 12.3125 17.640625 8.90625 
Q 20.75 5.515625 26.265625 5.515625 
Q 32.328125 5.515625 35.84375 9.203125 
Q 39.359375 12.890625 41.359375 20.921875 
Q 43.359375 28.953125 43.359375 34.96875 
Q 43.359375 40.96875 41.0625 43.984375 
Q 38.765625 47.015625 33.796875 47.015625 
z
" id="LiberationSans-Italic-62"/>
    <path d="M 45.265625 -0.484375 
Q 40.71875 -0.484375 38.640625 1.390625 
Q 36.578125 3.265625 36.578125 6.984375 
L 36.8125 10.109375 
L 36.53125 10.109375 
Q 32.46875 3.953125 28.125 1.484375 
Q 23.78125 -0.984375 17.625 -0.984375 
Q 10.796875 -0.984375 6.515625 3.125 
Q 2.25 7.234375 2.25 13.578125 
Q 2.25 22.609375 8.71875 27.25 
Q 15.1875 31.890625 29.34375 32.078125 
L 40.671875 32.234375 
Q 41.609375 37.015625 41.609375 38.421875 
Q 41.609375 42.875 39.015625 45 
Q 36.421875 47.125 31.84375 47.125 
Q 26.03125 47.125 23.046875 45.046875 
Q 20.0625 42.96875 18.75 38.71875 
L 10.0625 40.140625 
Q 12.25 47.3125 17.6875 50.5625 
Q 23.140625 53.8125 32.328125 53.8125 
Q 40.671875 53.8125 45.53125 49.90625 
Q 50.390625 46 50.390625 39.40625 
Q 50.390625 36.28125 49.46875 31.734375 
L 45.84375 13.28125 
Q 45.3125 10.9375 45.3125 8.984375 
Q 45.3125 5.421875 49.265625 5.421875 
Q 50.59375 5.421875 52.203125 5.765625 
L 51.515625 0.296875 
Q 48.296875 -0.484375 45.265625 -0.484375 
z
M 39.5 26.171875 
L 29.78125 25.984375 
Q 23.96875 25.828125 20.640625 24.921875 
Q 17.328125 24.03125 15.5 22.625 
Q 13.671875 21.234375 12.625 19.109375 
Q 11.578125 17 11.578125 13.96875 
Q 11.578125 10.296875 13.9375 8 
Q 16.3125 5.71875 20.0625 5.71875 
Q 24.8125 5.71875 28.609375 7.734375 
Q 32.421875 9.765625 34.90625 13.03125 
Q 37.40625 16.3125 38.1875 20.0625 
z
" id="LiberationSans-Italic-61"/>
    <path d="M 13.421875 -0.984375 
Q 9.28125 -0.984375 6.90625 1.5 
Q 4.546875 4 4.546875 8.109375 
Q 4.546875 10.796875 5.28125 14.453125 
L 11.421875 46.4375 
L 5.328125 46.4375 
L 6.59375 52.828125 
L 12.796875 52.828125 
L 17.921875 64.65625 
L 23.78125 64.65625 
L 21.484375 52.828125 
L 31.25 52.828125 
L 29.984375 46.4375 
L 20.21875 46.4375 
L 14.109375 14.9375 
Q 13.53125 12.015625 13.53125 10.296875 
Q 13.53125 6 17.921875 6 
Q 19.96875 6 22.796875 6.6875 
L 21.875 0.203125 
Q 17.046875 -0.984375 13.421875 -0.984375 
z
" id="LiberationSans-Italic-74"/>
    <path d="M 35.0625 45.796875 
Q 32.90625 46.4375 30.671875 46.4375 
Q 25.53125 46.4375 21.40625 41.0625 
Q 17.28125 35.6875 15.828125 27.546875 
L 10.453125 0 
L 1.65625 0 
L 9.578125 40.53125 
L 10.796875 47.265625 
L 11.671875 52.828125 
L 19.96875 52.828125 
L 18.265625 42.046875 
L 18.453125 42.046875 
Q 21.6875 48.53125 24.8125 51.171875 
Q 27.9375 53.8125 32.03125 53.8125 
Q 34.28125 53.8125 36.671875 53.125 
z
" id="LiberationSans-Italic-72"/>
    <path d="M 14.015625 64.0625 
L 15.671875 72.46875 
L 24.46875 72.46875 
L 22.796875 64.0625 
z
M 1.609375 0 
L 11.859375 52.828125 
L 20.65625 52.828125 
L 10.359375 0 
z
" id="LiberationSans-Italic-69"/>
    <path d="M 27.046875 -0.984375 
Q 21.046875 -0.984375 17.265625 1.5625 
Q 13.484375 4.109375 11.921875 8.6875 
L 11.671875 8.6875 
Q 11.671875 8.15625 11.25 5.515625 
Q 10.84375 2.875 6.25 -20.75 
L -2.484375 -20.75 
L 9.671875 42.046875 
Q 10.796875 47.46875 11.375 52.828125 
L 19.53125 52.828125 
Q 19.53125 51.515625 19.203125 48.796875 
Q 18.890625 46.09375 18.703125 44.96875 
L 18.890625 44.96875 
Q 22.46875 49.609375 26.421875 51.703125 
Q 30.375 53.8125 36.1875 53.8125 
Q 43.84375 53.8125 48.109375 49.1875 
Q 52.390625 44.578125 52.390625 36.53125 
Q 52.390625 26.609375 49.390625 17.3125 
Q 46.390625 8.015625 40.9375 3.515625 
Q 35.5 -0.984375 27.046875 -0.984375 
z
M 33.640625 47.015625 
Q 28.8125 47.015625 25.359375 45.03125 
Q 21.921875 43.0625 19.53125 39.078125 
Q 17.140625 35.109375 15.765625 29.125 
Q 14.40625 23.140625 14.40625 18.40625 
Q 14.40625 12.3125 17.5 8.90625 
Q 20.609375 5.515625 26.125 5.515625 
Q 32.171875 5.515625 35.6875 9.203125 
Q 39.203125 12.890625 41.203125 20.921875 
Q 43.21875 28.953125 43.21875 34.96875 
Q 43.21875 40.96875 40.921875 43.984375 
Q 38.625 47.015625 33.640625 47.015625 
z
" id="LiberationSans-Italic-70"/>
    <path d="M 24.75 0 
L 14.359375 0 
L 5.46875 52.828125 
L 14.59375 52.828125 
L 19.53125 18.453125 
Q 19.96875 15.140625 20.453125 9.46875 
L 20.65625 6.890625 
L 21.921875 9.46875 
Q 24.125 14.0625 26.46875 18.359375 
L 45.21875 52.828125 
L 54.78125 52.828125 
z
" id="LiberationSans-Italic-76"/>
    <path d="M 31.9375 -0.984375 
Q 20.5625 -0.984375 14.015625 4.90625 
Q 7.46875 10.796875 7.46875 21.046875 
Q 7.46875 23.1875 7.828125 26.1875 
Q 8.203125 29.203125 8.59375 31 
L 15.921875 68.796875 
L 25.25 68.796875 
L 17.328125 27.640625 
Q 16.5 23.390625 16.5 20.65625 
Q 16.5 14.015625 20.765625 10.296875 
Q 25.046875 6.59375 32.71875 6.59375 
Q 51.46875 6.59375 55.21875 26.421875 
L 63.421875 68.796875 
L 72.703125 68.796875 
L 64.40625 25.875 
Q 61.765625 12.546875 53.5625 5.78125 
Q 45.359375 -0.984375 31.9375 -0.984375 
z
" id="LiberationSans-Italic-55"/>
    <path d="M 51.8125 0 
L 48.140625 20.125 
L 16.9375 20.125 
L 5.21875 0 
L -4.9375 0 
L 36.46875 68.796875 
L 47.078125 68.796875 
L 61.328125 0 
z
M 40.53125 61.765625 
Q 39.890625 60.5 38.71875 58.390625 
Q 37.546875 56.296875 21.046875 27.390625 
L 46.78125 27.390625 
L 41.796875 54.390625 
z
" id="LiberationSans-Italic-41"/>
    <path d="M 33.0625 0 
L 23.390625 0 
L 8.640625 68.796875 
L 18.109375 68.796875 
L 27.78125 20.359375 
L 29.5 8.203125 
L 35.984375 20.359375 
L 64.3125 68.796875 
L 74.46875 68.796875 
z
" id="LiberationSans-Italic-56"/>
    <path d="M 16.75 68.796875 
L 55.859375 68.796875 
L 54.4375 61.328125 
L 23.34375 61.328125 
L 17.78125 39.5 
Q 20.21875 41.546875 23.734375 42.71875 
Q 27.25 43.890625 31.296875 43.890625 
Q 40.28125 43.890625 45.796875 38.6875 
Q 51.3125 33.5 51.3125 24.703125 
Q 51.3125 12.703125 44.28125 5.859375 
Q 37.25 -0.984375 24.65625 -0.984375 
Q 6.546875 -0.984375 2.25 15.09375 
L 10.203125 17.1875 
Q 11.71875 11.625 15.578125 8.90625 
Q 19.4375 6.203125 25.140625 6.203125 
Q 33.25 6.203125 37.640625 10.765625 
Q 42.046875 15.328125 42.046875 23.734375 
Q 42.046875 29.6875 38.671875 33.203125 
Q 35.296875 36.71875 29.640625 36.71875 
Q 21.6875 36.71875 15.875 31.78125 
L 7.28125 31.78125 
z
" id="LiberationSans-Italic-35"/>
   </defs>
   <g transform="translate(97.455703 16.332937)scale(0.13 -0.13)">
    <use xlink:href="#LiberationSans-Italic-43"/>
    <use x="72.216797" xlink:href="#LiberationSans-Italic-6f"/>
    <use x="127.832031" xlink:href="#LiberationSans-Italic-6e"/>
    <use x="183.447266" xlink:href="#LiberationSans-Italic-73"/>
    <use x="233.447266" xlink:href="#LiberationSans-Italic-75"/>
    <use x="289.0625" xlink:href="#LiberationSans-Italic-6d"/>
    <use x="372.363281" xlink:href="#LiberationSans-Italic-6f"/>
    <use x="427.978516" xlink:href="#LiberationSans-Italic-20"/>
    <use x="455.761719" xlink:href="#LiberationSans-Italic-64"/>
    <use x="511.376953" xlink:href="#LiberationSans-Italic-65"/>
    <use x="566.992188" xlink:href="#LiberationSans-Italic-20"/>
    <use x="594.775391" xlink:href="#LiberationSans-Italic-62"/>
    <use x="650.390625" xlink:href="#LiberationSans-Italic-61"/>
    <use x="706.005859" xlink:href="#LiberationSans-Italic-74"/>
    <use x="733.789062" xlink:href="#LiberationSans-Italic-65"/>
    <use x="789.404297" xlink:href="#LiberationSans-Italic-72"/>
    <use x="822.705078" xlink:href="#LiberationSans-Italic-69"/>
    <use x="844.921875" xlink:href="#LiberationSans-Italic-61"/>
    <use x="900.537109" xlink:href="#LiberationSans-Italic-20"/>
    <use x="928.320312" xlink:href="#LiberationSans-Italic-70"/>
    <use x="983.935547" xlink:href="#LiberationSans-Italic-6f"/>
    <use x="1039.550781" xlink:href="#LiberationSans-Italic-72"/>
    <use x="1072.851562" xlink:href="#LiberationSans-Italic-20"/>
    <use x="1100.634766" xlink:href="#LiberationSans-Italic-6d"/>
    <use x="1183.935547" xlink:href="#LiberationSans-Italic-6f"/>
    <use x="1239.550781" xlink:href="#LiberationSans-Italic-76"/>
    <use x="1289.550781" xlink:href="#LiberationSans-Italic-69"/>
    <use x="1311.767578" xlink:href="#LiberationSans-Italic-6d"/>
    <use x="1395.068359" xlink:href="#LiberationSans-Italic-65"/>
    <use x="1450.683594" xlink:href="#LiberationSans-Italic-6e"/>
    <use x="1506.298828" xlink:href="#LiberationSans-Italic-74"/>
    <use x="1534.082031" xlink:href="#LiberationSans-Italic-6f"/>
    <use x="1589.697266" xlink:href="#LiberationSans-Italic-20"/>
    <use x="1617.480469" xlink:href="#LiberationSans-Italic-64"/>
    <use x="1673.095703" xlink:href="#LiberationSans-Italic-6f"/>
    <use x="1728.710938" xlink:href="#LiberationSans-Italic-20"/>
    <use x="1756.494141" xlink:href="#LiberationSans-Italic-55"/>
    <use x="1828.710938" xlink:href="#LiberationSans-Italic-41"/>
    <use x="1895.332031" xlink:href="#LiberationSans-Italic-56"/>
    <use x="1962.03125" xlink:href="#LiberationSans-Italic-20"/>
    <use x="1989.814453" xlink:href="#LiberationSans-Italic-35"/>
   </g>
  </g>
 </g>
 <defs>
  <clipPath id="pce8de5fcde">
   <rect height="266.112" width="357.12" x="57.6" y="41.472"/>
  </clipPath>
 </defs>
</svg>
