<?xml version="1.0" encoding="utf-8" standalone="no"?>
<!DOCTYPE svg PUBLIC "-//W3C//DTD SVG 1.1//EN"
  "http://www.w3.org/Graphics/SVG/1.1/DTD/svg11.dtd">
<!-- Created with matplotlib (http://matplotlib.org/) -->
<svg height="345.6pt" version="1.1" viewBox="0 0 460.8 345.6" width="460.8pt" xmlns="http://www.w3.org/2000/svg" xmlns:xlink="http://www.w3.org/1999/xlink">
 <defs>
  <style type="text/css">
*{stroke-linecap:butt;stroke-linejoin:round;}
  </style>
 </defs>
 <g id="figure_1">
  <g id="patch_1">
   <path d="M 0 345.6 
L 460.8 345.6 
L 460.8 0 
L 0 0 
z
" style="fill:#ffffff;"/>
  </g>
  <g id="axes_1">
   <g id="patch_2">
    <path d="M 57.6 307.584 
L 414.72 307.584 
L 414.72 41.472 
L 57.6 41.472 
z
" style="fill:#eaeaf2;"/>
   </g>
   <g id="matplotlib.axis_1">
    <g id="xtick_1">
     <g id="line2d_1">
      <path clip-path="url(#p7b7f943a0e)" d="M 57.597536 307.584 
L 57.597536 41.472 
" style="fill:none;stroke:#ffffff;stroke-linecap:round;stroke-width:0.8;"/>
     </g>
     <g id="line2d_2"/>
     <g id="text_1">
      <!-- 0 -->
      <defs>
       <path d="M 51.703125 34.421875 
Q 51.703125 17.1875 45.625 8.09375 
Q 39.546875 -0.984375 27.6875 -0.984375 
Q 15.828125 -0.984375 9.859375 8.046875 
Q 3.90625 17.09375 3.90625 34.421875 
Q 3.90625 52.15625 9.6875 60.984375 
Q 15.484375 69.828125 27.984375 69.828125 
Q 40.140625 69.828125 45.921875 60.890625 
Q 51.703125 51.953125 51.703125 34.421875 
z
M 42.78125 34.421875 
Q 42.78125 49.3125 39.328125 56 
Q 35.890625 62.703125 27.984375 62.703125 
Q 19.875 62.703125 16.328125 56.109375 
Q 12.796875 49.515625 12.796875 34.421875 
Q 12.796875 19.78125 16.375 12.984375 
Q 19.96875 6.203125 27.78125 6.203125 
Q 35.546875 6.203125 39.15625 13.125 
Q 42.78125 20.0625 42.78125 34.421875 
z
" id="LiberationSans-30"/>
      </defs>
      <g style="fill:#262626;" transform="translate(54.817067 318.330875)scale(0.1 -0.1)">
       <use xlink:href="#LiberationSans-30"/>
      </g>
     </g>
    </g>
    <g id="xtick_2">
     <g id="line2d_3">
      <path clip-path="url(#p7b7f943a0e)" d="M 129.749683 307.584 
L 129.749683 41.472 
" style="fill:none;stroke:#ffffff;stroke-linecap:round;stroke-width:0.8;"/>
     </g>
     <g id="line2d_4"/>
     <g id="text_2">
      <!-- 200 -->
      <defs>
       <path d="M 5.03125 0 
L 5.03125 6.203125 
Q 7.515625 11.921875 11.109375 16.28125 
Q 14.703125 20.65625 18.65625 24.1875 
Q 22.609375 27.734375 26.484375 30.765625 
Q 30.375 33.796875 33.5 36.8125 
Q 36.625 39.84375 38.546875 43.15625 
Q 40.484375 46.484375 40.484375 50.6875 
Q 40.484375 56.34375 37.15625 59.46875 
Q 33.84375 62.59375 27.9375 62.59375 
Q 22.3125 62.59375 18.671875 59.546875 
Q 15.046875 56.5 14.40625 50.984375 
L 5.421875 51.8125 
Q 6.390625 60.0625 12.421875 64.9375 
Q 18.453125 69.828125 27.9375 69.828125 
Q 38.328125 69.828125 43.921875 64.921875 
Q 49.515625 60.015625 49.515625 50.984375 
Q 49.515625 46.96875 47.671875 43.015625 
Q 45.84375 39.0625 42.234375 35.109375 
Q 38.625 31.15625 28.421875 22.859375 
Q 22.796875 18.265625 19.46875 14.578125 
Q 16.15625 10.890625 14.703125 7.46875 
L 50.59375 7.46875 
L 50.59375 0 
z
" id="LiberationSans-32"/>
      </defs>
      <g style="fill:#262626;" transform="translate(121.408277 318.330875)scale(0.1 -0.1)">
       <use xlink:href="#LiberationSans-32"/>
       <use x="55.615234" xlink:href="#LiberationSans-30"/>
       <use x="111.230469" xlink:href="#LiberationSans-30"/>
      </g>
     </g>
    </g>
    <g id="xtick_3">
     <g id="line2d_5">
      <path clip-path="url(#p7b7f943a0e)" d="M 201.901831 307.584 
L 201.901831 41.472 
" style="fill:none;stroke:#ffffff;stroke-linecap:round;stroke-width:0.8;"/>
     </g>
     <g id="line2d_6"/>
     <g id="text_3">
      <!-- 400 -->
      <defs>
       <path d="M 43.015625 15.578125 
L 43.015625 0 
L 34.71875 0 
L 34.71875 15.578125 
L 2.296875 15.578125 
L 2.296875 22.40625 
L 33.796875 68.796875 
L 43.015625 68.796875 
L 43.015625 22.515625 
L 52.6875 22.515625 
L 52.6875 15.578125 
z
M 34.71875 58.890625 
Q 34.625 58.59375 33.34375 56.296875 
Q 32.078125 54 31.453125 53.078125 
L 13.8125 27.09375 
L 11.1875 23.484375 
L 10.40625 22.515625 
L 34.71875 22.515625 
z
" id="LiberationSans-34"/>
      </defs>
      <g style="fill:#262626;" transform="translate(193.560424 318.330875)scale(0.1 -0.1)">
       <use xlink:href="#LiberationSans-34"/>
       <use x="55.615234" xlink:href="#LiberationSans-30"/>
       <use x="111.230469" xlink:href="#LiberationSans-30"/>
      </g>
     </g>
    </g>
    <g id="xtick_4">
     <g id="line2d_7">
      <path clip-path="url(#p7b7f943a0e)" d="M 274.053978 307.584 
L 274.053978 41.472 
" style="fill:none;stroke:#ffffff;stroke-linecap:round;stroke-width:0.8;"/>
     </g>
     <g id="line2d_8"/>
     <g id="text_4">
      <!-- 600 -->
      <defs>
       <path d="M 51.21875 22.515625 
Q 51.21875 11.625 45.3125 5.3125 
Q 39.40625 -0.984375 29 -0.984375 
Q 17.390625 -0.984375 11.234375 7.65625 
Q 5.078125 16.3125 5.078125 32.8125 
Q 5.078125 50.6875 11.46875 60.25 
Q 17.875 69.828125 29.6875 69.828125 
Q 45.265625 69.828125 49.3125 55.8125 
L 40.921875 54.296875 
Q 38.328125 62.703125 29.59375 62.703125 
Q 22.078125 62.703125 17.9375 55.6875 
Q 13.8125 48.6875 13.8125 35.40625 
Q 16.21875 39.84375 20.5625 42.15625 
Q 24.90625 44.484375 30.515625 44.484375 
Q 40.046875 44.484375 45.625 38.515625 
Q 51.21875 32.5625 51.21875 22.515625 
z
M 42.28125 22.125 
Q 42.28125 29.59375 38.625 33.640625 
Q 34.96875 37.703125 28.421875 37.703125 
Q 22.265625 37.703125 18.484375 34.109375 
Q 14.703125 30.515625 14.703125 24.21875 
Q 14.703125 16.265625 18.625 11.1875 
Q 22.5625 6.109375 28.71875 6.109375 
Q 35.0625 6.109375 38.671875 10.375 
Q 42.28125 14.65625 42.28125 22.125 
z
" id="LiberationSans-36"/>
      </defs>
      <g style="fill:#262626;" transform="translate(265.712571 318.330875)scale(0.1 -0.1)">
       <use xlink:href="#LiberationSans-36"/>
       <use x="55.615234" xlink:href="#LiberationSans-30"/>
       <use x="111.230469" xlink:href="#LiberationSans-30"/>
      </g>
     </g>
    </g>
    <g id="xtick_5">
     <g id="line2d_9">
      <path clip-path="url(#p7b7f943a0e)" d="M 346.206125 307.584 
L 346.206125 41.472 
" style="fill:none;stroke:#ffffff;stroke-linecap:round;stroke-width:0.8;"/>
     </g>
     <g id="line2d_10"/>
     <g id="text_5">
      <!-- 800 -->
      <defs>
       <path d="M 51.265625 19.1875 
Q 51.265625 9.671875 45.203125 4.34375 
Q 39.15625 -0.984375 27.828125 -0.984375 
Q 16.796875 -0.984375 10.5625 4.234375 
Q 4.34375 9.46875 4.34375 19.09375 
Q 4.34375 25.828125 8.203125 30.421875 
Q 12.0625 35.015625 18.0625 35.984375 
L 18.0625 36.1875 
Q 12.453125 37.5 9.203125 41.890625 
Q 5.953125 46.296875 5.953125 52.203125 
Q 5.953125 60.0625 11.828125 64.9375 
Q 17.71875 69.828125 27.640625 69.828125 
Q 37.796875 69.828125 43.671875 65.03125 
Q 49.5625 60.25 49.5625 52.09375 
Q 49.5625 46.1875 46.28125 41.796875 
Q 43.015625 37.40625 37.359375 36.28125 
L 37.359375 36.078125 
Q 43.953125 35.015625 47.609375 30.5 
Q 51.265625 25.984375 51.265625 19.1875 
z
M 40.4375 51.609375 
Q 40.4375 63.28125 27.640625 63.28125 
Q 21.4375 63.28125 18.1875 60.34375 
Q 14.9375 57.421875 14.9375 51.609375 
Q 14.9375 45.703125 18.28125 42.59375 
Q 21.625 39.5 27.734375 39.5 
Q 33.9375 39.5 37.1875 42.359375 
Q 40.4375 45.21875 40.4375 51.609375 
z
M 42.140625 20.015625 
Q 42.140625 26.421875 38.328125 29.65625 
Q 34.515625 32.90625 27.640625 32.90625 
Q 20.953125 32.90625 17.1875 29.40625 
Q 13.421875 25.921875 13.421875 19.828125 
Q 13.421875 5.609375 27.9375 5.609375 
Q 35.109375 5.609375 38.625 9.046875 
Q 42.140625 12.5 42.140625 20.015625 
z
" id="LiberationSans-38"/>
      </defs>
      <g style="fill:#262626;" transform="translate(337.864719 318.330875)scale(0.1 -0.1)">
       <use xlink:href="#LiberationSans-38"/>
       <use x="55.615234" xlink:href="#LiberationSans-30"/>
       <use x="111.230469" xlink:href="#LiberationSans-30"/>
      </g>
     </g>
    </g>
    <g id="text_6">
     <!-- Time (s) -->
     <defs>
      <path d="M 35.15625 61.1875 
L 35.15625 0 
L 25.875 0 
L 25.875 61.1875 
L 2.25 61.1875 
L 2.25 68.796875 
L 58.796875 68.796875 
L 58.796875 61.1875 
z
" id="LiberationSans-54"/>
      <path d="M 6.6875 64.0625 
L 6.6875 72.46875 
L 15.484375 72.46875 
L 15.484375 64.0625 
z
M 6.6875 0 
L 6.6875 52.828125 
L 15.484375 52.828125 
L 15.484375 0 
z
" id="LiberationSans-69"/>
      <path d="M 37.5 0 
L 37.5 33.5 
Q 37.5 41.15625 35.390625 44.078125 
Q 33.296875 47.015625 27.828125 47.015625 
Q 22.21875 47.015625 18.9375 42.71875 
Q 15.671875 38.421875 15.671875 30.609375 
L 15.671875 0 
L 6.9375 0 
L 6.9375 41.546875 
Q 6.9375 50.78125 6.640625 52.828125 
L 14.9375 52.828125 
Q 14.984375 52.59375 15.03125 51.515625 
Q 15.09375 50.4375 15.15625 49.046875 
Q 15.234375 47.65625 15.328125 43.796875 
L 15.484375 43.796875 
Q 18.3125 49.421875 21.96875 51.609375 
Q 25.640625 53.8125 30.90625 53.8125 
Q 36.921875 53.8125 40.40625 51.421875 
Q 43.890625 49.03125 45.265625 43.796875 
L 45.40625 43.796875 
Q 48.140625 49.125 52.015625 51.46875 
Q 55.90625 53.8125 61.421875 53.8125 
Q 69.4375 53.8125 73.0625 49.46875 
Q 76.703125 45.125 76.703125 35.203125 
L 76.703125 0 
L 68.015625 0 
L 68.015625 33.5 
Q 68.015625 41.15625 65.90625 44.078125 
Q 63.8125 47.015625 58.34375 47.015625 
Q 52.59375 47.015625 49.390625 42.75 
Q 46.1875 38.484375 46.1875 30.609375 
L 46.1875 0 
z
" id="LiberationSans-6d"/>
      <path d="M 13.484375 24.5625 
Q 13.484375 15.484375 17.234375 10.546875 
Q 21 5.609375 28.21875 5.609375 
Q 33.9375 5.609375 37.375 7.90625 
Q 40.828125 10.203125 42.046875 13.71875 
L 49.75 11.53125 
Q 45.015625 -0.984375 28.21875 -0.984375 
Q 16.5 -0.984375 10.375 6 
Q 4.25 12.984375 4.25 26.765625 
Q 4.25 39.84375 10.375 46.828125 
Q 16.5 53.8125 27.875 53.8125 
Q 51.171875 53.8125 51.171875 25.734375 
L 51.171875 24.5625 
z
M 42.09375 31.296875 
Q 41.359375 39.65625 37.84375 43.484375 
Q 34.328125 47.3125 27.734375 47.3125 
Q 21.34375 47.3125 17.609375 43.03125 
Q 13.875 38.765625 13.578125 31.296875 
z
" id="LiberationSans-65"/>
      <path id="LiberationSans-20"/>
      <path d="M 6.203125 25.984375 
Q 6.203125 40.09375 10.625 51.3125 
Q 15.046875 62.546875 24.21875 72.46875 
L 32.71875 72.46875 
Q 23.578125 62.3125 19.3125 50.875 
Q 15.046875 39.453125 15.046875 25.875 
Q 15.046875 12.359375 19.265625 0.96875 
Q 23.484375 -10.40625 32.71875 -20.703125 
L 24.21875 -20.703125 
Q 14.984375 -10.75 10.59375 0.5 
Q 6.203125 11.765625 6.203125 25.78125 
z
" id="LiberationSans-28"/>
      <path d="M 46.390625 14.59375 
Q 46.390625 7.125 40.75 3.0625 
Q 35.109375 -0.984375 24.953125 -0.984375 
Q 15.09375 -0.984375 9.734375 2.265625 
Q 4.390625 5.515625 2.78125 12.40625 
L 10.546875 13.921875 
Q 11.671875 9.671875 15.1875 7.6875 
Q 18.703125 5.71875 24.953125 5.71875 
Q 31.640625 5.71875 34.734375 7.765625 
Q 37.84375 9.8125 37.84375 13.921875 
Q 37.84375 17.046875 35.6875 19 
Q 33.546875 20.953125 28.765625 22.21875 
L 22.46875 23.875 
Q 14.890625 25.828125 11.6875 27.703125 
Q 8.5 29.59375 6.6875 32.28125 
Q 4.890625 34.96875 4.890625 38.875 
Q 4.890625 46.09375 10.03125 49.875 
Q 15.1875 53.65625 25.046875 53.65625 
Q 33.796875 53.65625 38.9375 50.578125 
Q 44.09375 47.515625 45.453125 40.71875 
L 37.546875 39.75 
Q 36.8125 43.265625 33.609375 45.140625 
Q 30.421875 47.015625 25.046875 47.015625 
Q 19.09375 47.015625 16.25 45.203125 
Q 13.421875 43.40625 13.421875 39.75 
Q 13.421875 37.5 14.59375 36.03125 
Q 15.765625 34.578125 18.0625 33.546875 
Q 20.359375 32.515625 27.734375 30.71875 
Q 34.71875 28.953125 37.796875 27.46875 
Q 40.875 25.984375 42.65625 24.171875 
Q 44.4375 22.359375 45.40625 19.984375 
Q 46.390625 17.625 46.390625 14.59375 
z
" id="LiberationSans-73"/>
      <path d="M 27.09375 25.78125 
Q 27.09375 11.671875 22.671875 0.4375 
Q 18.265625 -10.796875 9.078125 -20.703125 
L 0.59375 -20.703125 
Q 9.765625 -10.453125 14.015625 0.890625 
Q 18.265625 12.25 18.265625 25.875 
Q 18.265625 39.5 13.984375 50.875 
Q 9.71875 62.25 0.59375 72.46875 
L 9.078125 72.46875 
Q 18.3125 62.5 22.703125 51.234375 
Q 27.09375 39.984375 27.09375 25.984375 
z
" id="LiberationSans-29"/>
     </defs>
     <g style="fill:#262626;" transform="translate(217.833438 331.65275)scale(0.1 -0.1)">
      <use xlink:href="#LiberationSans-54"/>
      <use x="61.037109" xlink:href="#LiberationSans-69"/>
      <use x="83.253906" xlink:href="#LiberationSans-6d"/>
      <use x="166.554688" xlink:href="#LiberationSans-65"/>
      <use x="222.169922" xlink:href="#LiberationSans-20"/>
      <use x="249.953125" xlink:href="#LiberationSans-28"/>
      <use x="283.253906" xlink:href="#LiberationSans-73"/>
      <use x="333.253906" xlink:href="#LiberationSans-29"/>
     </g>
    </g>
   </g>
   <g id="matplotlib.axis_2">
    <g id="ytick_1">
     <g id="line2d_11">
      <path clip-path="url(#p7b7f943a0e)" d="M 57.6 307.584 
L 414.72 307.584 
" style="fill:none;stroke:#ffffff;stroke-linecap:round;stroke-width:0.8;"/>
     </g>
     <g id="line2d_12"/>
     <g id="text_7">
      <!-- 0.0 -->
      <defs>
       <path d="M 9.125 0 
L 9.125 10.6875 
L 18.65625 10.6875 
L 18.65625 0 
z
" id="LiberationSans-2e"/>
      </defs>
      <g style="fill:#262626;" transform="translate(40.2 311.207437)scale(0.1 -0.1)">
       <use xlink:href="#LiberationSans-30"/>
       <use x="55.615234" xlink:href="#LiberationSans-2e"/>
       <use x="83.398438" xlink:href="#LiberationSans-30"/>
      </g>
     </g>
    </g>
    <g id="ytick_2">
     <g id="line2d_13">
      <path clip-path="url(#p7b7f943a0e)" d="M 57.6 254.361387 
L 414.72 254.361387 
" style="fill:none;stroke:#ffffff;stroke-linecap:round;stroke-width:0.8;"/>
     </g>
     <g id="line2d_14"/>
     <g id="text_8">
      <!-- 0.2 -->
      <g style="fill:#262626;" transform="translate(40.2 257.984825)scale(0.1 -0.1)">
       <use xlink:href="#LiberationSans-30"/>
       <use x="55.615234" xlink:href="#LiberationSans-2e"/>
       <use x="83.398438" xlink:href="#LiberationSans-32"/>
      </g>
     </g>
    </g>
    <g id="ytick_3">
     <g id="line2d_15">
      <path clip-path="url(#p7b7f943a0e)" d="M 57.6 201.138774 
L 414.72 201.138774 
" style="fill:none;stroke:#ffffff;stroke-linecap:round;stroke-width:0.8;"/>
     </g>
     <g id="line2d_16"/>
     <g id="text_9">
      <!-- 0.4 -->
      <g style="fill:#262626;" transform="translate(40.2 204.762212)scale(0.1 -0.1)">
       <use xlink:href="#LiberationSans-30"/>
       <use x="55.615234" xlink:href="#LiberationSans-2e"/>
       <use x="83.398438" xlink:href="#LiberationSans-34"/>
      </g>
     </g>
    </g>
    <g id="ytick_4">
     <g id="line2d_17">
      <path clip-path="url(#p7b7f943a0e)" d="M 57.6 147.916161 
L 414.72 147.916161 
" style="fill:none;stroke:#ffffff;stroke-linecap:round;stroke-width:0.8;"/>
     </g>
     <g id="line2d_18"/>
     <g id="text_10">
      <!-- 0.6 -->
      <g style="fill:#262626;" transform="translate(40.2 151.539599)scale(0.1 -0.1)">
       <use xlink:href="#LiberationSans-30"/>
       <use x="55.615234" xlink:href="#LiberationSans-2e"/>
       <use x="83.398438" xlink:href="#LiberationSans-36"/>
      </g>
     </g>
    </g>
    <g id="ytick_5">
     <g id="line2d_19">
      <path clip-path="url(#p7b7f943a0e)" d="M 57.6 94.693548 
L 414.72 94.693548 
" style="fill:none;stroke:#ffffff;stroke-linecap:round;stroke-width:0.8;"/>
     </g>
     <g id="line2d_20"/>
     <g id="text_11">
      <!-- 0.8 -->
      <g style="fill:#262626;" transform="translate(40.2 98.316986)scale(0.1 -0.1)">
       <use xlink:href="#LiberationSans-30"/>
       <use x="55.615234" xlink:href="#LiberationSans-2e"/>
       <use x="83.398438" xlink:href="#LiberationSans-38"/>
      </g>
     </g>
    </g>
    <g id="ytick_6">
     <g id="line2d_21">
      <path clip-path="url(#p7b7f943a0e)" d="M 57.6 41.470936 
L 414.72 41.470936 
" style="fill:none;stroke:#ffffff;stroke-linecap:round;stroke-width:0.8;"/>
     </g>
     <g id="line2d_22"/>
     <g id="text_12">
      <!-- 1.0 -->
      <defs>
       <path d="M 7.625 0 
L 7.625 7.46875 
L 25.140625 7.46875 
L 25.140625 60.40625 
L 9.625 49.3125 
L 9.625 57.625 
L 25.875 68.796875 
L 33.984375 68.796875 
L 33.984375 7.46875 
L 50.734375 7.46875 
L 50.734375 0 
z
" id="LiberationSans-31"/>
      </defs>
      <g style="fill:#262626;" transform="translate(40.2 45.094373)scale(0.1 -0.1)">
       <use xlink:href="#LiberationSans-31"/>
       <use x="55.615234" xlink:href="#LiberationSans-2e"/>
       <use x="83.398438" xlink:href="#LiberationSans-30"/>
      </g>
     </g>
    </g>
    <g id="text_13">
     <!-- Battery (%) -->
     <defs>
      <path d="M 61.421875 19.390625 
Q 61.421875 10.203125 54.734375 5.09375 
Q 48.046875 0 36.140625 0 
L 8.203125 0 
L 8.203125 68.796875 
L 33.203125 68.796875 
Q 57.421875 68.796875 57.421875 52.09375 
Q 57.421875 46 54 41.84375 
Q 50.59375 37.703125 44.34375 36.28125 
Q 52.546875 35.296875 56.984375 30.78125 
Q 61.421875 26.265625 61.421875 19.390625 
z
M 48.046875 50.984375 
Q 48.046875 56.546875 44.234375 58.9375 
Q 40.4375 61.328125 33.203125 61.328125 
L 17.53125 61.328125 
L 17.53125 39.546875 
L 33.203125 39.546875 
Q 40.671875 39.546875 44.359375 42.359375 
Q 48.046875 45.171875 48.046875 50.984375 
z
M 52 20.125 
Q 52 32.28125 34.90625 32.28125 
L 17.53125 32.28125 
L 17.53125 7.46875 
L 35.640625 7.46875 
Q 44.1875 7.46875 48.09375 10.640625 
Q 52 13.8125 52 20.125 
z
" id="LiberationSans-42"/>
      <path d="M 20.21875 -0.984375 
Q 12.25 -0.984375 8.25 3.21875 
Q 4.25 7.421875 4.25 14.75 
Q 4.25 22.953125 9.640625 27.34375 
Q 15.046875 31.734375 27.046875 32.03125 
L 38.921875 32.234375 
L 38.921875 35.109375 
Q 38.921875 41.546875 36.1875 44.328125 
Q 33.453125 47.125 27.59375 47.125 
Q 21.6875 47.125 19 45.109375 
Q 16.3125 43.109375 15.765625 38.71875 
L 6.59375 39.546875 
Q 8.84375 53.8125 27.78125 53.8125 
Q 37.75 53.8125 42.765625 49.234375 
Q 47.796875 44.671875 47.796875 36.03125 
L 47.796875 13.28125 
Q 47.796875 9.375 48.828125 7.390625 
Q 49.859375 5.421875 52.734375 5.421875 
Q 54 5.421875 55.609375 5.765625 
L 55.609375 0.296875 
Q 52.296875 -0.484375 48.828125 -0.484375 
Q 43.953125 -0.484375 41.71875 2.078125 
Q 39.5 4.640625 39.203125 10.109375 
L 38.921875 10.109375 
Q 35.546875 4.046875 31.078125 1.53125 
Q 26.609375 -0.984375 20.21875 -0.984375 
z
M 22.21875 5.609375 
Q 27.046875 5.609375 30.8125 7.8125 
Q 34.578125 10.015625 36.75 13.84375 
Q 38.921875 17.671875 38.921875 21.734375 
L 38.921875 26.078125 
L 29.296875 25.875 
Q 23.09375 25.78125 19.890625 24.609375 
Q 16.703125 23.4375 14.984375 21 
Q 13.28125 18.5625 13.28125 14.59375 
Q 13.28125 10.296875 15.59375 7.953125 
Q 17.921875 5.609375 22.21875 5.609375 
z
" id="LiberationSans-61"/>
      <path d="M 27.046875 0.390625 
Q 22.703125 -0.78125 18.171875 -0.78125 
Q 7.625 -0.78125 7.625 11.1875 
L 7.625 46.4375 
L 1.515625 46.4375 
L 1.515625 52.828125 
L 7.953125 52.828125 
L 10.546875 64.65625 
L 16.40625 64.65625 
L 16.40625 52.828125 
L 26.171875 52.828125 
L 26.171875 46.4375 
L 16.40625 46.4375 
L 16.40625 13.09375 
Q 16.40625 9.28125 17.640625 7.734375 
Q 18.890625 6.203125 21.96875 6.203125 
Q 23.734375 6.203125 27.046875 6.890625 
z
" id="LiberationSans-74"/>
      <path d="M 6.9375 0 
L 6.9375 40.53125 
Q 6.9375 46.09375 6.640625 52.828125 
L 14.9375 52.828125 
Q 15.328125 43.84375 15.328125 42.046875 
L 15.53125 42.046875 
Q 17.625 48.828125 20.359375 51.3125 
Q 23.09375 53.8125 28.078125 53.8125 
Q 29.828125 53.8125 31.640625 53.328125 
L 31.640625 45.265625 
Q 29.890625 45.75 26.953125 45.75 
Q 21.484375 45.75 18.59375 41.03125 
Q 15.71875 36.328125 15.71875 27.546875 
L 15.71875 0 
z
" id="LiberationSans-72"/>
      <path d="M 9.328125 -20.75 
Q 5.71875 -20.75 3.265625 -20.21875 
L 3.265625 -13.625 
Q 5.125 -13.921875 7.375 -13.921875 
Q 15.578125 -13.921875 20.359375 -1.859375 
L 21.1875 0.25 
L 0.25 52.828125 
L 9.625 52.828125 
L 20.75 23.640625 
Q 21 22.953125 21.34375 22 
Q 21.6875 21.046875 23.53125 15.625 
Q 25.390625 10.203125 25.53125 9.578125 
L 28.953125 19.1875 
L 40.53125 52.828125 
L 49.8125 52.828125 
L 29.5 0 
Q 26.21875 -8.453125 23.390625 -12.578125 
Q 20.5625 -16.703125 17.109375 -18.71875 
Q 13.671875 -20.75 9.328125 -20.75 
z
" id="LiberationSans-79"/>
      <path d="M 85.359375 21.1875 
Q 85.359375 10.6875 81.390625 5.046875 
Q 77.4375 -0.59375 69.734375 -0.59375 
Q 62.109375 -0.59375 58.21875 4.90625 
Q 54.34375 10.40625 54.34375 21.1875 
Q 54.34375 32.328125 58.078125 37.765625 
Q 61.8125 43.21875 69.921875 43.21875 
Q 77.9375 43.21875 81.640625 37.625 
Q 85.359375 32.03125 85.359375 21.1875 
z
M 25.734375 0 
L 18.171875 0 
L 63.1875 68.796875 
L 70.84375 68.796875 
z
M 19.234375 69.390625 
Q 27 69.390625 30.75 63.921875 
Q 34.515625 58.453125 34.515625 47.609375 
Q 34.515625 37.015625 30.640625 31.296875 
Q 26.765625 25.59375 19.046875 25.59375 
Q 11.328125 25.59375 7.4375 31.25 
Q 3.5625 36.921875 3.5625 47.609375 
Q 3.5625 58.5 7.3125 63.9375 
Q 11.078125 69.390625 19.234375 69.390625 
z
M 78.125 21.1875 
Q 78.125 29.9375 76.234375 33.859375 
Q 74.359375 37.796875 69.921875 37.796875 
Q 65.484375 37.796875 63.5 33.9375 
Q 61.53125 30.078125 61.53125 21.1875 
Q 61.53125 12.84375 63.453125 8.8125 
Q 65.375 4.78125 69.828125 4.78125 
Q 74.125 4.78125 76.125 8.859375 
Q 78.125 12.9375 78.125 21.1875 
z
M 27.34375 47.609375 
Q 27.34375 56.203125 25.484375 60.15625 
Q 23.640625 64.109375 19.234375 64.109375 
Q 14.65625 64.109375 12.703125 60.21875 
Q 10.75 56.34375 10.75 47.609375 
Q 10.75 39.15625 12.703125 35.125 
Q 14.65625 31.109375 19.140625 31.109375 
Q 23.390625 31.109375 25.359375 35.203125 
Q 27.34375 39.3125 27.34375 47.609375 
z
" id="LiberationSans-25"/>
     </defs>
     <g style="fill:#262626;" transform="translate(34.125 199.531906)rotate(-90)scale(0.1 -0.1)">
      <use xlink:href="#LiberationSans-42"/>
      <use x="66.699219" xlink:href="#LiberationSans-61"/>
      <use x="122.314453" xlink:href="#LiberationSans-74"/>
      <use x="150.097656" xlink:href="#LiberationSans-74"/>
      <use x="177.880859" xlink:href="#LiberationSans-65"/>
      <use x="233.496094" xlink:href="#LiberationSans-72"/>
      <use x="266.796875" xlink:href="#LiberationSans-79"/>
      <use x="316.796875" xlink:href="#LiberationSans-20"/>
      <use x="344.580078" xlink:href="#LiberationSans-28"/>
      <use x="377.880859" xlink:href="#LiberationSans-25"/>
      <use x="466.796875" xlink:href="#LiberationSans-29"/>
     </g>
    </g>
   </g>
   <g id="line2d_23">
    <path clip-path="url(#p7b7f943a0e)" d="M 153.206346 41.474129 
L 153.314575 70.249733 
L 166.193733 76.114865 
L 166.301961 105.502263 
L 176.652187 110.248922 
L 176.760415 139.6459 
L 177.337632 139.908819 
L 177.44586 169.285839 
L 200.098748 179.600381 
L 200.206977 208.978997 
L 212.617146 214.629642 
L 212.725374 243.390876 
L 273.802167 271.201554 
L 296.494017 281.533873 
L 317.309911 291.012102 
L 317.345988 41.487435 
L 317.42283 70.269425 
L 323.447534 73.012785 
L 323.473148 75.222056 
L 323.473148 75.222056 
L 323.555762 104.251531 
L 337.372898 110.590345 
L 340.796518 112.149235 
L 340.904746 141.190154 
L 347.073754 143.998977 
L 347.218059 172.482123 
L 356.866244 177.011101 
L 357.283283 177.208291 
L 364.245965 180.437573 
L 364.245965 180.437573 
L 364.354194 208.91992 
L 364.669138 209.082781 
L 364.75103 237.597595 
L 381.598557 245.323921 
L 381.706785 245.554907 
L 387.69397 248.281236 
L 387.802198 276.807758 
L 387.913674 276.957846 
L 387.913674 276.957846 
L 388.018655 305.482678 
L 392.888925 307.584 
L 414.751025 307.584 
L 414.751025 307.584 
" style="fill:none;stroke:#808080;stroke-linecap:round;stroke-opacity:0.3;stroke-width:0.6;"/>
   </g>
   <g id="line2d_24">
    <path clip-path="url(#p7b7f943a0e)" d="M 153.204543 41.473331 
L 153.312771 70.26091 
L 157.389367 72.117314 
L 157.497595 101.082125 
L 176.650383 109.835914 
L 176.758611 138.803386 
L 181.015588 140.741753 
L 181.159892 169.514696 
L 203.815666 179.830569 
L 264.820307 207.608249 
L 287.476081 217.924122 
L 293.861546 220.831673 
L 293.897622 41.487435 
L 293.973382 70.257982 
L 299.565173 72.804152 
L 299.581047 74.063931 
L 299.581047 74.063931 
L 299.673401 103.546598 
L 317.348874 111.594921 
L 317.457102 141.084773 
L 317.74571 141.216233 
L 317.853939 170.745469 
L 340.795435 181.191471 
L 340.903664 210.725763 
L 349.129008 214.548478 
L 349.994834 214.942857 
L 350.103062 245.034923 
L 364.244162 251.473794 
L 364.265447 307.584 
L 364.35239 307.584 
L 414.751025 307.584 
L 414.751025 307.584 
" style="fill:none;stroke:#808080;stroke-linecap:round;stroke-opacity:0.3;stroke-width:0.6;"/>
   </g>
   <g id="line2d_25">
    <path clip-path="url(#p7b7f943a0e)" d="M 153.20815 41.475193 
L 153.316378 70.232702 
L 159.485387 73.041791 
L 159.593615 102.554262 
L 176.655794 110.36335 
L 176.764022 139.879547 
L 177.052631 140.011007 
L 177.160859 169.551686 
L 188.236214 174.594794 
L 188.34841 174.929032 
L 191.158376 176.248953 
L 195.667885 178.355504 
L 195.776113 178.491222 
L 200.101634 180.540292 
L 200.209863 210.091084 
L 202.518731 211.142497 
L 202.663036 211.371886 
L 205.819331 212.929712 
L 206.162415 213.09417 
L 207.280773 213.603244 
L 207.389001 243.727775 
L 223.549279 251.086068 
L 223.657507 281.222361 
L 226.11068 282.339397 
L 226.127635 283.183082 
L 226.127635 283.183082 
L 226.127635 307.584 
L 226.218908 307.584 
L 387.657894 307.584 
L 387.69397 41.487435 
L 387.769369 70.230839 
L 395.237116 73.631232 
L 395.381421 105.223642 
L 411.144861 112.401244 
L 411.253089 142.062206 
L 411.469546 142.160668 
L 411.577774 171.849838 
L 414.752468 173.295364 
L 414.752468 173.295364 
" style="fill:none;stroke:#808080;stroke-linecap:round;stroke-opacity:0.3;stroke-width:0.6;"/>
   </g>
   <g id="line2d_26">
    <path clip-path="url(#p7b7f943a0e)" d="M 153.204903 41.473597 
L 153.313132 70.21913 
L 164.785323 75.442929 
L 164.893551 103.338497 
L 176.65399 108.727021 
L 176.762219 136.627379 
L 178.998935 137.645794 
L 179.14324 165.674684 
L 200.099831 175.216967 
L 200.208059 203.245059 
L 205.43909 205.626771 
L 205.547318 234.188154 
L 223.547835 242.384436 
L 223.656064 270.949811 
L 229.283931 273.512214 
L 229.308824 273.874128 
L 229.392159 301.707798 
L 242.52385 307.584 
L 340.758638 307.584 
L 340.794714 41.487435 
L 340.872277 42.510639 
L 414.756076 76.322699 
L 414.756076 76.322699 
" style="fill:none;stroke:#808080;stroke-linecap:round;stroke-opacity:0.3;stroke-width:0.6;"/>
   </g>
   <g id="line2d_27">
    <path clip-path="url(#p7b7f943a0e)" d="M 57.600756 41.472532 
L 57.708984 70.228444 
L 64.127342 73.150898 
L 64.271646 102.214968 
L 81.047597 109.881419 
L 81.155826 138.945224 
L 87.505215 141.935802 
L 87.613443 171.22261 
L 91.870419 173.160977 
L 91.978648 173.453968 
L 106.300236 179.975068 
L 106.408464 209.276512 
L 107.310366 209.687124 
L 107.330568 210.254743 
L 107.418594 239.674873 
L 129.749683 249.843053 
L 129.749683 249.843053 
L 129.857912 279.272497 
L 130.14652 279.403957 
L 130.254748 307.584 
L 246.960846 307.584 
L 246.996923 41.487435 
L 247.072682 70.254257 
L 253.638528 73.244037 
L 253.663781 78.388003 
L 253.663781 78.388003 
L 253.746756 107.969397 
L 270.449978 115.650484 
L 270.449978 115.650484 
L 270.558206 145.243322 
L 271.35188 145.668038 
L 271.460108 175.194081 
L 291.049416 184.113659 
L 291.157644 184.421285 
L 293.897622 185.668823 
L 294.00585 215.195931 
L 303.962847 219.729699 
L 303.982688 219.915712 
L 304.071075 250.049557 
L 317.345627 256.093783 
L 317.453855 286.236649 
L 317.670311 286.335191 
L 317.691596 286.510453 
L 317.691596 286.510453 
L 317.691596 307.584 
L 317.77854 307.584 
L 414.751025 307.584 
L 414.751025 307.584 
" style="fill:none;stroke:#808080;stroke-linecap:round;stroke-opacity:0.3;stroke-width:0.6;"/>
   </g>
   <g id="line2d_28">
    <path clip-path="url(#p7b7f943a0e)" d="M 57.601333 41.472532 
L 57.709561 70.272086 
L 66.620198 74.330843 
L 66.728427 74.52617 
L 70.841099 76.482367 
L 70.949327 76.639906 
L 73.071683 77.704092 
L 73.186044 77.769822 
L 77.046184 79.609462 
L 77.154412 110.58316 
L 81.050628 112.357335 
L 81.050628 112.357335 
L 81.158856 174.233413 
L 103.814594 184.549286 
L 106.303843 185.682661 
L 106.412071 216.644916 
L 106.592452 216.726879 
L 106.603996 218.834495 
L 106.603996 218.834495 
L 106.70068 249.828949 
L 129.356454 260.144822 
L 129.753291 260.325513 
L 129.753291 260.325513 
L 129.861519 291.325024 
L 129.933671 291.357889 
L 130.0419 307.584 
L 246.961207 307.584 
L 246.997283 41.487435 
L 247.074486 70.241483 
L 252.810582 72.853383 
L 253.027038 104.730535 
L 270.451782 112.672945 
L 270.56001 141.701357 
L 270.632162 141.734355 
L 270.776466 170.773411 
L 293.899426 181.415804 
L 294.007654 210.454594 
L 294.332339 210.602287 
L 294.440567 239.629634 
L 317.34707 250.059936 
L 317.455298 279.094734 
L 327.736979 283.776275 
L 327.845207 307.584 
L 414.751386 307.584 
L 414.751386 307.584 
" style="fill:none;stroke:#808080;stroke-linecap:round;stroke-opacity:0.3;stroke-width:0.6;"/>
   </g>
   <g id="line2d_29">
    <path clip-path="url(#p7b7f943a0e)" d="M 57.6 41.472 
L 57.708228 70.228976 
L 65.247504 73.661835 
L 65.355732 103.255204 
L 81.048824 110.434136 
L 81.048824 110.434136 
L 81.157052 140.039481 
L 83.610225 141.156357 
L 83.718453 170.640088 
L 106.302039 180.923229 
L 106.302039 180.923229 
L 106.410268 210.416008 
L 109.909647 212.009493 
L 110.017875 212.838701 
L 111.718862 213.653806 
L 111.821679 243.069145 
L 129.751487 251.233228 
L 129.859715 280.65256 
L 132.601497 281.901109 
L 132.745801 282.50146 
L 134.188844 283.15852 
L 134.333149 307.584 
L 200.061951 307.584 
L 200.098027 41.487435 
L 200.17559 70.272353 
L 206.921816 73.344096 
L 207.102197 104.987334 
L 223.551082 112.477086 
L 223.659311 142.07152 
L 224.849821 142.613592 
L 224.958049 172.088009 
L 246.997644 182.123133 
L 247.105872 211.601808 
L 257.171097 216.184807 
L 257.279325 246.372141 
L 270.44637 252.450163 
L 270.554599 282.640504 
L 270.807131 282.755491 
L 270.915359 307.584 
L 411.107342 307.584 
L 411.143418 41.487435 
L 411.218817 70.267829 
L 414.754272 71.877547 
L 414.754272 71.877547 
" style="fill:none;stroke:#808080;stroke-linecap:round;stroke-opacity:0.3;stroke-width:0.6;"/>
   </g>
   <g id="line2d_30">
    <path clip-path="url(#p7b7f943a0e)" d="M 57.633612 41.487435 
L 80.289387 51.803308 
L 81.010908 52.131957 
L 81.046984 41.487435 
L 81.155212 41.536665 
L 104.496432 52.164689 
L 104.496432 52.164689 
L 104.60466 80.963977 
L 106.307451 81.739431 
L 106.415679 110.608174 
L 111.249873 112.809461 
L 111.358101 142.29745 
L 129.756899 150.675222 
L 129.865127 180.165073 
L 130.370192 180.394995 
L 130.47842 209.902144 
L 153.200214 220.248087 
L 153.308442 249.766147 
L 166.800893 255.909633 
L 166.909121 286.895732 
L 176.648579 291.378513 
L 176.648579 307.584 
L 176.756807 307.584 
L 340.758999 307.584 
L 340.795075 41.487435 
L 340.870474 70.268095 
L 347.255939 73.175646 
L 347.275059 74.016031 
L 347.275059 74.016031 
L 347.364167 103.606739 
L 364.247769 111.31497 
L 364.247769 111.31497 
L 364.355997 140.914194 
L 364.969291 141.193347 
L 365.077519 170.836746 
L 387.695413 181.135321 
L 387.803642 210.92109 
L 395.199237 214.336918 
L 395.307465 244.414081 
L 411.143418 251.62468 
L 411.251646 281.712887 
L 411.504179 281.827874 
L 411.524381 282.013222 
L 411.524381 282.013222 
L 411.540255 307.584 
L 411.612407 307.584 
L 414.751025 307.584 
L 414.751025 307.584 
" style="fill:none;stroke:#808080;stroke-linecap:round;stroke-opacity:0.3;stroke-width:0.6;"/>
   </g>
   <g id="line2d_31">
    <path clip-path="url(#p7b7f943a0e)" d="M 57.603072 41.473331 
L 57.7113 70.252394 
L 69.724544 75.76812 
L 69.832773 103.606473 
L 81.052432 108.749108 
L 81.052432 108.749108 
L 81.16066 136.590922 
L 81.737877 136.853575 
L 81.882181 164.781609 
L 106.305647 175.902474 
L 106.413875 203.830242 
L 106.774636 203.994434 
L 106.91894 231.87643 
L 129.574714 242.192303 
L 129.755095 242.274532 
L 129.863323 270.155464 
L 130.007627 270.221194 
L 130.115856 298.096085 
L 151.220359 307.584 
L 223.51212 307.584 
L 223.548196 41.487435 
L 223.625038 70.220727 
L 229.361134 72.832626 
L 229.389995 75.100176 
L 229.389995 75.100176 
L 229.469362 104.102774 
L 246.998726 112.084569 
L 247.106955 141.100474 
L 257.208255 145.699972 
L 257.316483 173.523423 
L 270.448174 179.502718 
L 270.448174 179.502718 
L 270.556402 207.336814 
L 270.628555 207.369546 
L 270.736783 235.211625 
L 293.896179 245.781636 
L 294.004407 273.628505 
L 294.545548 273.874926 
L 294.653776 301.725228 
L 307.785467 307.584 
L 414.750665 307.584 
L 414.750665 307.584 
" style="fill:none;stroke:#808080;stroke-linecap:round;stroke-opacity:0.3;stroke-width:0.6;"/>
   </g>
   <g id="line2d_32">
    <path clip-path="url(#p7b7f943a0e)" d="M 57.603072 41.473331 
L 57.7113 70.252394 
L 69.724544 75.76812 
L 69.832773 103.606473 
L 81.052432 108.749108 
L 81.052432 108.749108 
L 81.16066 136.590922 
L 81.737877 136.853575 
L 81.882181 164.781609 
L 106.305647 175.902474 
L 106.413875 203.830242 
L 106.774636 203.994434 
L 106.91894 231.87643 
L 129.574714 242.192303 
L 129.755095 242.274532 
L 129.863323 270.155464 
L 130.007627 270.221194 
L 130.115856 298.096085 
L 151.220359 307.584 
L 223.51212 307.584 
L 223.548196 41.487435 
L 223.625038 70.220727 
L 229.361134 72.832626 
L 229.389995 75.100176 
L 229.389995 75.100176 
L 229.469362 104.102774 
L 246.998726 112.084569 
L 247.106955 141.100474 
L 257.208255 145.699972 
L 257.316483 173.523423 
L 270.448174 179.502718 
L 270.448174 179.502718 
L 270.556402 207.336814 
L 270.628555 207.369546 
L 270.736783 235.211625 
L 293.896179 245.781636 
L 294.004407 273.628505 
L 294.545548 273.874926 
L 294.653776 301.725228 
L 307.785467 307.584 
L 414.750665 307.584 
L 414.750665 307.584 
" style="fill:none;stroke:#ff7f00;stroke-linecap:round;stroke-opacity:0.9;stroke-width:2.4;"/>
   </g>
   <g id="line2d_33">
    <path clip-path="url(#p7b7f943a0e)" d="M 57.597536 307.584 
L 57.597536 41.472 
" style="fill:none;stroke:#000000;stroke-linecap:round;stroke-width:1.5;"/>
   </g>
   <g id="line2d_34">
    <path clip-path="url(#p7b7f943a0e)" d="M 223.547475 307.584 
L 223.547475 41.472 
" style="fill:none;stroke:#000000;stroke-linecap:round;stroke-width:1.5;"/>
   </g>
   <g id="line2d_35">
    <path clip-path="url(#p7b7f943a0e)" d="M 165.031001 307.584 
L 165.031001 41.472 
" style="fill:none;stroke:#ff0000;stroke-linecap:round;stroke-width:1.5;"/>
   </g>
   <g id="line2d_36">
    <path clip-path="url(#p7b7f943a0e)" d="M 330.017348 307.584 
L 330.017348 41.472 
" style="fill:none;stroke:#ff0000;stroke-linecap:round;stroke-width:1.5;"/>
   </g>
   <g id="patch_3">
    <path d="M 57.6 307.584 
L 57.6 41.472 
" style="fill:none;"/>
   </g>
   <g id="patch_4">
    <path d="M 414.72 307.584 
L 414.72 41.472 
" style="fill:none;"/>
   </g>
   <g id="patch_5">
    <path d="M 57.6 307.584 
L 414.72 307.584 
" style="fill:none;"/>
   </g>
   <g id="patch_6">
    <path d="M 57.6 41.472 
L 414.72 41.472 
" style="fill:none;"/>
   </g>
   <g id="text_14">
    <!-- UAV 4 -->
    <defs>
     <path d="M 35.6875 -0.984375 
Q 27.25 -0.984375 20.953125 2.09375 
Q 14.65625 5.171875 11.1875 11.03125 
Q 7.71875 16.890625 7.71875 25 
L 7.71875 68.796875 
L 17.046875 68.796875 
L 17.046875 25.78125 
Q 17.046875 16.359375 21.828125 11.46875 
Q 26.609375 6.59375 35.640625 6.59375 
Q 44.921875 6.59375 50.0625 11.640625 
Q 55.21875 16.703125 55.21875 26.421875 
L 55.21875 68.796875 
L 64.5 68.796875 
L 64.5 25.875 
Q 64.5 17.53125 60.953125 11.46875 
Q 57.421875 5.421875 50.953125 2.21875 
Q 44.484375 -0.984375 35.6875 -0.984375 
z
" id="LiberationSans-55"/>
     <path d="M 56.984375 0 
L 49.125 20.125 
L 17.78125 20.125 
L 9.859375 0 
L 0.203125 0 
L 28.265625 68.796875 
L 38.875 68.796875 
L 66.5 0 
z
M 33.453125 61.765625 
L 33.015625 60.40625 
Q 31.78125 56.34375 29.390625 50 
L 20.609375 27.390625 
L 46.34375 27.390625 
L 37.5 50.09375 
Q 36.140625 53.46875 34.765625 57.71875 
z
" id="LiberationSans-41"/>
     <path d="M 38.1875 0 
L 28.515625 0 
L 0.4375 68.796875 
L 10.25 68.796875 
L 29.296875 20.359375 
L 33.40625 8.203125 
L 37.5 20.359375 
L 56.453125 68.796875 
L 66.265625 68.796875 
z
" id="LiberationSans-56"/>
    </defs>
    <g style="fill:#ff7f00;" transform="translate(57.6 56.76096)scale(0.07 -0.07)">
     <use xlink:href="#LiberationSans-55"/>
     <use x="72.216797" xlink:href="#LiberationSans-41"/>
     <use x="138.806641" xlink:href="#LiberationSans-56"/>
     <use x="205.505859" xlink:href="#LiberationSans-20"/>
     <use x="233.289062" xlink:href="#LiberationSans-34"/>
    </g>
   </g>
  </g>
 </g>
 <defs>
  <clipPath id="p7b7f943a0e">
   <rect height="266.112" width="357.12" x="57.6" y="41.472"/>
  </clipPath>
 </defs>
</svg>
