<?xml version="1.0" encoding="utf-8" standalone="no"?>
<!DOCTYPE svg PUBLIC "-//W3C//DTD SVG 1.1//EN"
  "http://www.w3.org/Graphics/SVG/1.1/DTD/svg11.dtd">
<!-- Created with matplotlib (http://matplotlib.org/) -->
<svg height="345.6pt" version="1.1" viewBox="0 0 460.8 345.6" width="460.8pt" xmlns="http://www.w3.org/2000/svg" xmlns:xlink="http://www.w3.org/1999/xlink">
 <defs>
  <style type="text/css">
*{stroke-linecap:butt;stroke-linejoin:round;}
  </style>
 </defs>
 <g id="figure_1">
  <g id="patch_1">
   <path d="M 0 345.6 
L 460.8 345.6 
L 460.8 0 
L 0 0 
z
" style="fill:#ffffff;"/>
  </g>
  <g id="axes_1">
   <g id="patch_2">
    <path d="M 57.6 87.353379 
L 414.72 87.353379 
L 414.72 41.472 
L 57.6 41.472 
z
" style="fill:#eaeaf2;"/>
   </g>
   <g id="matplotlib.axis_1">
    <g id="xtick_1">
     <g id="line2d_1">
      <path clip-path="url(#p4c98f12c56)" d="M 57.562426 87.353379 
L 57.562426 41.472 
" style="fill:none;stroke:#ffffff;stroke-linecap:round;stroke-width:0.8;"/>
     </g>
     <g id="line2d_2"/>
    </g>
    <g id="xtick_2">
     <g id="line2d_3">
      <path clip-path="url(#p4c98f12c56)" d="M 112.581608 87.353379 
L 112.581608 41.472 
" style="fill:none;stroke:#ffffff;stroke-linecap:round;stroke-width:0.8;"/>
     </g>
     <g id="line2d_4"/>
    </g>
    <g id="xtick_3">
     <g id="line2d_5">
      <path clip-path="url(#p4c98f12c56)" d="M 167.600791 87.353379 
L 167.600791 41.472 
" style="fill:none;stroke:#ffffff;stroke-linecap:round;stroke-width:0.8;"/>
     </g>
     <g id="line2d_6"/>
    </g>
    <g id="xtick_4">
     <g id="line2d_7">
      <path clip-path="url(#p4c98f12c56)" d="M 222.619974 87.353379 
L 222.619974 41.472 
" style="fill:none;stroke:#ffffff;stroke-linecap:round;stroke-width:0.8;"/>
     </g>
     <g id="line2d_8"/>
    </g>
    <g id="xtick_5">
     <g id="line2d_9">
      <path clip-path="url(#p4c98f12c56)" d="M 277.639156 87.353379 
L 277.639156 41.472 
" style="fill:none;stroke:#ffffff;stroke-linecap:round;stroke-width:0.8;"/>
     </g>
     <g id="line2d_10"/>
    </g>
    <g id="xtick_6">
     <g id="line2d_11">
      <path clip-path="url(#p4c98f12c56)" d="M 332.658339 87.353379 
L 332.658339 41.472 
" style="fill:none;stroke:#ffffff;stroke-linecap:round;stroke-width:0.8;"/>
     </g>
     <g id="line2d_12"/>
    </g>
    <g id="xtick_7">
     <g id="line2d_13">
      <path clip-path="url(#p4c98f12c56)" d="M 387.677522 87.353379 
L 387.677522 41.472 
" style="fill:none;stroke:#ffffff;stroke-linecap:round;stroke-width:0.8;"/>
     </g>
     <g id="line2d_14"/>
    </g>
   </g>
   <g id="matplotlib.axis_2">
    <g id="ytick_1">
     <g id="line2d_15">
      <path clip-path="url(#p4c98f12c56)" d="M 57.6 75.928302 
L 414.72 75.928302 
" style="fill:none;stroke:#ffffff;stroke-linecap:round;stroke-width:0.8;"/>
     </g>
     <g id="line2d_16"/>
     <g id="text_1">
      <!-- 0.8 -->
      <defs>
       <path d="M 51.703125 34.421875 
Q 51.703125 17.1875 45.625 8.09375 
Q 39.546875 -0.984375 27.6875 -0.984375 
Q 15.828125 -0.984375 9.859375 8.046875 
Q 3.90625 17.09375 3.90625 34.421875 
Q 3.90625 52.15625 9.6875 60.984375 
Q 15.484375 69.828125 27.984375 69.828125 
Q 40.140625 69.828125 45.921875 60.890625 
Q 51.703125 51.953125 51.703125 34.421875 
z
M 42.78125 34.421875 
Q 42.78125 49.3125 39.328125 56 
Q 35.890625 62.703125 27.984375 62.703125 
Q 19.875 62.703125 16.328125 56.109375 
Q 12.796875 49.515625 12.796875 34.421875 
Q 12.796875 19.78125 16.375 12.984375 
Q 19.96875 6.203125 27.78125 6.203125 
Q 35.546875 6.203125 39.15625 13.125 
Q 42.78125 20.0625 42.78125 34.421875 
z
" id="LiberationSans-30"/>
       <path d="M 9.125 0 
L 9.125 10.6875 
L 18.65625 10.6875 
L 18.65625 0 
z
" id="LiberationSans-2e"/>
       <path d="M 51.265625 19.1875 
Q 51.265625 9.671875 45.203125 4.34375 
Q 39.15625 -0.984375 27.828125 -0.984375 
Q 16.796875 -0.984375 10.5625 4.234375 
Q 4.34375 9.46875 4.34375 19.09375 
Q 4.34375 25.828125 8.203125 30.421875 
Q 12.0625 35.015625 18.0625 35.984375 
L 18.0625 36.1875 
Q 12.453125 37.5 9.203125 41.890625 
Q 5.953125 46.296875 5.953125 52.203125 
Q 5.953125 60.0625 11.828125 64.9375 
Q 17.71875 69.828125 27.640625 69.828125 
Q 37.796875 69.828125 43.671875 65.03125 
Q 49.5625 60.25 49.5625 52.09375 
Q 49.5625 46.1875 46.28125 41.796875 
Q 43.015625 37.40625 37.359375 36.28125 
L 37.359375 36.078125 
Q 43.953125 35.015625 47.609375 30.5 
Q 51.265625 25.984375 51.265625 19.1875 
z
M 40.4375 51.609375 
Q 40.4375 63.28125 27.640625 63.28125 
Q 21.4375 63.28125 18.1875 60.34375 
Q 14.9375 57.421875 14.9375 51.609375 
Q 14.9375 45.703125 18.28125 42.59375 
Q 21.625 39.5 27.734375 39.5 
Q 33.9375 39.5 37.1875 42.359375 
Q 40.4375 45.21875 40.4375 51.609375 
z
M 42.140625 20.015625 
Q 42.140625 26.421875 38.328125 29.65625 
Q 34.515625 32.90625 27.640625 32.90625 
Q 20.953125 32.90625 17.1875 29.40625 
Q 13.421875 25.921875 13.421875 19.828125 
Q 13.421875 5.609375 27.9375 5.609375 
Q 35.109375 5.609375 38.625 9.046875 
Q 42.140625 12.5 42.140625 20.015625 
z
" id="LiberationSans-38"/>
      </defs>
      <g style="fill:#262626;" transform="translate(40.2 79.55174)scale(0.1 -0.1)">
       <use xlink:href="#LiberationSans-30"/>
       <use x="55.615234" xlink:href="#LiberationSans-2e"/>
       <use x="83.398438" xlink:href="#LiberationSans-38"/>
      </g>
     </g>
    </g>
    <g id="ytick_2">
     <g id="line2d_17">
      <path clip-path="url(#p4c98f12c56)" d="M 57.6 58.699807 
L 414.72 58.699807 
" style="fill:none;stroke:#ffffff;stroke-linecap:round;stroke-width:0.8;"/>
     </g>
     <g id="line2d_18"/>
     <g id="text_2">
      <!-- 0.9 -->
      <defs>
       <path d="M 50.875 35.796875 
Q 50.875 18.0625 44.40625 8.53125 
Q 37.9375 -0.984375 25.984375 -0.984375 
Q 17.921875 -0.984375 13.0625 2.40625 
Q 8.203125 5.8125 6.109375 13.375 
L 14.5 14.703125 
Q 17.140625 6.109375 26.125 6.109375 
Q 33.6875 6.109375 37.84375 13.140625 
Q 42 20.171875 42.1875 33.203125 
Q 40.234375 28.8125 35.5 26.140625 
Q 30.765625 23.484375 25.09375 23.484375 
Q 15.828125 23.484375 10.25 29.828125 
Q 4.6875 36.1875 4.6875 46.6875 
Q 4.6875 57.46875 10.734375 63.640625 
Q 16.796875 69.828125 27.59375 69.828125 
Q 39.0625 69.828125 44.96875 61.328125 
Q 50.875 52.828125 50.875 35.796875 
z
M 41.3125 44.28125 
Q 41.3125 52.59375 37.5 57.640625 
Q 33.6875 62.703125 27.296875 62.703125 
Q 20.953125 62.703125 17.28125 58.375 
Q 13.625 54.046875 13.625 46.6875 
Q 13.625 39.15625 17.28125 34.78125 
Q 20.953125 30.421875 27.203125 30.421875 
Q 31 30.421875 34.265625 32.15625 
Q 37.546875 33.890625 39.421875 37.0625 
Q 41.3125 40.234375 41.3125 44.28125 
z
" id="LiberationSans-39"/>
      </defs>
      <g style="fill:#262626;" transform="translate(40.2 62.323244)scale(0.1 -0.1)">
       <use xlink:href="#LiberationSans-30"/>
       <use x="55.615234" xlink:href="#LiberationSans-2e"/>
       <use x="83.398438" xlink:href="#LiberationSans-39"/>
      </g>
     </g>
    </g>
    <g id="ytick_3">
     <g id="line2d_19">
      <path clip-path="url(#p4c98f12c56)" d="M 57.6 41.471311 
L 414.72 41.471311 
" style="fill:none;stroke:#ffffff;stroke-linecap:round;stroke-width:0.8;"/>
     </g>
     <g id="line2d_20"/>
     <g id="text_3">
      <!-- 1.0 -->
      <defs>
       <path d="M 7.625 0 
L 7.625 7.46875 
L 25.140625 7.46875 
L 25.140625 60.40625 
L 9.625 49.3125 
L 9.625 57.625 
L 25.875 68.796875 
L 33.984375 68.796875 
L 33.984375 7.46875 
L 50.734375 7.46875 
L 50.734375 0 
z
" id="LiberationSans-31"/>
      </defs>
      <g style="fill:#262626;" transform="translate(40.2 45.094748)scale(0.1 -0.1)">
       <use xlink:href="#LiberationSans-31"/>
       <use x="55.615234" xlink:href="#LiberationSans-2e"/>
       <use x="83.398438" xlink:href="#LiberationSans-30"/>
      </g>
     </g>
    </g>
   </g>
   <g id="line2d_21">
    <path clip-path="url(#p4c98f12c56)" d="M 57.611533 41.472345 
L 57.611533 60.057412 
L 157.147696 61.981318 
L 157.697888 80.765892 
L 415.187663 85.760949 
L 415.187663 85.760949 
" style="fill:none;stroke:#808080;stroke-linecap:round;stroke-opacity:0.3;stroke-width:0.6;"/>
   </g>
   <g id="line2d_22">
    <path clip-path="url(#p4c98f12c56)" d="M 57.620325 41.472345 
L 57.620325 60.085495 
L 223.775927 63.392849 
L 224.87631 63.468137 
L 285.397411 64.745975 
L 287.047987 64.795248 
L 354.171389 66.162674 
L 354.182393 86.183909 
L 415.242682 87.364061 
L 415.242682 87.364061 
" style="fill:none;stroke:#808080;stroke-linecap:round;stroke-opacity:0.3;stroke-width:0.6;"/>
   </g>
   <g id="line2d_23">
    <path clip-path="url(#p4c98f12c56)" d="M 57.6 41.472 
L 57.6 60.057757 
L 174.231153 62.312105 
L 174.628941 81.447106 
L 415.215173 86.118958 
L 415.215173 86.118958 
" style="fill:none;stroke:#808080;stroke-linecap:round;stroke-opacity:0.3;stroke-width:0.6;"/>
   </g>
   <g id="line2d_24">
    <path clip-path="url(#p4c98f12c56)" d="M 58.112617 41.481993 
L 414.636921 48.373391 
L 415.187113 41.481993 
L 415.187113 41.481993 
" style="fill:none;stroke:#808080;stroke-linecap:round;stroke-opacity:0.3;stroke-width:0.6;"/>
   </g>
   <g id="line2d_25">
    <path clip-path="url(#p4c98f12c56)" d="M 57.646847 41.472861 
L 57.646847 60.072918 
L 242.509958 63.675741 
L 242.624398 81.669009 
L 415.270192 85.028049 
L 415.270192 85.028049 
" style="fill:none;stroke:#808080;stroke-linecap:round;stroke-opacity:0.3;stroke-width:0.6;"/>
   </g>
   <g id="line2d_26">
    <path clip-path="url(#p4c98f12c56)" d="M 57.611533 41.472345 
L 57.611533 60.057412 
L 157.147696 61.981318 
L 157.697888 80.765892 
L 415.187663 85.760949 
L 415.187663 85.760949 
" style="fill:none;stroke:#377eb8;stroke-linecap:round;stroke-opacity:0.9;stroke-width:2.4;"/>
   </g>
   <g id="line2d_27">
    <path clip-path="url(#p4c98f12c56)" d="M 57.562426 87.353379 
L 57.562426 41.472 
" style="fill:none;stroke:#000000;stroke-linecap:round;stroke-width:1.5;"/>
   </g>
   <g id="line2d_28">
    <path clip-path="url(#p4c98f12c56)" style="fill:none;stroke:#ff0000;stroke-linecap:round;stroke-width:1.5;"/>
   </g>
   <g id="line2d_29">
    <path clip-path="url(#p4c98f12c56)" style="fill:none;stroke:#000000;stroke-linecap:round;stroke-width:1.5;"/>
   </g>
   <g id="line2d_30">
    <path clip-path="url(#p4c98f12c56)" style="fill:none;stroke:#ff0000;stroke-linecap:round;stroke-width:1.5;"/>
   </g>
   <g id="patch_3">
    <path d="M 57.6 87.353379 
L 57.6 41.472 
" style="fill:none;"/>
   </g>
   <g id="patch_4">
    <path d="M 414.72 87.353379 
L 414.72 41.472 
" style="fill:none;"/>
   </g>
   <g id="patch_5">
    <path d="M 57.6 87.353379 
L 414.72 87.353379 
" style="fill:none;"/>
   </g>
   <g id="patch_6">
    <path d="M 57.6 41.472 
L 414.72 41.472 
" style="fill:none;"/>
   </g>
   <g id="text_4">
    <!-- UAV 1 -->
    <defs>
     <path d="M 35.6875 -0.984375 
Q 27.25 -0.984375 20.953125 2.09375 
Q 14.65625 5.171875 11.1875 11.03125 
Q 7.71875 16.890625 7.71875 25 
L 7.71875 68.796875 
L 17.046875 68.796875 
L 17.046875 25.78125 
Q 17.046875 16.359375 21.828125 11.46875 
Q 26.609375 6.59375 35.640625 6.59375 
Q 44.921875 6.59375 50.0625 11.640625 
Q 55.21875 16.703125 55.21875 26.421875 
L 55.21875 68.796875 
L 64.5 68.796875 
L 64.5 25.875 
Q 64.5 17.53125 60.953125 11.46875 
Q 57.421875 5.421875 50.953125 2.21875 
Q 44.484375 -0.984375 35.6875 -0.984375 
z
" id="LiberationSans-55"/>
     <path d="M 56.984375 0 
L 49.125 20.125 
L 17.78125 20.125 
L 9.859375 0 
L 0.203125 0 
L 28.265625 68.796875 
L 38.875 68.796875 
L 66.5 0 
z
M 33.453125 61.765625 
L 33.015625 60.40625 
Q 31.78125 56.34375 29.390625 50 
L 20.609375 27.390625 
L 46.34375 27.390625 
L 37.5 50.09375 
Q 36.140625 53.46875 34.765625 57.71875 
z
" id="LiberationSans-41"/>
     <path d="M 38.1875 0 
L 28.515625 0 
L 0.4375 68.796875 
L 10.25 68.796875 
L 29.296875 20.359375 
L 33.40625 8.203125 
L 37.5 20.359375 
L 56.453125 68.796875 
L 66.265625 68.796875 
z
" id="LiberationSans-56"/>
     <path id="LiberationSans-20"/>
    </defs>
    <g style="fill:#377eb8;" transform="translate(57.6 39.14251)scale(0.07 -0.07)">
     <use xlink:href="#LiberationSans-55"/>
     <use x="72.216797" xlink:href="#LiberationSans-41"/>
     <use x="138.806641" xlink:href="#LiberationSans-56"/>
     <use x="205.505859" xlink:href="#LiberationSans-20"/>
     <use x="233.289062" xlink:href="#LiberationSans-31"/>
    </g>
   </g>
  </g>
  <g id="axes_2">
   <g id="patch_7">
    <path d="M 57.6 142.411034 
L 414.72 142.411034 
L 414.72 96.529655 
L 57.6 96.529655 
z
" style="fill:#eaeaf2;"/>
   </g>
   <g id="matplotlib.axis_3">
    <g id="xtick_8">
     <g id="line2d_31">
      <path clip-path="url(#pc69deba77e)" d="M 57.562426 142.411034 
L 57.562426 96.529655 
" style="fill:none;stroke:#ffffff;stroke-linecap:round;stroke-width:0.8;"/>
     </g>
     <g id="line2d_32"/>
    </g>
    <g id="xtick_9">
     <g id="line2d_33">
      <path clip-path="url(#pc69deba77e)" d="M 112.581608 142.411034 
L 112.581608 96.529655 
" style="fill:none;stroke:#ffffff;stroke-linecap:round;stroke-width:0.8;"/>
     </g>
     <g id="line2d_34"/>
    </g>
    <g id="xtick_10">
     <g id="line2d_35">
      <path clip-path="url(#pc69deba77e)" d="M 167.600791 142.411034 
L 167.600791 96.529655 
" style="fill:none;stroke:#ffffff;stroke-linecap:round;stroke-width:0.8;"/>
     </g>
     <g id="line2d_36"/>
    </g>
    <g id="xtick_11">
     <g id="line2d_37">
      <path clip-path="url(#pc69deba77e)" d="M 222.619974 142.411034 
L 222.619974 96.529655 
" style="fill:none;stroke:#ffffff;stroke-linecap:round;stroke-width:0.8;"/>
     </g>
     <g id="line2d_38"/>
    </g>
    <g id="xtick_12">
     <g id="line2d_39">
      <path clip-path="url(#pc69deba77e)" d="M 277.639156 142.411034 
L 277.639156 96.529655 
" style="fill:none;stroke:#ffffff;stroke-linecap:round;stroke-width:0.8;"/>
     </g>
     <g id="line2d_40"/>
    </g>
    <g id="xtick_13">
     <g id="line2d_41">
      <path clip-path="url(#pc69deba77e)" d="M 332.658339 142.411034 
L 332.658339 96.529655 
" style="fill:none;stroke:#ffffff;stroke-linecap:round;stroke-width:0.8;"/>
     </g>
     <g id="line2d_42"/>
    </g>
    <g id="xtick_14">
     <g id="line2d_43">
      <path clip-path="url(#pc69deba77e)" d="M 387.677522 142.411034 
L 387.677522 96.529655 
" style="fill:none;stroke:#ffffff;stroke-linecap:round;stroke-width:0.8;"/>
     </g>
     <g id="line2d_44"/>
    </g>
   </g>
   <g id="matplotlib.axis_4">
    <g id="ytick_4">
     <g id="line2d_45">
      <path clip-path="url(#pc69deba77e)" d="M 57.6 130.985958 
L 414.72 130.985958 
" style="fill:none;stroke:#ffffff;stroke-linecap:round;stroke-width:0.8;"/>
     </g>
     <g id="line2d_46"/>
     <g id="text_5">
      <!-- 0.8 -->
      <g style="fill:#262626;" transform="translate(40.2 134.609395)scale(0.1 -0.1)">
       <use xlink:href="#LiberationSans-30"/>
       <use x="55.615234" xlink:href="#LiberationSans-2e"/>
       <use x="83.398438" xlink:href="#LiberationSans-38"/>
      </g>
     </g>
    </g>
    <g id="ytick_5">
     <g id="line2d_47">
      <path clip-path="url(#pc69deba77e)" d="M 57.6 113.757462 
L 414.72 113.757462 
" style="fill:none;stroke:#ffffff;stroke-linecap:round;stroke-width:0.8;"/>
     </g>
     <g id="line2d_48"/>
     <g id="text_6">
      <!-- 0.9 -->
      <g style="fill:#262626;" transform="translate(40.2 117.380899)scale(0.1 -0.1)">
       <use xlink:href="#LiberationSans-30"/>
       <use x="55.615234" xlink:href="#LiberationSans-2e"/>
       <use x="83.398438" xlink:href="#LiberationSans-39"/>
      </g>
     </g>
    </g>
    <g id="ytick_6">
     <g id="line2d_49">
      <path clip-path="url(#pc69deba77e)" d="M 57.6 96.528966 
L 414.72 96.528966 
" style="fill:none;stroke:#ffffff;stroke-linecap:round;stroke-width:0.8;"/>
     </g>
     <g id="line2d_50"/>
     <g id="text_7">
      <!-- 1.0 -->
      <g style="fill:#262626;" transform="translate(40.2 100.152404)scale(0.1 -0.1)">
       <use xlink:href="#LiberationSans-31"/>
       <use x="55.615234" xlink:href="#LiberationSans-2e"/>
       <use x="83.398438" xlink:href="#LiberationSans-30"/>
      </g>
     </g>
    </g>
   </g>
   <g id="line2d_51">
    <path clip-path="url(#pc69deba77e)" d="M 57.611533 96.53 
L 57.611533 115.115067 
L 157.147696 117.038973 
L 157.697888 135.823547 
L 415.187663 140.818605 
L 415.187663 140.818605 
" style="fill:none;stroke:#808080;stroke-linecap:round;stroke-opacity:0.3;stroke-width:0.6;"/>
   </g>
   <g id="line2d_52">
    <path clip-path="url(#pc69deba77e)" d="M 57.620325 96.53 
L 57.620325 115.14315 
L 223.775927 118.450504 
L 224.87631 118.525793 
L 285.397411 119.80363 
L 287.047987 119.852904 
L 354.171389 121.220329 
L 354.182393 141.241564 
L 415.242682 142.421716 
L 415.242682 142.421716 
" style="fill:none;stroke:#808080;stroke-linecap:round;stroke-opacity:0.3;stroke-width:0.6;"/>
   </g>
   <g id="line2d_53">
    <path clip-path="url(#pc69deba77e)" d="M 57.6 96.529655 
L 57.6 115.115412 
L 174.231153 117.36976 
L 174.628941 136.504762 
L 415.215173 141.176613 
L 415.215173 141.176613 
" style="fill:none;stroke:#808080;stroke-linecap:round;stroke-opacity:0.3;stroke-width:0.6;"/>
   </g>
   <g id="line2d_54">
    <path clip-path="url(#pc69deba77e)" d="M 58.112617 96.539648 
L 414.636921 103.431046 
L 415.187113 96.539648 
L 415.187113 96.539648 
" style="fill:none;stroke:#808080;stroke-linecap:round;stroke-opacity:0.3;stroke-width:0.6;"/>
   </g>
   <g id="line2d_55">
    <path clip-path="url(#pc69deba77e)" d="M 57.646847 96.530517 
L 57.646847 115.130573 
L 242.509958 118.733396 
L 242.624398 136.726665 
L 415.270192 140.085704 
L 415.270192 140.085704 
" style="fill:none;stroke:#808080;stroke-linecap:round;stroke-opacity:0.3;stroke-width:0.6;"/>
   </g>
   <g id="line2d_56">
    <path clip-path="url(#pc69deba77e)" d="M 57.6 96.529655 
L 57.6 115.115412 
L 174.231153 117.36976 
L 174.628941 136.504762 
L 415.215173 141.176613 
L 415.215173 141.176613 
" style="fill:none;stroke:#4daf4a;stroke-linecap:round;stroke-opacity:0.9;stroke-width:2.4;"/>
   </g>
   <g id="line2d_57">
    <path clip-path="url(#pc69deba77e)" d="M 57.562426 142.411034 
L 57.562426 96.529655 
" style="fill:none;stroke:#000000;stroke-linecap:round;stroke-width:1.5;"/>
   </g>
   <g id="line2d_58">
    <path clip-path="url(#pc69deba77e)" style="fill:none;stroke:#000000;stroke-linecap:round;stroke-width:1.5;"/>
   </g>
   <g id="line2d_59">
    <path clip-path="url(#pc69deba77e)" style="fill:none;stroke:#000000;stroke-linecap:round;stroke-width:1.5;"/>
   </g>
   <g id="line2d_60">
    <path clip-path="url(#pc69deba77e)" style="fill:none;stroke:#ff0000;stroke-linecap:round;stroke-width:1.5;"/>
   </g>
   <g id="line2d_61">
    <path clip-path="url(#pc69deba77e)" style="fill:none;stroke:#ff0000;stroke-linecap:round;stroke-width:1.5;"/>
   </g>
   <g id="patch_8">
    <path d="M 57.6 142.411034 
L 57.6 96.529655 
" style="fill:none;"/>
   </g>
   <g id="patch_9">
    <path d="M 414.72 142.411034 
L 414.72 96.529655 
" style="fill:none;"/>
   </g>
   <g id="patch_10">
    <path d="M 57.6 142.411034 
L 414.72 142.411034 
" style="fill:none;"/>
   </g>
   <g id="patch_11">
    <path d="M 57.6 96.529655 
L 414.72 96.529655 
" style="fill:none;"/>
   </g>
   <g id="text_8">
    <!-- UAV 2 -->
    <defs>
     <path d="M 5.03125 0 
L 5.03125 6.203125 
Q 7.515625 11.921875 11.109375 16.28125 
Q 14.703125 20.65625 18.65625 24.1875 
Q 22.609375 27.734375 26.484375 30.765625 
Q 30.375 33.796875 33.5 36.8125 
Q 36.625 39.84375 38.546875 43.15625 
Q 40.484375 46.484375 40.484375 50.6875 
Q 40.484375 56.34375 37.15625 59.46875 
Q 33.84375 62.59375 27.9375 62.59375 
Q 22.3125 62.59375 18.671875 59.546875 
Q 15.046875 56.5 14.40625 50.984375 
L 5.421875 51.8125 
Q 6.390625 60.0625 12.421875 64.9375 
Q 18.453125 69.828125 27.9375 69.828125 
Q 38.328125 69.828125 43.921875 64.921875 
Q 49.515625 60.015625 49.515625 50.984375 
Q 49.515625 46.96875 47.671875 43.015625 
Q 45.84375 39.0625 42.234375 35.109375 
Q 38.625 31.15625 28.421875 22.859375 
Q 22.796875 18.265625 19.46875 14.578125 
Q 16.15625 10.890625 14.703125 7.46875 
L 50.59375 7.46875 
L 50.59375 0 
z
" id="LiberationSans-32"/>
    </defs>
    <g style="fill:#4daf4a;" transform="translate(57.6 94.200166)scale(0.07 -0.07)">
     <use xlink:href="#LiberationSans-55"/>
     <use x="72.216797" xlink:href="#LiberationSans-41"/>
     <use x="138.806641" xlink:href="#LiberationSans-56"/>
     <use x="205.505859" xlink:href="#LiberationSans-20"/>
     <use x="233.289062" xlink:href="#LiberationSans-32"/>
    </g>
   </g>
  </g>
  <g id="axes_3">
   <g id="patch_12">
    <path d="M 57.6 197.46869 
L 414.72 197.46869 
L 414.72 151.58731 
L 57.6 151.58731 
z
" style="fill:#eaeaf2;"/>
   </g>
   <g id="matplotlib.axis_5">
    <g id="xtick_15">
     <g id="line2d_62">
      <path clip-path="url(#pea8ecf92c0)" d="M 57.562426 197.46869 
L 57.562426 151.58731 
" style="fill:none;stroke:#ffffff;stroke-linecap:round;stroke-width:0.8;"/>
     </g>
     <g id="line2d_63"/>
    </g>
    <g id="xtick_16">
     <g id="line2d_64">
      <path clip-path="url(#pea8ecf92c0)" d="M 112.581608 197.46869 
L 112.581608 151.58731 
" style="fill:none;stroke:#ffffff;stroke-linecap:round;stroke-width:0.8;"/>
     </g>
     <g id="line2d_65"/>
    </g>
    <g id="xtick_17">
     <g id="line2d_66">
      <path clip-path="url(#pea8ecf92c0)" d="M 167.600791 197.46869 
L 167.600791 151.58731 
" style="fill:none;stroke:#ffffff;stroke-linecap:round;stroke-width:0.8;"/>
     </g>
     <g id="line2d_67"/>
    </g>
    <g id="xtick_18">
     <g id="line2d_68">
      <path clip-path="url(#pea8ecf92c0)" d="M 222.619974 197.46869 
L 222.619974 151.58731 
" style="fill:none;stroke:#ffffff;stroke-linecap:round;stroke-width:0.8;"/>
     </g>
     <g id="line2d_69"/>
    </g>
    <g id="xtick_19">
     <g id="line2d_70">
      <path clip-path="url(#pea8ecf92c0)" d="M 277.639156 197.46869 
L 277.639156 151.58731 
" style="fill:none;stroke:#ffffff;stroke-linecap:round;stroke-width:0.8;"/>
     </g>
     <g id="line2d_71"/>
    </g>
    <g id="xtick_20">
     <g id="line2d_72">
      <path clip-path="url(#pea8ecf92c0)" d="M 332.658339 197.46869 
L 332.658339 151.58731 
" style="fill:none;stroke:#ffffff;stroke-linecap:round;stroke-width:0.8;"/>
     </g>
     <g id="line2d_73"/>
    </g>
    <g id="xtick_21">
     <g id="line2d_74">
      <path clip-path="url(#pea8ecf92c0)" d="M 387.677522 197.46869 
L 387.677522 151.58731 
" style="fill:none;stroke:#ffffff;stroke-linecap:round;stroke-width:0.8;"/>
     </g>
     <g id="line2d_75"/>
    </g>
   </g>
   <g id="matplotlib.axis_6">
    <g id="ytick_7">
     <g id="line2d_76">
      <path clip-path="url(#pea8ecf92c0)" d="M 57.6 186.043613 
L 414.72 186.043613 
" style="fill:none;stroke:#ffffff;stroke-linecap:round;stroke-width:0.8;"/>
     </g>
     <g id="line2d_77"/>
     <g id="text_9">
      <!-- 0.8 -->
      <g style="fill:#262626;" transform="translate(40.2 189.66705)scale(0.1 -0.1)">
       <use xlink:href="#LiberationSans-30"/>
       <use x="55.615234" xlink:href="#LiberationSans-2e"/>
       <use x="83.398438" xlink:href="#LiberationSans-38"/>
      </g>
     </g>
    </g>
    <g id="ytick_8">
     <g id="line2d_78">
      <path clip-path="url(#pea8ecf92c0)" d="M 57.6 168.815117 
L 414.72 168.815117 
" style="fill:none;stroke:#ffffff;stroke-linecap:round;stroke-width:0.8;"/>
     </g>
     <g id="line2d_79"/>
     <g id="text_10">
      <!-- 0.9 -->
      <g style="fill:#262626;" transform="translate(40.2 172.438554)scale(0.1 -0.1)">
       <use xlink:href="#LiberationSans-30"/>
       <use x="55.615234" xlink:href="#LiberationSans-2e"/>
       <use x="83.398438" xlink:href="#LiberationSans-39"/>
      </g>
     </g>
    </g>
    <g id="ytick_9">
     <g id="line2d_80">
      <path clip-path="url(#pea8ecf92c0)" d="M 57.6 151.586621 
L 414.72 151.586621 
" style="fill:none;stroke:#ffffff;stroke-linecap:round;stroke-width:0.8;"/>
     </g>
     <g id="line2d_81"/>
     <g id="text_11">
      <!-- 1.0 -->
      <g style="fill:#262626;" transform="translate(40.2 155.210059)scale(0.1 -0.1)">
       <use xlink:href="#LiberationSans-31"/>
       <use x="55.615234" xlink:href="#LiberationSans-2e"/>
       <use x="83.398438" xlink:href="#LiberationSans-30"/>
      </g>
     </g>
    </g>
   </g>
   <g id="line2d_82">
    <path clip-path="url(#pea8ecf92c0)" d="M 57.611533 151.587655 
L 57.611533 170.172722 
L 157.147696 172.096629 
L 157.697888 190.881202 
L 415.187663 195.87626 
L 415.187663 195.87626 
" style="fill:none;stroke:#808080;stroke-linecap:round;stroke-opacity:0.3;stroke-width:0.6;"/>
   </g>
   <g id="line2d_83">
    <path clip-path="url(#pea8ecf92c0)" d="M 57.620325 151.587655 
L 57.620325 170.200805 
L 223.775927 173.508159 
L 224.87631 173.583448 
L 285.397411 174.861285 
L 287.047987 174.910559 
L 354.171389 176.277984 
L 354.182393 196.299219 
L 415.242682 197.479371 
L 415.242682 197.479371 
" style="fill:none;stroke:#808080;stroke-linecap:round;stroke-opacity:0.3;stroke-width:0.6;"/>
   </g>
   <g id="line2d_84">
    <path clip-path="url(#pea8ecf92c0)" d="M 57.6 151.58731 
L 57.6 170.173067 
L 174.231153 172.427416 
L 174.628941 191.562417 
L 415.215173 196.234268 
L 415.215173 196.234268 
" style="fill:none;stroke:#808080;stroke-linecap:round;stroke-opacity:0.3;stroke-width:0.6;"/>
   </g>
   <g id="line2d_85">
    <path clip-path="url(#pea8ecf92c0)" d="M 58.112617 151.597303 
L 414.636921 158.488701 
L 415.187113 151.597303 
L 415.187113 151.597303 
" style="fill:none;stroke:#808080;stroke-linecap:round;stroke-opacity:0.3;stroke-width:0.6;"/>
   </g>
   <g id="line2d_86">
    <path clip-path="url(#pea8ecf92c0)" d="M 57.646847 151.588172 
L 57.646847 170.188228 
L 242.509958 173.791051 
L 242.624398 191.78432 
L 415.270192 195.14336 
L 415.270192 195.14336 
" style="fill:none;stroke:#808080;stroke-linecap:round;stroke-opacity:0.3;stroke-width:0.6;"/>
   </g>
   <g id="line2d_87">
    <path clip-path="url(#pea8ecf92c0)" d="M 57.620325 151.587655 
L 57.620325 170.200805 
L 223.775927 173.508159 
L 224.87631 173.583448 
L 285.397411 174.861285 
L 287.047987 174.910559 
L 354.171389 176.277984 
L 354.182393 196.299219 
L 415.242682 197.479371 
L 415.242682 197.479371 
" style="fill:none;stroke:#984ea3;stroke-linecap:round;stroke-opacity:0.9;stroke-width:2.4;"/>
   </g>
   <g id="line2d_88">
    <path clip-path="url(#pea8ecf92c0)" d="M 57.562426 197.46869 
L 57.562426 151.58731 
" style="fill:none;stroke:#000000;stroke-linecap:round;stroke-width:1.5;"/>
   </g>
   <g id="line2d_89">
    <path clip-path="url(#pea8ecf92c0)" style="fill:none;stroke:#ff0000;stroke-linecap:round;stroke-width:1.5;"/>
   </g>
   <g id="line2d_90">
    <path clip-path="url(#pea8ecf92c0)" style="fill:none;stroke:#ff0000;stroke-linecap:round;stroke-width:1.5;"/>
   </g>
   <g id="line2d_91">
    <path clip-path="url(#pea8ecf92c0)" style="fill:none;stroke:#000000;stroke-linecap:round;stroke-width:1.5;"/>
   </g>
   <g id="patch_13">
    <path d="M 57.6 197.46869 
L 57.6 151.58731 
" style="fill:none;"/>
   </g>
   <g id="patch_14">
    <path d="M 414.72 197.46869 
L 414.72 151.58731 
" style="fill:none;"/>
   </g>
   <g id="patch_15">
    <path d="M 57.6 197.46869 
L 414.72 197.46869 
" style="fill:none;"/>
   </g>
   <g id="patch_16">
    <path d="M 57.6 151.58731 
L 414.72 151.58731 
" style="fill:none;"/>
   </g>
   <g id="text_12">
    <!-- UAV 3 -->
    <defs>
     <path d="M 51.21875 19 
Q 51.21875 9.46875 45.15625 4.234375 
Q 39.109375 -0.984375 27.875 -0.984375 
Q 17.4375 -0.984375 11.203125 3.734375 
Q 4.984375 8.453125 3.8125 17.671875 
L 12.890625 18.5 
Q 14.65625 6.296875 27.875 6.296875 
Q 34.515625 6.296875 38.296875 9.5625 
Q 42.09375 12.84375 42.09375 19.28125 
Q 42.09375 24.90625 37.765625 28.046875 
Q 33.453125 31.203125 25.296875 31.203125 
L 20.3125 31.203125 
L 20.3125 38.8125 
L 25.09375 38.8125 
Q 32.328125 38.8125 36.296875 41.96875 
Q 40.28125 45.125 40.28125 50.6875 
Q 40.28125 56.203125 37.03125 59.390625 
Q 33.796875 62.59375 27.390625 62.59375 
Q 21.578125 62.59375 17.984375 59.609375 
Q 14.40625 56.640625 13.8125 51.21875 
L 4.984375 51.90625 
Q 5.953125 60.359375 11.984375 65.09375 
Q 18.015625 69.828125 27.484375 69.828125 
Q 37.84375 69.828125 43.578125 65.015625 
Q 49.3125 60.203125 49.3125 51.609375 
Q 49.3125 45.015625 45.625 40.890625 
Q 41.9375 36.765625 34.90625 35.296875 
L 34.90625 35.109375 
Q 42.625 34.28125 46.921875 29.9375 
Q 51.21875 25.59375 51.21875 19 
z
" id="LiberationSans-33"/>
    </defs>
    <g style="fill:#984ea3;" transform="translate(57.6 149.257821)scale(0.07 -0.07)">
     <use xlink:href="#LiberationSans-55"/>
     <use x="72.216797" xlink:href="#LiberationSans-41"/>
     <use x="138.806641" xlink:href="#LiberationSans-56"/>
     <use x="205.505859" xlink:href="#LiberationSans-20"/>
     <use x="233.289062" xlink:href="#LiberationSans-33"/>
    </g>
   </g>
  </g>
  <g id="axes_4">
   <g id="patch_17">
    <path d="M 57.6 252.526345 
L 414.72 252.526345 
L 414.72 206.644966 
L 57.6 206.644966 
z
" style="fill:#eaeaf2;"/>
   </g>
   <g id="matplotlib.axis_7">
    <g id="xtick_22">
     <g id="line2d_92">
      <path clip-path="url(#p0078792fc0)" d="M 57.562426 252.526345 
L 57.562426 206.644966 
" style="fill:none;stroke:#ffffff;stroke-linecap:round;stroke-width:0.8;"/>
     </g>
     <g id="line2d_93"/>
    </g>
    <g id="xtick_23">
     <g id="line2d_94">
      <path clip-path="url(#p0078792fc0)" d="M 112.581608 252.526345 
L 112.581608 206.644966 
" style="fill:none;stroke:#ffffff;stroke-linecap:round;stroke-width:0.8;"/>
     </g>
     <g id="line2d_95"/>
    </g>
    <g id="xtick_24">
     <g id="line2d_96">
      <path clip-path="url(#p0078792fc0)" d="M 167.600791 252.526345 
L 167.600791 206.644966 
" style="fill:none;stroke:#ffffff;stroke-linecap:round;stroke-width:0.8;"/>
     </g>
     <g id="line2d_97"/>
    </g>
    <g id="xtick_25">
     <g id="line2d_98">
      <path clip-path="url(#p0078792fc0)" d="M 222.619974 252.526345 
L 222.619974 206.644966 
" style="fill:none;stroke:#ffffff;stroke-linecap:round;stroke-width:0.8;"/>
     </g>
     <g id="line2d_99"/>
    </g>
    <g id="xtick_26">
     <g id="line2d_100">
      <path clip-path="url(#p0078792fc0)" d="M 277.639156 252.526345 
L 277.639156 206.644966 
" style="fill:none;stroke:#ffffff;stroke-linecap:round;stroke-width:0.8;"/>
     </g>
     <g id="line2d_101"/>
    </g>
    <g id="xtick_27">
     <g id="line2d_102">
      <path clip-path="url(#p0078792fc0)" d="M 332.658339 252.526345 
L 332.658339 206.644966 
" style="fill:none;stroke:#ffffff;stroke-linecap:round;stroke-width:0.8;"/>
     </g>
     <g id="line2d_103"/>
    </g>
    <g id="xtick_28">
     <g id="line2d_104">
      <path clip-path="url(#p0078792fc0)" d="M 387.677522 252.526345 
L 387.677522 206.644966 
" style="fill:none;stroke:#ffffff;stroke-linecap:round;stroke-width:0.8;"/>
     </g>
     <g id="line2d_105"/>
    </g>
   </g>
   <g id="matplotlib.axis_8">
    <g id="ytick_10">
     <g id="line2d_106">
      <path clip-path="url(#p0078792fc0)" d="M 57.6 241.101268 
L 414.72 241.101268 
" style="fill:none;stroke:#ffffff;stroke-linecap:round;stroke-width:0.8;"/>
     </g>
     <g id="line2d_107"/>
     <g id="text_13">
      <!-- 0.8 -->
      <g style="fill:#262626;" transform="translate(40.2 244.724705)scale(0.1 -0.1)">
       <use xlink:href="#LiberationSans-30"/>
       <use x="55.615234" xlink:href="#LiberationSans-2e"/>
       <use x="83.398438" xlink:href="#LiberationSans-38"/>
      </g>
     </g>
    </g>
    <g id="ytick_11">
     <g id="line2d_108">
      <path clip-path="url(#p0078792fc0)" d="M 57.6 223.872772 
L 414.72 223.872772 
" style="fill:none;stroke:#ffffff;stroke-linecap:round;stroke-width:0.8;"/>
     </g>
     <g id="line2d_109"/>
     <g id="text_14">
      <!-- 0.9 -->
      <g style="fill:#262626;" transform="translate(40.2 227.49621)scale(0.1 -0.1)">
       <use xlink:href="#LiberationSans-30"/>
       <use x="55.615234" xlink:href="#LiberationSans-2e"/>
       <use x="83.398438" xlink:href="#LiberationSans-39"/>
      </g>
     </g>
    </g>
    <g id="ytick_12">
     <g id="line2d_110">
      <path clip-path="url(#p0078792fc0)" d="M 57.6 206.644276 
L 414.72 206.644276 
" style="fill:none;stroke:#ffffff;stroke-linecap:round;stroke-width:0.8;"/>
     </g>
     <g id="line2d_111"/>
     <g id="text_15">
      <!-- 1.0 -->
      <g style="fill:#262626;" transform="translate(40.2 210.267714)scale(0.1 -0.1)">
       <use xlink:href="#LiberationSans-31"/>
       <use x="55.615234" xlink:href="#LiberationSans-2e"/>
       <use x="83.398438" xlink:href="#LiberationSans-30"/>
      </g>
     </g>
    </g>
   </g>
   <g id="line2d_112">
    <path clip-path="url(#p0078792fc0)" d="M 57.611533 206.64531 
L 57.611533 225.230378 
L 157.147696 227.154284 
L 157.697888 245.938857 
L 415.187663 250.933915 
L 415.187663 250.933915 
" style="fill:none;stroke:#808080;stroke-linecap:round;stroke-opacity:0.3;stroke-width:0.6;"/>
   </g>
   <g id="line2d_113">
    <path clip-path="url(#p0078792fc0)" d="M 57.620325 206.64531 
L 57.620325 225.25846 
L 223.775927 228.565814 
L 224.87631 228.641103 
L 285.397411 229.91894 
L 287.047987 229.968214 
L 354.171389 231.33564 
L 354.182393 251.356875 
L 415.242682 252.537026 
L 415.242682 252.537026 
" style="fill:none;stroke:#808080;stroke-linecap:round;stroke-opacity:0.3;stroke-width:0.6;"/>
   </g>
   <g id="line2d_114">
    <path clip-path="url(#p0078792fc0)" d="M 57.6 206.644966 
L 57.6 225.230722 
L 174.231153 227.485071 
L 174.628941 246.620072 
L 415.215173 251.291923 
L 415.215173 251.291923 
" style="fill:none;stroke:#808080;stroke-linecap:round;stroke-opacity:0.3;stroke-width:0.6;"/>
   </g>
   <g id="line2d_115">
    <path clip-path="url(#p0078792fc0)" d="M 58.112617 206.654958 
L 414.636921 213.546356 
L 415.187113 206.654958 
L 415.187113 206.654958 
" style="fill:none;stroke:#808080;stroke-linecap:round;stroke-opacity:0.3;stroke-width:0.6;"/>
   </g>
   <g id="line2d_116">
    <path clip-path="url(#p0078792fc0)" d="M 57.646847 206.645827 
L 57.646847 225.245883 
L 242.509958 228.848706 
L 242.624398 246.841975 
L 415.270192 250.201015 
L 415.270192 250.201015 
" style="fill:none;stroke:#808080;stroke-linecap:round;stroke-opacity:0.3;stroke-width:0.6;"/>
   </g>
   <g id="line2d_117">
    <path clip-path="url(#p0078792fc0)" d="M 57.646847 206.645827 
L 57.646847 225.245883 
L 242.509958 228.848706 
L 242.624398 246.841975 
L 415.270192 250.201015 
L 415.270192 250.201015 
" style="fill:none;stroke:#ff7f00;stroke-linecap:round;stroke-opacity:0.9;stroke-width:2.4;"/>
   </g>
   <g id="line2d_118">
    <path clip-path="url(#p0078792fc0)" d="M 57.562426 252.526345 
L 57.562426 206.644966 
" style="fill:none;stroke:#000000;stroke-linecap:round;stroke-width:1.5;"/>
   </g>
   <g id="line2d_119">
    <path clip-path="url(#p0078792fc0)" style="fill:none;stroke:#000000;stroke-linecap:round;stroke-width:1.5;"/>
   </g>
   <g id="line2d_120">
    <path clip-path="url(#p0078792fc0)" style="fill:none;stroke:#ff0000;stroke-linecap:round;stroke-width:1.5;"/>
   </g>
   <g id="line2d_121">
    <path clip-path="url(#p0078792fc0)" style="fill:none;stroke:#ff0000;stroke-linecap:round;stroke-width:1.5;"/>
   </g>
   <g id="patch_18">
    <path d="M 57.6 252.526345 
L 57.6 206.644966 
" style="fill:none;"/>
   </g>
   <g id="patch_19">
    <path d="M 414.72 252.526345 
L 414.72 206.644966 
" style="fill:none;"/>
   </g>
   <g id="patch_20">
    <path d="M 57.6 252.526345 
L 414.72 252.526345 
" style="fill:none;"/>
   </g>
   <g id="patch_21">
    <path d="M 57.6 206.644966 
L 414.72 206.644966 
" style="fill:none;"/>
   </g>
   <g id="text_16">
    <!-- UAV 4 -->
    <defs>
     <path d="M 43.015625 15.578125 
L 43.015625 0 
L 34.71875 0 
L 34.71875 15.578125 
L 2.296875 15.578125 
L 2.296875 22.40625 
L 33.796875 68.796875 
L 43.015625 68.796875 
L 43.015625 22.515625 
L 52.6875 22.515625 
L 52.6875 15.578125 
z
M 34.71875 58.890625 
Q 34.625 58.59375 33.34375 56.296875 
Q 32.078125 54 31.453125 53.078125 
L 13.8125 27.09375 
L 11.1875 23.484375 
L 10.40625 22.515625 
L 34.71875 22.515625 
z
" id="LiberationSans-34"/>
    </defs>
    <g style="fill:#ff7f00;" transform="translate(57.6 204.315476)scale(0.07 -0.07)">
     <use xlink:href="#LiberationSans-55"/>
     <use x="72.216797" xlink:href="#LiberationSans-41"/>
     <use x="138.806641" xlink:href="#LiberationSans-56"/>
     <use x="205.505859" xlink:href="#LiberationSans-20"/>
     <use x="233.289062" xlink:href="#LiberationSans-34"/>
    </g>
   </g>
  </g>
  <g id="axes_5">
   <g id="patch_22">
    <path d="M 57.6 307.584 
L 414.72 307.584 
L 414.72 261.702621 
L 57.6 261.702621 
z
" style="fill:#eaeaf2;"/>
   </g>
   <g id="matplotlib.axis_9">
    <g id="xtick_29">
     <g id="line2d_122">
      <path clip-path="url(#p7cc2f4300f)" d="M 57.562426 307.584 
L 57.562426 261.702621 
" style="fill:none;stroke:#ffffff;stroke-linecap:round;stroke-width:0.8;"/>
     </g>
     <g id="line2d_123"/>
     <g id="text_17">
      <!-- 0 -->
      <g style="fill:#262626;" transform="translate(54.781957 318.330875)scale(0.1 -0.1)">
       <use xlink:href="#LiberationSans-30"/>
      </g>
     </g>
    </g>
    <g id="xtick_30">
     <g id="line2d_124">
      <path clip-path="url(#p7cc2f4300f)" d="M 112.581608 307.584 
L 112.581608 261.702621 
" style="fill:none;stroke:#ffffff;stroke-linecap:round;stroke-width:0.8;"/>
     </g>
     <g id="line2d_125"/>
     <g id="text_18">
      <!-- 10 -->
      <g style="fill:#262626;" transform="translate(107.020671 318.330875)scale(0.1 -0.1)">
       <use xlink:href="#LiberationSans-31"/>
       <use x="55.615234" xlink:href="#LiberationSans-30"/>
      </g>
     </g>
    </g>
    <g id="xtick_31">
     <g id="line2d_126">
      <path clip-path="url(#p7cc2f4300f)" d="M 167.600791 307.584 
L 167.600791 261.702621 
" style="fill:none;stroke:#ffffff;stroke-linecap:round;stroke-width:0.8;"/>
     </g>
     <g id="line2d_127"/>
     <g id="text_19">
      <!-- 20 -->
      <g style="fill:#262626;" transform="translate(162.039853 318.330875)scale(0.1 -0.1)">
       <use xlink:href="#LiberationSans-32"/>
       <use x="55.615234" xlink:href="#LiberationSans-30"/>
      </g>
     </g>
    </g>
    <g id="xtick_32">
     <g id="line2d_128">
      <path clip-path="url(#p7cc2f4300f)" d="M 222.619974 307.584 
L 222.619974 261.702621 
" style="fill:none;stroke:#ffffff;stroke-linecap:round;stroke-width:0.8;"/>
     </g>
     <g id="line2d_129"/>
     <g id="text_20">
      <!-- 30 -->
      <g style="fill:#262626;" transform="translate(217.059036 318.330875)scale(0.1 -0.1)">
       <use xlink:href="#LiberationSans-33"/>
       <use x="55.615234" xlink:href="#LiberationSans-30"/>
      </g>
     </g>
    </g>
    <g id="xtick_33">
     <g id="line2d_130">
      <path clip-path="url(#p7cc2f4300f)" d="M 277.639156 307.584 
L 277.639156 261.702621 
" style="fill:none;stroke:#ffffff;stroke-linecap:round;stroke-width:0.8;"/>
     </g>
     <g id="line2d_131"/>
     <g id="text_21">
      <!-- 40 -->
      <g style="fill:#262626;" transform="translate(272.078219 318.330875)scale(0.1 -0.1)">
       <use xlink:href="#LiberationSans-34"/>
       <use x="55.615234" xlink:href="#LiberationSans-30"/>
      </g>
     </g>
    </g>
    <g id="xtick_34">
     <g id="line2d_132">
      <path clip-path="url(#p7cc2f4300f)" d="M 332.658339 307.584 
L 332.658339 261.702621 
" style="fill:none;stroke:#ffffff;stroke-linecap:round;stroke-width:0.8;"/>
     </g>
     <g id="line2d_133"/>
     <g id="text_22">
      <!-- 50 -->
      <defs>
       <path d="M 51.421875 22.40625 
Q 51.421875 11.53125 44.953125 5.265625 
Q 38.484375 -0.984375 27 -0.984375 
Q 17.390625 -0.984375 11.46875 3.21875 
Q 5.5625 7.421875 4 15.375 
L 12.890625 16.40625 
Q 15.671875 6.203125 27.203125 6.203125 
Q 34.28125 6.203125 38.28125 10.46875 
Q 42.28125 14.75 42.28125 22.21875 
Q 42.28125 28.71875 38.25 32.71875 
Q 34.234375 36.71875 27.390625 36.71875 
Q 23.828125 36.71875 20.75 35.59375 
Q 17.671875 34.46875 14.59375 31.78125 
L 6 31.78125 
L 8.296875 68.796875 
L 47.40625 68.796875 
L 47.40625 61.328125 
L 16.3125 61.328125 
L 14.984375 39.5 
Q 20.703125 43.890625 29.203125 43.890625 
Q 39.359375 43.890625 45.390625 37.9375 
Q 51.421875 31.984375 51.421875 22.40625 
z
" id="LiberationSans-35"/>
      </defs>
      <g style="fill:#262626;" transform="translate(327.097401 318.330875)scale(0.1 -0.1)">
       <use xlink:href="#LiberationSans-35"/>
       <use x="55.615234" xlink:href="#LiberationSans-30"/>
      </g>
     </g>
    </g>
    <g id="xtick_35">
     <g id="line2d_134">
      <path clip-path="url(#p7cc2f4300f)" d="M 387.677522 307.584 
L 387.677522 261.702621 
" style="fill:none;stroke:#ffffff;stroke-linecap:round;stroke-width:0.8;"/>
     </g>
     <g id="line2d_135"/>
     <g id="text_23">
      <!-- 60 -->
      <defs>
       <path d="M 51.21875 22.515625 
Q 51.21875 11.625 45.3125 5.3125 
Q 39.40625 -0.984375 29 -0.984375 
Q 17.390625 -0.984375 11.234375 7.65625 
Q 5.078125 16.3125 5.078125 32.8125 
Q 5.078125 50.6875 11.46875 60.25 
Q 17.875 69.828125 29.6875 69.828125 
Q 45.265625 69.828125 49.3125 55.8125 
L 40.921875 54.296875 
Q 38.328125 62.703125 29.59375 62.703125 
Q 22.078125 62.703125 17.9375 55.6875 
Q 13.8125 48.6875 13.8125 35.40625 
Q 16.21875 39.84375 20.5625 42.15625 
Q 24.90625 44.484375 30.515625 44.484375 
Q 40.046875 44.484375 45.625 38.515625 
Q 51.21875 32.5625 51.21875 22.515625 
z
M 42.28125 22.125 
Q 42.28125 29.59375 38.625 33.640625 
Q 34.96875 37.703125 28.421875 37.703125 
Q 22.265625 37.703125 18.484375 34.109375 
Q 14.703125 30.515625 14.703125 24.21875 
Q 14.703125 16.265625 18.625 11.1875 
Q 22.5625 6.109375 28.71875 6.109375 
Q 35.0625 6.109375 38.671875 10.375 
Q 42.28125 14.65625 42.28125 22.125 
z
" id="LiberationSans-36"/>
      </defs>
      <g style="fill:#262626;" transform="translate(382.116584 318.330875)scale(0.1 -0.1)">
       <use xlink:href="#LiberationSans-36"/>
       <use x="55.615234" xlink:href="#LiberationSans-30"/>
      </g>
     </g>
    </g>
    <g id="text_24">
     <!-- Time (s) -->
     <defs>
      <path d="M 35.15625 61.1875 
L 35.15625 0 
L 25.875 0 
L 25.875 61.1875 
L 2.25 61.1875 
L 2.25 68.796875 
L 58.796875 68.796875 
L 58.796875 61.1875 
z
" id="LiberationSans-54"/>
      <path d="M 6.6875 64.0625 
L 6.6875 72.46875 
L 15.484375 72.46875 
L 15.484375 64.0625 
z
M 6.6875 0 
L 6.6875 52.828125 
L 15.484375 52.828125 
L 15.484375 0 
z
" id="LiberationSans-69"/>
      <path d="M 37.5 0 
L 37.5 33.5 
Q 37.5 41.15625 35.390625 44.078125 
Q 33.296875 47.015625 27.828125 47.015625 
Q 22.21875 47.015625 18.9375 42.71875 
Q 15.671875 38.421875 15.671875 30.609375 
L 15.671875 0 
L 6.9375 0 
L 6.9375 41.546875 
Q 6.9375 50.78125 6.640625 52.828125 
L 14.9375 52.828125 
Q 14.984375 52.59375 15.03125 51.515625 
Q 15.09375 50.4375 15.15625 49.046875 
Q 15.234375 47.65625 15.328125 43.796875 
L 15.484375 43.796875 
Q 18.3125 49.421875 21.96875 51.609375 
Q 25.640625 53.8125 30.90625 53.8125 
Q 36.921875 53.8125 40.40625 51.421875 
Q 43.890625 49.03125 45.265625 43.796875 
L 45.40625 43.796875 
Q 48.140625 49.125 52.015625 51.46875 
Q 55.90625 53.8125 61.421875 53.8125 
Q 69.4375 53.8125 73.0625 49.46875 
Q 76.703125 45.125 76.703125 35.203125 
L 76.703125 0 
L 68.015625 0 
L 68.015625 33.5 
Q 68.015625 41.15625 65.90625 44.078125 
Q 63.8125 47.015625 58.34375 47.015625 
Q 52.59375 47.015625 49.390625 42.75 
Q 46.1875 38.484375 46.1875 30.609375 
L 46.1875 0 
z
" id="LiberationSans-6d"/>
      <path d="M 13.484375 24.5625 
Q 13.484375 15.484375 17.234375 10.546875 
Q 21 5.609375 28.21875 5.609375 
Q 33.9375 5.609375 37.375 7.90625 
Q 40.828125 10.203125 42.046875 13.71875 
L 49.75 11.53125 
Q 45.015625 -0.984375 28.21875 -0.984375 
Q 16.5 -0.984375 10.375 6 
Q 4.25 12.984375 4.25 26.765625 
Q 4.25 39.84375 10.375 46.828125 
Q 16.5 53.8125 27.875 53.8125 
Q 51.171875 53.8125 51.171875 25.734375 
L 51.171875 24.5625 
z
M 42.09375 31.296875 
Q 41.359375 39.65625 37.84375 43.484375 
Q 34.328125 47.3125 27.734375 47.3125 
Q 21.34375 47.3125 17.609375 43.03125 
Q 13.875 38.765625 13.578125 31.296875 
z
" id="LiberationSans-65"/>
      <path d="M 6.203125 25.984375 
Q 6.203125 40.09375 10.625 51.3125 
Q 15.046875 62.546875 24.21875 72.46875 
L 32.71875 72.46875 
Q 23.578125 62.3125 19.3125 50.875 
Q 15.046875 39.453125 15.046875 25.875 
Q 15.046875 12.359375 19.265625 0.96875 
Q 23.484375 -10.40625 32.71875 -20.703125 
L 24.21875 -20.703125 
Q 14.984375 -10.75 10.59375 0.5 
Q 6.203125 11.765625 6.203125 25.78125 
z
" id="LiberationSans-28"/>
      <path d="M 46.390625 14.59375 
Q 46.390625 7.125 40.75 3.0625 
Q 35.109375 -0.984375 24.953125 -0.984375 
Q 15.09375 -0.984375 9.734375 2.265625 
Q 4.390625 5.515625 2.78125 12.40625 
L 10.546875 13.921875 
Q 11.671875 9.671875 15.1875 7.6875 
Q 18.703125 5.71875 24.953125 5.71875 
Q 31.640625 5.71875 34.734375 7.765625 
Q 37.84375 9.8125 37.84375 13.921875 
Q 37.84375 17.046875 35.6875 19 
Q 33.546875 20.953125 28.765625 22.21875 
L 22.46875 23.875 
Q 14.890625 25.828125 11.6875 27.703125 
Q 8.5 29.59375 6.6875 32.28125 
Q 4.890625 34.96875 4.890625 38.875 
Q 4.890625 46.09375 10.03125 49.875 
Q 15.1875 53.65625 25.046875 53.65625 
Q 33.796875 53.65625 38.9375 50.578125 
Q 44.09375 47.515625 45.453125 40.71875 
L 37.546875 39.75 
Q 36.8125 43.265625 33.609375 45.140625 
Q 30.421875 47.015625 25.046875 47.015625 
Q 19.09375 47.015625 16.25 45.203125 
Q 13.421875 43.40625 13.421875 39.75 
Q 13.421875 37.5 14.59375 36.03125 
Q 15.765625 34.578125 18.0625 33.546875 
Q 20.359375 32.515625 27.734375 30.71875 
Q 34.71875 28.953125 37.796875 27.46875 
Q 40.875 25.984375 42.65625 24.171875 
Q 44.4375 22.359375 45.40625 19.984375 
Q 46.390625 17.625 46.390625 14.59375 
z
" id="LiberationSans-73"/>
      <path d="M 27.09375 25.78125 
Q 27.09375 11.671875 22.671875 0.4375 
Q 18.265625 -10.796875 9.078125 -20.703125 
L 0.59375 -20.703125 
Q 9.765625 -10.453125 14.015625 0.890625 
Q 18.265625 12.25 18.265625 25.875 
Q 18.265625 39.5 13.984375 50.875 
Q 9.71875 62.25 0.59375 72.46875 
L 9.078125 72.46875 
Q 18.3125 62.5 22.703125 51.234375 
Q 27.09375 39.984375 27.09375 25.984375 
z
" id="LiberationSans-29"/>
     </defs>
     <g style="fill:#262626;" transform="translate(217.833438 331.65275)scale(0.1 -0.1)">
      <use xlink:href="#LiberationSans-54"/>
      <use x="61.037109" xlink:href="#LiberationSans-69"/>
      <use x="83.253906" xlink:href="#LiberationSans-6d"/>
      <use x="166.554688" xlink:href="#LiberationSans-65"/>
      <use x="222.169922" xlink:href="#LiberationSans-20"/>
      <use x="249.953125" xlink:href="#LiberationSans-28"/>
      <use x="283.253906" xlink:href="#LiberationSans-73"/>
      <use x="333.253906" xlink:href="#LiberationSans-29"/>
     </g>
    </g>
   </g>
   <g id="matplotlib.axis_10">
    <g id="ytick_13">
     <g id="line2d_136">
      <path clip-path="url(#p7cc2f4300f)" d="M 57.6 296.158923 
L 414.72 296.158923 
" style="fill:none;stroke:#ffffff;stroke-linecap:round;stroke-width:0.8;"/>
     </g>
     <g id="line2d_137"/>
     <g id="text_25">
      <!-- 0.8 -->
      <g style="fill:#262626;" transform="translate(40.2 299.782361)scale(0.1 -0.1)">
       <use xlink:href="#LiberationSans-30"/>
       <use x="55.615234" xlink:href="#LiberationSans-2e"/>
       <use x="83.398438" xlink:href="#LiberationSans-38"/>
      </g>
     </g>
    </g>
    <g id="ytick_14">
     <g id="line2d_138">
      <path clip-path="url(#p7cc2f4300f)" d="M 57.6 278.930427 
L 414.72 278.930427 
" style="fill:none;stroke:#ffffff;stroke-linecap:round;stroke-width:0.8;"/>
     </g>
     <g id="line2d_139"/>
     <g id="text_26">
      <!-- 0.9 -->
      <g style="fill:#262626;" transform="translate(40.2 282.553865)scale(0.1 -0.1)">
       <use xlink:href="#LiberationSans-30"/>
       <use x="55.615234" xlink:href="#LiberationSans-2e"/>
       <use x="83.398438" xlink:href="#LiberationSans-39"/>
      </g>
     </g>
    </g>
    <g id="ytick_15">
     <g id="line2d_140">
      <path clip-path="url(#p7cc2f4300f)" d="M 57.6 261.701932 
L 414.72 261.701932 
" style="fill:none;stroke:#ffffff;stroke-linecap:round;stroke-width:0.8;"/>
     </g>
     <g id="line2d_141"/>
     <g id="text_27">
      <!-- 1.0 -->
      <g style="fill:#262626;" transform="translate(40.2 265.325369)scale(0.1 -0.1)">
       <use xlink:href="#LiberationSans-31"/>
       <use x="55.615234" xlink:href="#LiberationSans-2e"/>
       <use x="83.398438" xlink:href="#LiberationSans-30"/>
      </g>
     </g>
    </g>
    <g id="text_28">
     <!-- Battery (%) -->
     <defs>
      <path d="M 61.421875 19.390625 
Q 61.421875 10.203125 54.734375 5.09375 
Q 48.046875 0 36.140625 0 
L 8.203125 0 
L 8.203125 68.796875 
L 33.203125 68.796875 
Q 57.421875 68.796875 57.421875 52.09375 
Q 57.421875 46 54 41.84375 
Q 50.59375 37.703125 44.34375 36.28125 
Q 52.546875 35.296875 56.984375 30.78125 
Q 61.421875 26.265625 61.421875 19.390625 
z
M 48.046875 50.984375 
Q 48.046875 56.546875 44.234375 58.9375 
Q 40.4375 61.328125 33.203125 61.328125 
L 17.53125 61.328125 
L 17.53125 39.546875 
L 33.203125 39.546875 
Q 40.671875 39.546875 44.359375 42.359375 
Q 48.046875 45.171875 48.046875 50.984375 
z
M 52 20.125 
Q 52 32.28125 34.90625 32.28125 
L 17.53125 32.28125 
L 17.53125 7.46875 
L 35.640625 7.46875 
Q 44.1875 7.46875 48.09375 10.640625 
Q 52 13.8125 52 20.125 
z
" id="LiberationSans-42"/>
      <path d="M 20.21875 -0.984375 
Q 12.25 -0.984375 8.25 3.21875 
Q 4.25 7.421875 4.25 14.75 
Q 4.25 22.953125 9.640625 27.34375 
Q 15.046875 31.734375 27.046875 32.03125 
L 38.921875 32.234375 
L 38.921875 35.109375 
Q 38.921875 41.546875 36.1875 44.328125 
Q 33.453125 47.125 27.59375 47.125 
Q 21.6875 47.125 19 45.109375 
Q 16.3125 43.109375 15.765625 38.71875 
L 6.59375 39.546875 
Q 8.84375 53.8125 27.78125 53.8125 
Q 37.75 53.8125 42.765625 49.234375 
Q 47.796875 44.671875 47.796875 36.03125 
L 47.796875 13.28125 
Q 47.796875 9.375 48.828125 7.390625 
Q 49.859375 5.421875 52.734375 5.421875 
Q 54 5.421875 55.609375 5.765625 
L 55.609375 0.296875 
Q 52.296875 -0.484375 48.828125 -0.484375 
Q 43.953125 -0.484375 41.71875 2.078125 
Q 39.5 4.640625 39.203125 10.109375 
L 38.921875 10.109375 
Q 35.546875 4.046875 31.078125 1.53125 
Q 26.609375 -0.984375 20.21875 -0.984375 
z
M 22.21875 5.609375 
Q 27.046875 5.609375 30.8125 7.8125 
Q 34.578125 10.015625 36.75 13.84375 
Q 38.921875 17.671875 38.921875 21.734375 
L 38.921875 26.078125 
L 29.296875 25.875 
Q 23.09375 25.78125 19.890625 24.609375 
Q 16.703125 23.4375 14.984375 21 
Q 13.28125 18.5625 13.28125 14.59375 
Q 13.28125 10.296875 15.59375 7.953125 
Q 17.921875 5.609375 22.21875 5.609375 
z
" id="LiberationSans-61"/>
      <path d="M 27.046875 0.390625 
Q 22.703125 -0.78125 18.171875 -0.78125 
Q 7.625 -0.78125 7.625 11.1875 
L 7.625 46.4375 
L 1.515625 46.4375 
L 1.515625 52.828125 
L 7.953125 52.828125 
L 10.546875 64.65625 
L 16.40625 64.65625 
L 16.40625 52.828125 
L 26.171875 52.828125 
L 26.171875 46.4375 
L 16.40625 46.4375 
L 16.40625 13.09375 
Q 16.40625 9.28125 17.640625 7.734375 
Q 18.890625 6.203125 21.96875 6.203125 
Q 23.734375 6.203125 27.046875 6.890625 
z
" id="LiberationSans-74"/>
      <path d="M 6.9375 0 
L 6.9375 40.53125 
Q 6.9375 46.09375 6.640625 52.828125 
L 14.9375 52.828125 
Q 15.328125 43.84375 15.328125 42.046875 
L 15.53125 42.046875 
Q 17.625 48.828125 20.359375 51.3125 
Q 23.09375 53.8125 28.078125 53.8125 
Q 29.828125 53.8125 31.640625 53.328125 
L 31.640625 45.265625 
Q 29.890625 45.75 26.953125 45.75 
Q 21.484375 45.75 18.59375 41.03125 
Q 15.71875 36.328125 15.71875 27.546875 
L 15.71875 0 
z
" id="LiberationSans-72"/>
      <path d="M 9.328125 -20.75 
Q 5.71875 -20.75 3.265625 -20.21875 
L 3.265625 -13.625 
Q 5.125 -13.921875 7.375 -13.921875 
Q 15.578125 -13.921875 20.359375 -1.859375 
L 21.1875 0.25 
L 0.25 52.828125 
L 9.625 52.828125 
L 20.75 23.640625 
Q 21 22.953125 21.34375 22 
Q 21.6875 21.046875 23.53125 15.625 
Q 25.390625 10.203125 25.53125 9.578125 
L 28.953125 19.1875 
L 40.53125 52.828125 
L 49.8125 52.828125 
L 29.5 0 
Q 26.21875 -8.453125 23.390625 -12.578125 
Q 20.5625 -16.703125 17.109375 -18.71875 
Q 13.671875 -20.75 9.328125 -20.75 
z
" id="LiberationSans-79"/>
      <path d="M 85.359375 21.1875 
Q 85.359375 10.6875 81.390625 5.046875 
Q 77.4375 -0.59375 69.734375 -0.59375 
Q 62.109375 -0.59375 58.21875 4.90625 
Q 54.34375 10.40625 54.34375 21.1875 
Q 54.34375 32.328125 58.078125 37.765625 
Q 61.8125 43.21875 69.921875 43.21875 
Q 77.9375 43.21875 81.640625 37.625 
Q 85.359375 32.03125 85.359375 21.1875 
z
M 25.734375 0 
L 18.171875 0 
L 63.1875 68.796875 
L 70.84375 68.796875 
z
M 19.234375 69.390625 
Q 27 69.390625 30.75 63.921875 
Q 34.515625 58.453125 34.515625 47.609375 
Q 34.515625 37.015625 30.640625 31.296875 
Q 26.765625 25.59375 19.046875 25.59375 
Q 11.328125 25.59375 7.4375 31.25 
Q 3.5625 36.921875 3.5625 47.609375 
Q 3.5625 58.5 7.3125 63.9375 
Q 11.078125 69.390625 19.234375 69.390625 
z
M 78.125 21.1875 
Q 78.125 29.9375 76.234375 33.859375 
Q 74.359375 37.796875 69.921875 37.796875 
Q 65.484375 37.796875 63.5 33.9375 
Q 61.53125 30.078125 61.53125 21.1875 
Q 61.53125 12.84375 63.453125 8.8125 
Q 65.375 4.78125 69.828125 4.78125 
Q 74.125 4.78125 76.125 8.859375 
Q 78.125 12.9375 78.125 21.1875 
z
M 27.34375 47.609375 
Q 27.34375 56.203125 25.484375 60.15625 
Q 23.640625 64.109375 19.234375 64.109375 
Q 14.65625 64.109375 12.703125 60.21875 
Q 10.75 56.34375 10.75 47.609375 
Q 10.75 39.15625 12.703125 35.125 
Q 14.65625 31.109375 19.140625 31.109375 
Q 23.390625 31.109375 25.359375 35.203125 
Q 27.34375 39.3125 27.34375 47.609375 
z
" id="LiberationSans-25"/>
     </defs>
     <g style="fill:#262626;" transform="translate(34.125 309.647217)rotate(-90)scale(0.1 -0.1)">
      <use xlink:href="#LiberationSans-42"/>
      <use x="66.699219" xlink:href="#LiberationSans-61"/>
      <use x="122.314453" xlink:href="#LiberationSans-74"/>
      <use x="150.097656" xlink:href="#LiberationSans-74"/>
      <use x="177.880859" xlink:href="#LiberationSans-65"/>
      <use x="233.496094" xlink:href="#LiberationSans-72"/>
      <use x="266.796875" xlink:href="#LiberationSans-79"/>
      <use x="316.796875" xlink:href="#LiberationSans-20"/>
      <use x="344.580078" xlink:href="#LiberationSans-28"/>
      <use x="377.880859" xlink:href="#LiberationSans-25"/>
      <use x="466.796875" xlink:href="#LiberationSans-29"/>
     </g>
    </g>
   </g>
   <g id="line2d_142">
    <path clip-path="url(#p7cc2f4300f)" d="M 57.611533 261.702965 
L 57.611533 280.288033 
L 157.147696 282.211939 
L 157.697888 300.996512 
L 415.187663 305.99157 
L 415.187663 305.99157 
" style="fill:none;stroke:#808080;stroke-linecap:round;stroke-opacity:0.3;stroke-width:0.6;"/>
   </g>
   <g id="line2d_143">
    <path clip-path="url(#p7cc2f4300f)" d="M 57.620325 261.702965 
L 57.620325 280.316115 
L 223.775927 283.62347 
L 224.87631 283.698758 
L 285.397411 284.976596 
L 287.047987 285.025869 
L 354.171389 286.393295 
L 354.182393 306.41453 
L 415.242682 307.594682 
L 415.242682 307.594682 
" style="fill:none;stroke:#808080;stroke-linecap:round;stroke-opacity:0.3;stroke-width:0.6;"/>
   </g>
   <g id="line2d_144">
    <path clip-path="url(#p7cc2f4300f)" d="M 57.6 261.702621 
L 57.6 280.288377 
L 174.231153 282.542726 
L 174.628941 301.677727 
L 415.215173 306.349578 
L 415.215173 306.349578 
" style="fill:none;stroke:#808080;stroke-linecap:round;stroke-opacity:0.3;stroke-width:0.6;"/>
   </g>
   <g id="line2d_145">
    <path clip-path="url(#p7cc2f4300f)" d="M 58.112617 261.712613 
L 414.636921 268.604012 
L 415.187113 261.712613 
L 415.187113 261.712613 
" style="fill:none;stroke:#808080;stroke-linecap:round;stroke-opacity:0.3;stroke-width:0.6;"/>
   </g>
   <g id="line2d_146">
    <path clip-path="url(#p7cc2f4300f)" d="M 57.646847 261.703482 
L 57.646847 280.303538 
L 242.509958 283.906361 
L 242.624398 301.89963 
L 415.270192 305.25867 
L 415.270192 305.25867 
" style="fill:none;stroke:#808080;stroke-linecap:round;stroke-opacity:0.3;stroke-width:0.6;"/>
   </g>
   <g id="line2d_147">
    <path clip-path="url(#p7cc2f4300f)" d="M 58.112617 261.712613 
L 414.636921 268.604012 
L 415.187113 261.712613 
L 415.187113 261.712613 
" style="fill:none;stroke:#ffff33;stroke-linecap:round;stroke-opacity:0.9;stroke-width:2.4;"/>
   </g>
   <g id="line2d_148">
    <path clip-path="url(#p7cc2f4300f)" d="M 415.187113 307.584 
L 415.187113 261.702621 
" style="fill:none;stroke:#000000;stroke-linecap:round;stroke-width:1.5;"/>
   </g>
   <g id="line2d_149">
    <path clip-path="url(#p7cc2f4300f)" style="fill:none;stroke:#000000;stroke-linecap:round;stroke-width:1.5;"/>
   </g>
   <g id="line2d_150">
    <path clip-path="url(#p7cc2f4300f)" style="fill:none;stroke:#ff0000;stroke-linecap:round;stroke-width:1.5;"/>
   </g>
   <g id="patch_23">
    <path d="M 57.6 307.584 
L 57.6 261.702621 
" style="fill:none;"/>
   </g>
   <g id="patch_24">
    <path d="M 414.72 307.584 
L 414.72 261.702621 
" style="fill:none;"/>
   </g>
   <g id="patch_25">
    <path d="M 57.6 307.584 
L 414.72 307.584 
" style="fill:none;"/>
   </g>
   <g id="patch_26">
    <path d="M 57.6 261.702621 
L 414.72 261.702621 
" style="fill:none;"/>
   </g>
   <g id="text_29">
    <!-- UAV 5 -->
    <g style="fill:#ffff33;" transform="translate(57.6 259.373131)scale(0.07 -0.07)">
     <use xlink:href="#LiberationSans-55"/>
     <use x="72.216797" xlink:href="#LiberationSans-41"/>
     <use x="138.806641" xlink:href="#LiberationSans-56"/>
     <use x="205.505859" xlink:href="#LiberationSans-20"/>
     <use x="233.289062" xlink:href="#LiberationSans-35"/>
    </g>
   </g>
  </g>
 </g>
 <defs>
  <clipPath id="p4c98f12c56">
   <rect height="45.881379" width="357.12" x="57.6" y="41.472"/>
  </clipPath>
  <clipPath id="pc69deba77e">
   <rect height="45.881379" width="357.12" x="57.6" y="96.529655"/>
  </clipPath>
  <clipPath id="pea8ecf92c0">
   <rect height="45.881379" width="357.12" x="57.6" y="151.58731"/>
  </clipPath>
  <clipPath id="p0078792fc0">
   <rect height="45.881379" width="357.12" x="57.6" y="206.644966"/>
  </clipPath>
  <clipPath id="p7cc2f4300f">
   <rect height="45.881379" width="357.12" x="57.6" y="261.702621"/>
  </clipPath>
 </defs>
</svg>
